<svg xmlns="http://www.w3.org/2000/svg" viewBox="0 0 220.53 326.32"><defs><style>.cls-1{isolation:isolate;}.cls-2{fill:#f9dbb4;mix-blend-mode:multiply;}.cls-3{fill:#373736;}.cls-4{fill:#ffbf9d;}.cls-5{fill:#ff9a6c;}.cls-6{fill:none;}.cls-7{fill:#0060ac;}.cls-10,.cls-8{opacity:0.5;}.cls-10,.cls-9{fill:#fff;}.cls-11{fill:#e3f4ff;}.cls-12{fill:#018cbe;}.cls-13{opacity:0.2;}.cls-14{fill:#e0e0e0;}.cls-15{fill:#9d9fa5;}.cls-16{fill:#db9500;}</style></defs><g class="cls-1"><g id="Layer_2" data-name="Layer 2"><g id="Info"><ellipse class="cls-2" cx="110.26" cy="256.18" rx="110.26" ry="24.67"/><path class="cls-3" d="M128,28.91A6.14,6.14,0,0,0,134.28,24,6.15,6.15,0,0,0,130,17.27a6.35,6.35,0,0,0,.72-7.19,6.36,6.36,0,0,0-6.59-2.95,7.56,7.56,0,0,0-4.15-6,7.56,7.56,0,0,0-7.27.48,8.29,8.29,0,0,0-10.22.29,6.07,6.07,0,0,0-6.16,3.38,6.07,6.07,0,0,0,1.43,6.87"/><path class="cls-4" d="M128.94,29.7A25.17,25.17,0,0,0,102.8,7.75l-1.31.06C87.49,9.29,80.93,22,82.79,36L87,82.62l1.1,11,31.82-3.76L119.33,78s13.4-2.73,12.94-16.23C132,55.2,130.49,41.81,128.94,29.7Z"/><path class="cls-5" d="M119.44,77.92a32.77,32.77,0,0,1-17.92-4.35s4.61,9.52,18,7.68Z"/><path class="cls-3" d="M125.05,35.52a1.94,1.94,0,0,1-1.77,2,1.85,1.85,0,0,1-2.07-1.65,1.94,1.94,0,0,1,1.77-2A1.85,1.85,0,0,1,125.05,35.52Z"/><path class="cls-6" d="M126.35,36.44c-.23.26-1.74-.75-3.81-.65s-3.55,1.21-3.78,1,.1-.57.74-1.08a5.26,5.26,0,0,1,3-1.09,5.06,5.06,0,0,1,3,.83C126.22,35.88,126.46,36.32,126.35,36.44Z"/><path class="cls-3" d="M106.16,36.46a1.94,1.94,0,0,1-1.77,2,1.86,1.86,0,0,1-2.07-1.65,1.94,1.94,0,0,1,1.77-2A1.85,1.85,0,0,1,106.16,36.46Z"/><path class="cls-6" d="M106,37.78c-.22.26-1.74-.75-3.81-.65s-3.54,1.21-3.78,1,.1-.57.75-1.09a5.26,5.26,0,0,1,3-1.08,5.11,5.11,0,0,1,3,.83C105.86,37.22,106.09,37.66,106,37.78Z"/><path class="cls-3" d="M114.23,52.81a13.6,13.6,0,0,1,3.34-.77c.52-.08,1-.21,1.09-.57a2.73,2.73,0,0,0-.42-1.56c-.56-1.25-1.15-2.57-1.76-3.95-2.44-5.64-4.24-10.29-4-10.39s2.39,4.4,4.84,10l1.69,4a3.06,3.06,0,0,1,.37,2.06,1.36,1.36,0,0,1-.84.82,4.1,4.1,0,0,1-.89.16A14.24,14.24,0,0,1,114.23,52.81Z"/><path class="cls-3" d="M106.43,31.22c-.25.54-2.06.05-4.25.08s-4,.48-4.24-.05c-.1-.26.27-.75,1-1.21a6.68,6.68,0,0,1,3.25-.84,6.39,6.39,0,0,1,3.21.82C106.19,30.48,106.54,31,106.43,31.22Z"/><path class="cls-3" d="M126.05,27.89c-.42.49-2.15.08-4.21.15s-3.79.5-4.21,0c-.19-.23.07-.71.81-1.2a6.77,6.77,0,0,1,3.38-.93,6.56,6.56,0,0,1,3.4.79C126,27.17,126.23,27.65,126.05,27.89Z"/><path class="cls-3" d="M127.35,23.58s-3.95-8.29-8.12-10.07c-5-2.16-6.91,3.36-11.68,2.26s-9.57-3.16-14.21.7c-5.07,4.22-2.48,6.9-2.52,12.9-.18,24.33-4.3,31.4-6.09,20-.2-1.25-3.72-2.08-4.48-7.35-1-6.83-1.65-15.15-.34-20.09,1.1-4.17,3.31-7.11,7.36-10.44,6.39-5.24,15.49-5.77,21.7-5.44S127.42,13,127.35,23.58Z"/><path class="cls-4" d="M85.57,49a3.66,3.66,0,0,0-4.12-3.34c-2.5.35-5.24,1.91-4.83,7.11.73,9.21,9.83,6.58,9.82,6.31S85.91,52.84,85.57,49Z"/><path class="cls-5" d="M84.16,55.77s-.15.12-.41.27a1.63,1.63,0,0,1-1.2.12c-1-.28-1.94-1.76-2.12-3.42a5.35,5.35,0,0,1,.27-2.33,1.86,1.86,0,0,1,1.11-1.33.81.81,0,0,1,1,.36c.15.25.1.44.15.45s.19-.17.09-.54a1.08,1.08,0,0,0-.41-.55,1.26,1.26,0,0,0-.91-.17,2.28,2.28,0,0,0-1.56,1.56,5.49,5.49,0,0,0-.36,2.62c.21,1.85,1.3,3.51,2.66,3.79a1.73,1.73,0,0,0,1.45-.36C84.16,56,84.2,55.78,84.16,55.77Z"/><path class="cls-3" d="M84.92,31.11a8.7,8.7,0,0,0,4,1.62,3,3,0,0,0,3.24-2.27c.08-.65-.12-1.39.28-1.9s1.42-.48,2.19-.43a5.9,5.9,0,0,0,5.92-4.51c.73,1,2.33.88,3.33.16a13.72,13.72,0,0,0,2.39-2.8,3.8,3.8,0,0,1,3.09-1.74,8.39,8.39,0,0,0,2,.35c1.2-.16,1.73-1.61,1.85-2.82s.21-2.62,1.2-3.32,2.17-.36,3.3-.25,2.55-.21,2.78-1.32a2.15,2.15,0,0,0-.49-1.65,6,6,0,0,0-7.16-1.93,8.11,8.11,0,0,0-15-.88,8.23,8.23,0,0,0-13,3.61,6,6,0,0,0-6.31,9,5.69,5.69,0,0,0-2.9,4.65c.06,1.91,2,3.73,3.82,3.14a3.3,3.3,0,0,0,5.86,3"/><path class="cls-7" d="M113.68,11a.74.74,0,0,1,0,.17c0,.11,0,.28,0,.49a6,6,0,0,1-.59,1.81,6.62,6.62,0,0,1-1.94,2.28A6.22,6.22,0,0,1,107.39,17l.14-.21a3.35,3.35,0,0,1-.06,2.56A9.7,9.7,0,0,1,106,21.67a6.61,6.61,0,0,1-1,1.11,3.21,3.21,0,0,1-1.43.61,3.37,3.37,0,0,1-3-.93l.34-.11a6.94,6.94,0,0,1-2.71,4.92,5.11,5.11,0,0,1-3,1.14,9,9,0,0,1-3-.52l.24-.12a7.31,7.31,0,0,1-2.05,2.95,3.93,3.93,0,0,1-3.18,1A5.1,5.1,0,0,1,83.11,28l.21.09a4.73,4.73,0,0,1-3.15.61,5.22,5.22,0,0,1-2.26-.88,4.7,4.7,0,0,1-1.08-1.08,2.12,2.12,0,0,1-.26-.47A5.67,5.67,0,0,0,78,27.64a5.09,5.09,0,0,0,2.2.79,4.57,4.57,0,0,0,3-.63l.17-.11,0,.2a4.81,4.81,0,0,0,3.88,3.51,3.52,3.52,0,0,0,2.88-1,7,7,0,0,0,1.92-2.8l.07-.18.17.06a8.86,8.86,0,0,0,2.89.49A4.69,4.69,0,0,0,97.94,27a6.54,6.54,0,0,0,2.57-4.64l0-.44.31.33a3,3,0,0,0,2.66.81,2.86,2.86,0,0,0,1.28-.53,5.84,5.84,0,0,0,.92-1,9,9,0,0,0,1.45-2.24,3,3,0,0,0,.09-2.31l-.09-.22h.23A5.93,5.93,0,0,0,111,15.53a6.61,6.61,0,0,0,1.94-2.16A7.4,7.4,0,0,0,113.68,11Z"/><path class="cls-3" d="M116.59,59.6c0,.09-.48.41-1.41.61a7.83,7.83,0,0,1-6.91-2c-.67-.69-.93-1.23-.85-1.28s1.65,1.65,4.28,2.39S116.53,59.38,116.59,59.6Z"/><path class="cls-3" d="M147,210.63l-81.73,1.11s-22.85-9.56-29.13-9.82-18.74.54-24.51,9.82c-6,9.59-6.79,26.51,11.57,38.81,17.89,12,99.67,23,110.88,22l20.67-27.74s.21-22.73,0-23.81-3.68-10.83-3.68-10.83Z"/><path class="cls-7" d="M101.63,247.38,52.83,265.5l22.24,60.82c5.68-2.48,5.84-38.21,5.84-38.21l31.74-10.33Z"/><g class="cls-8"><path class="cls-9" d="M76.67,268.34a2.64,2.64,0,0,0-3.46-.68,2.55,2.55,0,0,0-.71,3.43,2.81,2.81,0,0,0,3.68.7c1-.83,1.3-2.78.33-3.65"/></g><path class="cls-10" d="M52.83,265.5l4.93-1.83,19.52,59.12s-.19,3.14-2.21,3.53Z"/><path class="cls-9" d="M81.58,289c-.3.09-1-1.34-2.46-2.45s-3-1.44-3-1.75,1.9-.51,3.68.87S81.88,289,81.58,289Z"/><path class="cls-9" d="M81.28,296.33c-.27.17-1.24-.93-2.87-1.48s-3.06-.35-3.15-.65,1.51-1.11,3.52-.39S81.56,296.22,81.28,296.33Z"/><path class="cls-9" d="M75,302.74c-.16-.24,1.17-1.2,3.07-1s3.06,1.32,2.86,1.54-1.38-.33-3-.44S75.1,303,75,302.74Z"/><path class="cls-9" d="M88.56,285.83c-.32,0-.41-1.54-1.14-3.18s-1.73-2.75-1.53-3,1.71.63,2.54,2.57S88.84,285.89,88.56,285.83Z"/><path class="cls-9" d="M95.24,281.74c-.12.05-.73-1.06-1.1-3.05a14.61,14.61,0,0,1-.18-3.55,14.23,14.23,0,0,1,.29-2.08,3.61,3.61,0,0,1,.38-1.19,1.39,1.39,0,0,1,1.53-.71,1.74,1.74,0,0,1,1.15,1,4.27,4.27,0,0,1,.26,1.2,11,11,0,0,1,0,2.14A11.35,11.35,0,0,1,96.8,279c-.79,1.89-1.73,2.77-1.82,2.69s.53-1.12,1.08-3a12.61,12.61,0,0,0,.54-3.28,11.69,11.69,0,0,0-.1-1.94c-.06-.71-.26-1.26-.61-1.32-.13,0-.17,0-.31.19a3.07,3.07,0,0,0-.28.87,17.89,17.89,0,0,0-.33,1.94,17.43,17.43,0,0,0,0,3.36C95.07,280.51,95.41,281.69,95.24,281.74Z"/><path class="cls-9" d="M94.68,281.51c-.09-.09.76-1.07,2.64-1.88a10.56,10.56,0,0,1,3.49-.8,10.3,10.3,0,0,1,2.13.1,2.64,2.64,0,0,1,2.25,1.38,1.52,1.52,0,0,1-.38,1.58,4.6,4.6,0,0,1-1,.72,7.5,7.5,0,0,1-5.68.6c-2-.61-2.82-1.72-2.72-1.78s1.06.67,2.91,1a7.49,7.49,0,0,0,3.21-.09,6.29,6.29,0,0,0,1.74-.7c.61-.33,1-.76.89-1s-.78-.64-1.39-.7a10.63,10.63,0,0,0-1.92-.15,11.78,11.78,0,0,0-3.26.52C95.78,280.93,94.78,281.66,94.68,281.51Z"/><path class="cls-7" d="M128.56,246.11l43.72,20.28-24.95,54.53c-5.07-2.7-2.61-35.7-2.61-35.7l-28.55-11.84Z"/><g class="cls-8"><path class="cls-9" d="M150.07,267.28a2.45,2.45,0,0,1,3.25-.37,2.36,2.36,0,0,1,.4,3.21,2.58,2.58,0,0,1-3.44.38c-.87-.83-1-2.66-.05-3.39"/></g><path class="cls-10" d="M172.28,266.39l-4.41-2L145.55,317.5s-.06,2.92,1.78,3.42Z"/><path class="cls-9" d="M144,286c.27.11,1-1.16,2.46-2.08s2.89-1.1,2.9-1.4-1.71-.6-3.45.54S143.76,285.93,144,286Z"/><path class="cls-9" d="M143.78,292.78c.23.18,1.21-.76,2.75-1.15s2.85-.11,3-.38-1.32-1.13-3.22-.61S143.53,292.66,143.78,292.78Z"/><path class="cls-9" d="M149.14,299.16c.17-.21-1-1.19-2.76-1.17s-2.92,1-2.75,1.21,1.3-.2,2.75-.2S149,299.42,149.14,299.16Z"/><path class="cls-9" d="M137.83,282.56c.29,0,.48-1.39,1.27-2.85s1.81-2.41,1.64-2.66-1.63.45-2.54,2.18S137.56,282.6,137.83,282.56Z"/><path class="cls-9" d="M132,278.3c.11.05.76-.92,1.24-2.74a13.64,13.64,0,0,0,.43-3.26,14.78,14.78,0,0,0-.12-1.95,3.51,3.51,0,0,0-.26-1.11,1.25,1.25,0,0,0-1.36-.77,1.57,1.57,0,0,0-1.14.88,3.8,3.8,0,0,0-.33,1.09,11.45,11.45,0,0,0-.2,2,10.66,10.66,0,0,0,.5,3.27c.6,1.8,1.39,2.69,1.49,2.62s-.41-1.07-.79-2.8a12,12,0,0,1-.26-3.07,10.5,10.5,0,0,1,.24-1.79c.11-.64.33-1.14.65-1.17.13,0,.17,0,.28.2a2.75,2.75,0,0,1,.19.82,14.86,14.86,0,0,1,.17,1.82,16.3,16.3,0,0,1-.2,3.11A21.72,21.72,0,0,0,132,278.3Z"/><path class="cls-9" d="M132.49,278.13c.09-.08-.63-1-2.31-1.93a9.56,9.56,0,0,0-3.16-1,9.12,9.12,0,0,0-2-.07,2.49,2.49,0,0,0-2.18,1.11,1.4,1.4,0,0,0,.24,1.49,4.34,4.34,0,0,0,.87.74,6.71,6.71,0,0,0,1.84.84,7,7,0,0,0,3.36.13c1.9-.42,2.72-1.39,2.64-1.45a25.37,25.37,0,0,1-2.76.74,7,7,0,0,1-3-.31,5.94,5.94,0,0,1-1.55-.78c-.54-.35-.91-.78-.75-1a1.71,1.71,0,0,1,1.33-.54,9.73,9.73,0,0,1,1.79,0,10.61,10.61,0,0,1,3,.72C131.52,277.51,132.39,278.25,132.49,278.13Z"/><path class="cls-3" d="M151.07,210.19s35.29-13.18,48.28-11.47c7.26.95,18.62,6.49,19.49,15.8s-1.41,21.77-14,27.83-62.68,28.55-74.59,32-41.59,11.57-41.59,11.57L77.41,253.8s61.53-21.31,64.78-23.69,11.47-5.63,11.47-5.63Z"/><path d="M28.38,214.56a.8.8,0,0,0,.25-.06l.71-.22c.62-.18,1.54-.45,2.74-.74a33.06,33.06,0,0,1,4.43-.77,32.59,32.59,0,0,1,5.93,0,34.08,34.08,0,0,1,7.07,1.35,24.83,24.83,0,0,1,3.72,1.45l3.84,1.87c5.28,2.53,11.18,5.11,17.46,7.59,12.58,5,24.65,7.43,33.25,9.39,4.32.95,7.81,1.74,10.22,2.31l2.77.66.72.16a.7.7,0,0,0,.25,0l-.24-.08-.71-.2c-.63-.17-1.56-.42-2.76-.72-2.39-.62-5.88-1.45-10.19-2.43-8.59-2-20.63-4.46-33.17-9.48-6.27-2.48-12.17-5.05-17.45-7.55l-3.84-1.86a24.48,24.48,0,0,0-3.78-1.46,34.63,34.63,0,0,0-7.13-1.31,32.84,32.84,0,0,0-6,.05,30.57,30.57,0,0,0-4.43.84c-1.2.31-2.12.6-2.74.81l-.69.25Z"/><path d="M30.24,209.91c0,.06,1.07-.13,2.8-.32a44,44,0,0,1,6.78-.19,42.9,42.9,0,0,1,6.71.89c1.7.36,2.74.66,2.76.6a2.33,2.33,0,0,0-.71-.28c-.46-.17-1.14-.37-2-.59a36,36,0,0,0-6.77-1,34.85,34.85,0,0,0-6.82.31,20.2,20.2,0,0,0-2,.37A2.52,2.52,0,0,0,30.24,209.91Z"/><path d="M165.91,219.53c0,.05,1-.71,2.71-1.75a36.1,36.1,0,0,1,14.53-5.13c2-.25,3.21-.27,3.21-.34a4.27,4.27,0,0,0-.87,0,23.15,23.15,0,0,0-2.37.11,32.4,32.4,0,0,0-7.64,1.69,31.77,31.77,0,0,0-7,3.48,21,21,0,0,0-1.92,1.4A4.22,4.22,0,0,0,165.91,219.53Z"/><path d="M148.2,267.47l-.27.1-.8.34c-.72.29-1.74.78-3.12,1.3-2.75,1.1-6.81,2.59-12,4.3-10.43,3.41-25.41,7.75-43.35,12.27l.21.11L77.94,255.6l-.11.24,13.51-5.55,74.77-30.77h0l0,0c3-3.22,5.84-6.06,8.47-8.35a56.71,56.71,0,0,1,7.1-5.35,50.72,50.72,0,0,1,4.87-2.71l1.31-.61.44-.22s-.16.05-.46.18l-1.32.58a48.21,48.21,0,0,0-4.92,2.67,55.78,55.78,0,0,0-7.15,5.31c-2.65,2.28-5.47,5.12-8.52,8.33l0,0L91.2,249.94l-13.51,5.55-.17.07.06.17L88.52,286l.06.15.15,0c17.93-4.55,32.91-8.94,43.32-12.4,5.2-1.74,9.26-3.27,12-4.39,1.37-.55,2.39-1.05,3.1-1.36l.79-.36Z"/><path class="cls-11" d="M61,97.72s-10.16,5.85-12.22,12.73c-1.25,4.17-10.73,57.6-12.23,68.13s1.67,18.34,6.16,21.83,18.11,8.15,18.11,8.15L80,214.77l5.49-14L67.2,174.6,69,157Z"/><path class="cls-11" d="M81,88.49l7.63-4.36s7,8.13,16.44,7.13S120.12,83,120.12,83l28.28,5.76h0c1.9.38,5.36,1.58,8.67,6.3,3.7,5.28,21.19,28.67,21.19,28.67h12.26a9.09,9.09,0,0,1,8,4.86c2.1,4,4.61,9.31,4.36,11.52-.41,3.73.31,14-4.7,17.17-1.58,1-7.26,4.06-11.67,3.85-6.5-.3-14.05-3.69-18.4-6.73-3.69-2.58-12.26-11.48-15.55-15v.05l-2.12,74.2-74.15-2.11L61,97.72S80.2,88.49,81,88.49Z"/><path class="cls-12" d="M152.87,108.37c-.11,0-.3,9.19-.43,20.54s-.16,20.54-.06,20.54.3-9.19.44-20.54S153,108.37,152.87,108.37Z"/><path class="cls-9" d="M52,168.34s.63.11,1.75.32a21.15,21.15,0,0,1,4.59,1.46,30.21,30.21,0,0,1,6.12,3.69,53.88,53.88,0,0,1,6.44,6c2.12,2.29,4.06,4.56,5.88,6.57a69.29,69.29,0,0,0,5,5.14,35,35,0,0,0,3.79,3c.47.34.86.56,1.11.72a1.76,1.76,0,0,0,.41.22,3,3,0,0,0-.36-.29c-.24-.18-.62-.42-1.07-.77a41.88,41.88,0,0,1-3.7-3.12c-1.5-1.39-3.17-3.16-5-5.18s-3.73-4.29-5.86-6.59a52.23,52.23,0,0,0-6.51-6,29.3,29.3,0,0,0-6.22-3.66,19.78,19.78,0,0,0-4.67-1.36c-.57-.11-1-.11-1.32-.15Z"/><path class="cls-9" d="M50.32,163.32c0,.07,1.12.22,2.88.71a27,27,0,0,1,12.15,7.24c1.27,1.32,2,2.24,2,2.2s-.13-.26-.43-.68a18,18,0,0,0-1.37-1.71,24.45,24.45,0,0,0-12.28-7.31,20.54,20.54,0,0,0-2.15-.4A2.85,2.85,0,0,0,50.32,163.32Z"/><g class="cls-13"><path class="cls-12" d="M188.33,150.3c-3.93,1.07-8.64-4.58-12.2-8.12-1.86-1.84-3.79-3.8-4.47-6.32a9.92,9.92,0,0,1,.62-6.32,23,23,0,0,1,2.61-5.08c-.33,3.05-1.08,7.72-.06,11.55.86,3.2,2.88,5.74,5,8.15s5,5.23,8.47,6.14"/></g><path class="cls-12" d="M171.55,147.06c.07,0-.38-1.29-.75-3.42a25.82,25.82,0,0,1-.36-3.77,27.81,27.81,0,0,1,.31-4.61,27.26,27.26,0,0,1,1.13-4.49,25.66,25.66,0,0,1,1.5-3.48c1-1.91,1.83-3,1.77-3a4,4,0,0,0-.61.73c-.18.24-.4.54-.63.91s-.52.77-.77,1.25a23.68,23.68,0,0,0-1.59,3.49,24.24,24.24,0,0,0-1.46,9.23,24.13,24.13,0,0,0,.44,3.81c.09.54.24,1,.34,1.43a10.84,10.84,0,0,0,.33,1.07A3.85,3.85,0,0,0,171.55,147.06Z"/><path class="cls-12" d="M117,85.87c0,.1.82.61,1.73,1.42s1.52,1.62,1.61,1.56A3.92,3.92,0,0,0,119,87,4,4,0,0,0,117,85.87Z"/><path class="cls-12" d="M109.32,90.36c-.08.08.66.88,1.26,2.06s.83,2.25,1,2.23a4.2,4.2,0,0,0-.61-2.4A4.08,4.08,0,0,0,109.32,90.36Z"/><path class="cls-12" d="M96.11,95A12.71,12.71,0,0,0,97,92.8a11.74,11.74,0,0,0,.76-2.25,5.49,5.49,0,0,0-1.11,2.12A5.41,5.41,0,0,0,96.11,95Z"/><path class="cls-12" d="M87.6,91c.12,0,.41-1.27,1.24-2.63S90.68,86.12,90.6,86a6.54,6.54,0,0,0-3,5Z"/><path class="cls-12" d="M63.19,115c-.11,0,1.15,10.15,2.8,22.63s3.08,22.6,3.18,22.59S68,150.09,66.37,137.6,63.29,115,63.19,115Z"/><path class="cls-3" d="M174.31,131.43a7.46,7.46,0,0,0,0,1,8,8,0,0,0,.16,1.22c0,.24.08.5.12.76s.14.55.22.84a22.15,22.15,0,0,0,1.46,4A26.76,26.76,0,0,0,179,143.7a23.85,23.85,0,0,0,3.62,3.73,15.74,15.74,0,0,0,3.64,2.19c.28.11.54.24.8.33l.74.2.65.18c.2,0,.39,0,.56.08a4.77,4.77,0,0,0,1,.08,18.27,18.27,0,0,1-3.68-1.12,16.22,16.22,0,0,1-3.53-2.22,24.56,24.56,0,0,1-3.54-3.69,29,29,0,0,1-2.71-4.34,24.77,24.77,0,0,1-1.51-3.9A38.38,38.38,0,0,1,174.31,131.43Z"/><g class="cls-13"><path class="cls-12" d="M65.57,216.24c-3.14-1.52-3.86-5.6-4.18-9.08l-2.82-30.57c-.44-4.8-.65-10.27,2.73-13.69,3.08-3.13,8-3.32,12.38-3.31,27.14.08,51.1.87,78.24.95L150.53,208Z"/></g><path class="cls-14" d="M163.61,167.9l-2.89,55a4,4,0,0,1-4,3.78l-87.7.16a4,4,0,0,1-4-3.8L61.61,169c-.11-2.25,1.49-5.24,3.76-5.28h94.12A4,4,0,0,1,163.61,167.9Z"/><path class="cls-3" d="M163.61,167.9a1.66,1.66,0,0,0,0-.21,3.61,3.61,0,0,0,0-.61,4,4,0,0,0-1-2.15,4.15,4.15,0,0,0-1.47-1,5.32,5.32,0,0,0-2.12-.29l-5.33,0-34-.06-50.39-.05H65.68a3.16,3.16,0,0,0-1.81.46,4.33,4.33,0,0,0-1.34,1.32,6.26,6.26,0,0,0-1.1,3.55c.07,1.22.14,2.46.22,3.7q.45,7.43.93,15.16c.64,10.3,1.29,21,2,31.89l.12,2c.06.68,0,1.34.17,2.06a4.19,4.19,0,0,0,2.65,3.1,5.22,5.22,0,0,0,2.06.28h6l15.74,0,29.76-.06,26.94-.06,6.21,0h1.52a13.18,13.18,0,0,0,1.53,0,4.18,4.18,0,0,0,3.6-4.22q.08-1.44.15-2.85c.1-1.87.19-3.71.28-5.5.73-14.32,1.32-25.91,1.72-33.93.2-4,.35-7.11.45-9.23.05-1,.08-1.85.11-2.4s0-.81,0-.81,0,.27-.06.81-.08,1.35-.15,2.4c-.12,2.12-.29,5.22-.52,9.22-.43,8-1.06,19.61-1.84,33.93-.09,1.79-.19,3.62-.29,5.5-.05.94-.1,1.88-.15,2.84a4,4,0,0,1-.92,2.6,3.92,3.92,0,0,1-2.45,1.34,10.29,10.29,0,0,1-1.48,0H148l-26.94,0-29.76,0-15.74,0h-6a4.94,4.94,0,0,1-1.93-.25,3.81,3.81,0,0,1-2.4-2.83c-.11-.62-.11-1.33-.17-2l-.12-2.05c-.68-10.92-1.34-21.59-2-31.89Q62.47,180,62,172.52c-.07-1.24-.15-2.47-.22-3.69a6,6,0,0,1,1-3.34,3.29,3.29,0,0,1,2.86-1.63h3.58l50.39,0,34-.06,5.33,0a5.33,5.33,0,0,1,2.09.27,4.06,4.06,0,0,1,2.5,3.06C163.63,167.62,163.59,167.9,163.61,167.9Z"/><g class="cls-8"><path class="cls-15" d="M110.38,195.61a4.74,4.74,0,0,1-.27,1.59,4.15,4.15,0,0,1-.73,1.33,3.62,3.62,0,0,1-1.09.92,2.82,2.82,0,0,1-1.36.33,3.48,3.48,0,0,1-.88-.11,2.8,2.8,0,0,1-.73-.3l-.4,1.73H103l1.71-7.4h1.92l-.14.62a6.34,6.34,0,0,1,1-.58,2.44,2.44,0,0,1,1-.2,1.72,1.72,0,0,1,1.38.55A2.17,2.17,0,0,1,110.38,195.61Zm-2.49,2.09a2.54,2.54,0,0,0,.35-.78,3.81,3.81,0,0,0,.12-1,1.14,1.14,0,0,0-.21-.74,1,1,0,0,0-.76-.26,1.72,1.72,0,0,0-.55.1,5.55,5.55,0,0,0-.58.26l-.69,3a1.45,1.45,0,0,0,.4.11,2.32,2.32,0,0,0,.46,0,1.67,1.67,0,0,0,1.46-.75Z"/><path class="cls-15" d="M114.14,199l-.44.29a3.79,3.79,0,0,1-.47.26,3.61,3.61,0,0,1-.56.18,2.71,2.71,0,0,1-.72.07,1.73,1.73,0,0,1-1.21-.42,1.38,1.38,0,0,1-.48-1.09,2.12,2.12,0,0,1,.34-1.2,2.33,2.33,0,0,1,1-.78,5.59,5.59,0,0,1,1.47-.4c.57-.08,1.18-.14,1.84-.18a.56.56,0,0,0,0-.1.41.41,0,0,0,0-.16.52.52,0,0,0-.35-.53,2.75,2.75,0,0,0-1-.15,4.15,4.15,0,0,0-1,.15c-.38.11-.66.2-.85.27h-.18l.28-1.41a10.3,10.3,0,0,1,1-.19,9.3,9.3,0,0,1,1.39-.11,4.32,4.32,0,0,1,2.06.37,1.2,1.2,0,0,1,.66,1.13c0,.07,0,.17,0,.28a2.34,2.34,0,0,1,0,.3l-.94,4H114Zm.51-2.18-1,.1a4.24,4.24,0,0,0-.77.17,1.12,1.12,0,0,0-.49.33.83.83,0,0,0-.17.56.46.46,0,0,0,.22.44,1.44,1.44,0,0,0,.66.12,1.6,1.6,0,0,0,.61-.13,3.17,3.17,0,0,0,.6-.33Z"/><path class="cls-15" d="M119.89,199.83a4.19,4.19,0,0,1-1.14-.15,2.55,2.55,0,0,1-.93-.47,2.18,2.18,0,0,1-.61-.79,2.68,2.68,0,0,1-.22-1.09,3.73,3.73,0,0,1,.31-1.5,3.63,3.63,0,0,1,.86-1.2,4,4,0,0,1,1.32-.8,4.65,4.65,0,0,1,1.69-.29,5,5,0,0,1,1.08.12,4.37,4.37,0,0,1,1,.35l-.4,1.63h-.27a2.2,2.2,0,0,0-.71-.56,2.11,2.11,0,0,0-.89-.18,1.81,1.81,0,0,0-1.45.64,2.4,2.4,0,0,0-.54,1.6,1.34,1.34,0,0,0,.33,1,1.47,1.47,0,0,0,1.05.33,2.26,2.26,0,0,0,1-.22,4.19,4.19,0,0,0,.78-.5h.27l-.41,1.63a7.16,7.16,0,0,1-1,.35A5,5,0,0,1,119.89,199.83Z"/><path class="cls-15" d="M128.9,199.66h-2L125.71,197l-.84.75-.44,1.88H122.5l1.73-7.53h1.92l-1,4.2,2.68-2.63h2.2l-2.77,2.6Z"/></g><path class="cls-15" d="M101,198.41l1.69.31a3.76,3.76,0,0,1-1.36,1.67,3.63,3.63,0,0,1-2,.6,2.79,2.79,0,0,1-2.6-1.27,3.51,3.51,0,0,1-.36-2.42,4.37,4.37,0,0,1,1.38-2.72,3.58,3.58,0,0,1,2.49-1.05,2.79,2.79,0,0,1,2.39,1.07,3.93,3.93,0,0,1,.4,3H98.45a1.87,1.87,0,0,0,.1,1.47,1.16,1.16,0,0,0,1,.43,1.5,1.5,0,0,0,.84-.27A2.23,2.23,0,0,0,101,198.41Zm.25-1.94a1.76,1.76,0,0,0-.23-1.16,1,1,0,0,0-.84-.46,1.34,1.34,0,0,0-1,.49,2.26,2.26,0,0,0-.53,1.13Z"/><polygon class="cls-16" points="102.84 198.45 102.73 198.72 101.04 198.41 102.84 198.45"/><path class="cls-4" d="M187,102.16c.51-.43-1.74-9.08-1.74-9.08s5.95-9.71,6.11-12.84S189,70.69,189,70.69L172,66.31s-5.48,10.17-6.57,13.77,1.88,15.82,1.88,15.82l2.89,6.26S178.89,109.05,187,102.16Z"/><path class="cls-4" d="M191.36,82.11a36.54,36.54,0,0,0,1.79-3.79c1.08-2.56,2.41-5.07,0-6.5a3.12,3.12,0,0,0-2.57-.41s.37-2.16-.92-3a2.77,2.77,0,0,0-2.53-.22s.41-3-1.45-4.33a4.48,4.48,0,0,0-4.72-.13s1.47-13.32,1.59-14c.47-2.59-.49-4.88-3.06-4.24-1,.24-1.47,1.23-2.58,5.57S174,62.8,174,62.8s-3,5.2-4.41,8-4.21,9.25-4.45,11c-.6,4.4,2,10.24,2,10.24l18.14,1Z"/><path class="cls-5" d="M190.22,72a18.25,18.25,0,0,0-1.4,2l-1.43,2.19a8.81,8.81,0,0,0-.78,1.36,2.73,2.73,0,0,0-.22,1.73,1.72,1.72,0,0,0,1.15,1.34,2.22,2.22,0,0,0,1.62-.2,6.4,6.4,0,0,0,1.21-.75c.36-.25.69-.5,1-.73.59-.46,1.05-.85,1.35-1.13s.47-.46.45-.48-.75.54-2,1.4A17.1,17.1,0,0,1,189,80a1.93,1.93,0,0,1-1.37.17,1.39,1.39,0,0,1-.89-1.07,2.42,2.42,0,0,1,.19-1.5,9.43,9.43,0,0,1,.73-1.33l1.37-2.22A13.76,13.76,0,0,0,190.22,72Z"/><path class="cls-5" d="M175.35,73.57a6.43,6.43,0,0,0-.19-2.85A6,6,0,0,0,174,68.09c-.1,0,.41,1.21.77,2.71S175.23,73.57,175.35,73.57Z"/><path class="cls-4" d="M168.16,77.46a12,12,0,0,1,6.06-3.17,22.87,22.87,0,0,1,6.91-.26c1.85.16,4,.64,4.8,2.29s-.18,3.89-1.82,4.87a9.1,9.1,0,0,1-5.56.84,23.71,23.71,0,0,0-5.7-.23"/><path class="cls-5" d="M172.85,81.8s.52,0,1.44,0a38,38,0,0,1,3.88.37,16.94,16.94,0,0,0,2.73.12,7.39,7.39,0,0,0,3-.77,4.69,4.69,0,0,0,2.27-2.64,3.56,3.56,0,0,0,.13-1.89,3.28,3.28,0,0,0-1-1.68,6.5,6.5,0,0,0-3.49-1.35,31.87,31.87,0,0,0-3.44-.21,17.33,17.33,0,0,0-5.77.88,11.48,11.48,0,0,0-3.46,1.86,8.07,8.07,0,0,0-.79.72c-.17.18-.25.28-.24.29s.37-.35,1.12-.89a12.5,12.5,0,0,1,3.46-1.73,18,18,0,0,1,5.68-.78,31,31,0,0,1,3.39.23,6.19,6.19,0,0,1,3.29,1.27A2.81,2.81,0,0,1,186,77a3.12,3.12,0,0,1-.11,1.69,4.37,4.37,0,0,1-2.08,2.45,7.28,7.28,0,0,1-2.91.76,15.6,15.6,0,0,1-2.68-.07,30.28,30.28,0,0,0-3.92-.24,9.57,9.57,0,0,0-1.06.09Z"/><path class="cls-4" d="M190.09,72.19c-1.91,2.9-3.59,6.09-5.2,9.16a5.67,5.67,0,0,1-1.82,2.37c-.69.43-2.4-.34-3.16-.61l5.24-11.92"/><path class="cls-5" d="M185.15,71.19a5.15,5.15,0,0,0-.47.89l-1.16,2.49c-1,2.13-2.3,5.1-3.79,8.47l-.08.18.2.07a18.42,18.42,0,0,0,1.82.62,3.11,3.11,0,0,0,.81.12,1.3,1.3,0,0,0,.43,0,1.2,1.2,0,0,0,.39-.2,4.17,4.17,0,0,0,1.06-1.12c.54-.85.91-1.7,1.34-2.49.82-1.58,1.58-3,2.23-4.18s1.21-2.13,1.59-2.78a6.66,6.66,0,0,0,.57-1,7.2,7.2,0,0,0-.7,1c-.42.63-1,1.55-1.69,2.72s-1.47,2.58-2.31,4.16c-.43.78-.83,1.65-1.34,2.44a3.9,3.9,0,0,1-1,1,1.57,1.57,0,0,1-1.32.06c-.62-.15-1.21-.4-1.8-.6l.11.25c1.47-3.37,2.76-6.36,3.67-8.51.43-1,.79-1.89,1.06-2.55A5.84,5.84,0,0,0,185.15,71.19Z"/><path class="cls-4" d="M186.56,67.65l-5.05,12.67a8.75,8.75,0,0,1-1.36,2.54A3,3,0,0,1,177.6,84a3,3,0,0,1-2.24-2.92,9.38,9.38,0,0,1,.95-3.85,80.34,80.34,0,0,0,3.62-11.86"/><path class="cls-5" d="M179.93,65.34a1.71,1.71,0,0,0-.13.39c-.08.29-.18.66-.3,1.12-.26,1-.64,2.38-1.17,4.09s-1.23,3.75-2.1,6a12.31,12.31,0,0,0-1,3.62,3.86,3.86,0,0,0,.38,2A3,3,0,0,0,177.08,84a2.53,2.53,0,0,0,2.12-.18,3.94,3.94,0,0,0,1.49-1.4A21.46,21.46,0,0,0,182.22,79c.86-2.2,1.64-4.2,2.31-5.89l1.52-4,.4-1.09a2.22,2.22,0,0,0,.11-.39,1.32,1.32,0,0,0-.18.36l-.47,1.06c-.4,1-1,2.32-1.63,3.94s-1.49,3.67-2.39,5.86a22.89,22.89,0,0,1-1.51,3.37A3.6,3.6,0,0,1,179,83.52a2.21,2.21,0,0,1-1.81.15,2.61,2.61,0,0,1-1.32-1.3,3.5,3.5,0,0,1-.35-1.82,11.9,11.9,0,0,1,1-3.52c.86-2.23,1.52-4.28,2-6s.85-3.15,1.07-4.14c.1-.49.18-.87.23-1.14A2.37,2.37,0,0,0,179.93,65.34Z"/><path class="cls-4" d="M186.15,97.36s11.58,34.11,12,35.78-2.28,13.86-7.31,16.75-14.77-9.13-16-13.55,0-11.88,0-11.88l-7.81-29.39"/><path class="cls-5" d="M174.89,92.06a2.19,2.19,0,0,0,1.08-.14,6.07,6.07,0,0,0,2.31-1.33,5.94,5.94,0,0,0,1.51-2.18,2.21,2.21,0,0,0,.24-1.07,9.87,9.87,0,0,1-2,3A10,10,0,0,1,174.89,92.06Z"/><path class="cls-16" d="M131.19,119.83a3,3,0,0,1-.07.89,2.51,2.51,0,0,1-.34.76,2.13,2.13,0,0,1-.56.56,1.47,1.47,0,0,1-.73.24,1.59,1.59,0,0,1-.49,0,1.4,1.4,0,0,1-.41-.13l-.2,1.39-1,.09.65-4.56,1-.09,0,.35a3.41,3.41,0,0,1,.52-.37,1.46,1.46,0,0,1,.55-.16,1,1,0,0,1,.79.24A1.22,1.22,0,0,1,131.19,119.83Zm-1.27,1.26a1.34,1.34,0,0,0,.15-.44,1.93,1.93,0,0,0,0-.54.59.59,0,0,0-.15-.4.5.5,0,0,0-.43-.1.6.6,0,0,0-.29.08,3.07,3.07,0,0,0-.31.16l-.23,1.68a.65.65,0,0,0,.22,0,1.13,1.13,0,0,0,.26,0,1,1,0,0,0,.46-.16A.87.87,0,0,0,129.92,121.09Z"/><path class="cls-16" d="M133.41,121.53l-.22.18a1.48,1.48,0,0,1-.25.16,1.3,1.3,0,0,1-.3.13,1.52,1.52,0,0,1-.39.07,1,1,0,0,1-.69-.17.78.78,0,0,1-.31-.58,1.14,1.14,0,0,1,.13-.67,1.32,1.32,0,0,1,.51-.48,3.35,3.35,0,0,1,.78-.29c.31-.07.65-.13,1-.18a.18.18,0,0,1,0-.06v-.09a.29.29,0,0,0-.22-.27,1.43,1.43,0,0,0-.58,0,2.36,2.36,0,0,0-.57.14l-.45.19h-.1l.09-.79a3.8,3.8,0,0,1,.56-.16,4.81,4.81,0,0,1,.76-.12,2.37,2.37,0,0,1,1.14.1.68.68,0,0,1,.42.59v.16a.81.81,0,0,1,0,.16l-.32,2.27-1,.09Zm.18-1.22-.52.1a1.65,1.65,0,0,0-.41.13.55.55,0,0,0-.26.2.48.48,0,0,0-.07.32.26.26,0,0,0,.15.23.78.78,0,0,0,.36,0,.84.84,0,0,0,.33-.1,1.11,1.11,0,0,0,.32-.21Z"/><path class="cls-16" d="M136.56,121.7a2.24,2.24,0,0,1-.64,0,1.47,1.47,0,0,1-.53-.21,1.22,1.22,0,0,1-.37-.41,1.32,1.32,0,0,1-.17-.59,1.92,1.92,0,0,1,.51-1.53,2.12,2.12,0,0,1,.69-.5,2.46,2.46,0,0,1,.91-.25,3,3,0,0,1,.6,0,2.65,2.65,0,0,1,.57.15l-.15.91-.15,0a1.11,1.11,0,0,0-.41-.28,1.35,1.35,0,0,0-.5-.06,1,1,0,0,0-.76.42,1.33,1.33,0,0,0-.23.91.75.75,0,0,0,.23.53.82.82,0,0,0,.59.13,1.37,1.37,0,0,0,.55-.17,2.24,2.24,0,0,0,.4-.32h.15l-.15.91a3.45,3.45,0,0,1-.53.25A2.8,2.8,0,0,1,136.56,121.7Z"/><path class="cls-16" d="M141.55,121.18l-1.11.09-.77-1.39-.43.45-.15,1.06-1.06.09.66-4.63,1.05-.09-.39,2.77L140.7,118l1.21-.1-1.4,1.56Z"/><path class="cls-7" d="M126.31,121.77l1,.1a2,2,0,0,1-.65,1,2,2,0,0,1-1.1.45,1.78,1.78,0,0,1-1.63-.6,2.17,2.17,0,0,1-.42-1.39,2.34,2.34,0,0,1,.56-1.63,1.89,1.89,0,0,1,1.36-.73,1.71,1.71,0,0,1,1.47.49,2.4,2.4,0,0,1,.51,1.74l-2.68.23a1.06,1.06,0,0,0,.19.84.7.7,0,0,0,.61.2.77.77,0,0,0,.46-.2A1.13,1.13,0,0,0,126.31,121.77Zm0-1.13a1.11,1.11,0,0,0-.23-.65.62.62,0,0,0-.54-.23.72.72,0,0,0-.54.33,1.19,1.19,0,0,0-.2.68Z"/></g></g></g></svg>