<svg xmlns="http://www.w3.org/2000/svg" xmlns:xlink="http://www.w3.org/1999/xlink" viewBox="0 0 1566.24 1098.19"><defs><style>.cls-1,.cls-10,.cls-11,.cls-12,.cls-13,.cls-14,.cls-15,.cls-16,.cls-17,.cls-18,.cls-19,.cls-20,.cls-5,.cls-6,.cls-7,.cls-8,.cls-9{fill:none;}.cls-2{fill:#018cbe;}.cls-3{opacity:0.15;}.cls-4{clip-path:url(#clip-path);}.cls-10,.cls-11,.cls-12,.cls-13,.cls-14,.cls-15,.cls-16,.cls-17,.cls-18,.cls-19,.cls-20,.cls-5,.cls-6,.cls-7,.cls-8,.cls-9{stroke-linejoin:round;stroke-width:50.46px;}.cls-5{stroke:url(#linear-gradient);}.cls-6{stroke:url(#linear-gradient-2);}.cls-7{stroke:url(#linear-gradient-3);}.cls-8{stroke:url(#linear-gradient-4);}.cls-9{stroke:url(#linear-gradient-5);}.cls-10{stroke:url(#linear-gradient-6);}.cls-11{stroke:url(#linear-gradient-7);}.cls-12{stroke:url(#linear-gradient-8);}.cls-13{stroke:url(#linear-gradient-9);}.cls-14{stroke:url(#linear-gradient-10);}.cls-15{stroke:url(#linear-gradient-11);}.cls-16{stroke:url(#linear-gradient-12);}.cls-17{stroke:url(#linear-gradient-13);}.cls-18{stroke:url(#linear-gradient-14);}.cls-19{stroke:url(#linear-gradient-15);}.cls-20{stroke:url(#linear-gradient-16);}</style><clipPath id="clip-path" transform="translate(75.34 253.3)"><rect class="cls-1" width="1440" height="724.09"/></clipPath><linearGradient id="linear-gradient" x1="1290.2" y1="477.91" x2="1411.36" y2="477.91" gradientTransform="translate(-163.25 -33.16)" gradientUnits="userSpaceOnUse"><stop offset="0.08" stop-color="#018cbe"/><stop offset="0.16" stop-color="#0990c0"/><stop offset="0.29" stop-color="#209ac6"/><stop offset="0.44" stop-color="#45abcf"/><stop offset="0.62" stop-color="#79c2dd"/><stop offset="0.81" stop-color="#bae0ed"/><stop offset="1" stop-color="#fff"/></linearGradient><linearGradient id="linear-gradient-2" x1="617.29" y1="881.51" x2="948.18" y2="881.51" gradientTransform="translate(-238.59 -286.46)" gradientUnits="userSpaceOnUse"><stop offset="0.02" stop-color="#0060ac"/><stop offset="0.23" stop-color="#3a84bf"/><stop offset="0.96" stop-color="#fff"/></linearGradient><linearGradient id="linear-gradient-3" x1="1218.97" y1="965.9" x2="1549.86" y2="965.9" xlink:href="#linear-gradient-2"/><linearGradient id="linear-gradient-4" x1="926.02" y1="1750.82" x2="1256.91" y2="1750.82" gradientTransform="matrix(1, 0, 0, -1, -238.59, 1662.97)" xlink:href="#linear-gradient-2"/><linearGradient id="linear-gradient-5" x1="818.07" y1="1904.64" x2="1184.2" y2="1904.64" gradientTransform="translate(2117.41 2118.07) rotate(180)" xlink:href="#linear-gradient-2"/><linearGradient id="linear-gradient-6" x1="1789.1" y1="1620.15" x2="2192.75" y2="1620.15" gradientTransform="translate(2117.41 2118.07) rotate(180)" xlink:href="#linear-gradient-2"/><linearGradient id="linear-gradient-7" x1="369.46" y1="1353.56" x2="649.68" y2="1353.56" gradientTransform="translate(2185.17 -25.71) rotate(90)" xlink:href="#linear-gradient"/><linearGradient id="linear-gradient-8" x1="1331.11" y1="1903.41" x2="1636.48" y2="1903.41" gradientTransform="matrix(-0.82, -0.57, 0.57, -0.82, 791.59, 2457.91)" xlink:href="#linear-gradient-2"/><linearGradient id="linear-gradient-9" x1="463.31" y1="1908.85" x2="768.68" y2="1908.85" gradientTransform="matrix(-0.82, -0.57, 0.57, -0.82, 791.59, 2457.91)" xlink:href="#linear-gradient"/><linearGradient id="linear-gradient-10" x1="300.19" y1="322.01" x2="706.22" y2="322.01" gradientTransform="translate(-238.59 -286.46)" xlink:href="#linear-gradient"/><linearGradient id="linear-gradient-11" x1="740.54" y1="858.37" x2="861.69" y2="858.37" gradientTransform="translate(-163.25 -33.16)" xlink:href="#linear-gradient-2"/><linearGradient id="linear-gradient-12" x1="1142.06" y1="576.58" x2="1263.21" y2="576.58" gradientTransform="translate(-163.25 -33.16)" xlink:href="#linear-gradient-2"/><linearGradient id="linear-gradient-13" x1="72.97" y1="1120.34" x2="194.13" y2="1120.34" gradientTransform="translate(1863.51 429.63) rotate(90)" xlink:href="#linear-gradient"/><linearGradient id="linear-gradient-14" x1="935.07" y1="1166.39" x2="1056.23" y2="1166.39" gradientTransform="translate(2396.37 1455.67) rotate(180)" xlink:href="#linear-gradient"/><linearGradient id="linear-gradient-15" x1="1813.02" y1="892.49" x2="1934.17" y2="892.49" gradientTransform="translate(2396.37 1455.67) rotate(180)" xlink:href="#linear-gradient"/><linearGradient id="linear-gradient-16" x1="182.39" y1="1252.97" x2="318.16" y2="1252.97" gradientTransform="translate(1491.01 597.16) rotate(90) scale(0.65 1)" xlink:href="#linear-gradient-2"/></defs><g id="Layer_2" data-name="Layer 2"><g id="Bgs"><rect class="cls-2" x="75.34" y="253.3" width="1440" height="724.09"/></g><g id="Info"><g class="cls-3"><g class="cls-4"><line class="cls-5" x1="1126.95" y1="444.75" x2="1248.1" y2="444.75"/><path class="cls-6" d="M684.36,595.05A140.22,140.22,0,1,1,544.14,454.83" transform="translate(75.34 253.3)"/><path class="cls-7" d="M1286,679.44a140.22,140.22,0,1,1-140.22-140.21" transform="translate(75.34 253.3)"/><path class="cls-8" d="M993.09-87.85A140.21,140.21,0,0,0,852.87-228.06,140.2,140.2,0,0,0,712.66-87.85,140.2,140.2,0,0,0,852.87,52.36" transform="translate(75.34 253.3)"/><path class="cls-9" d="M958.44,213.44a157.83,157.83,0,1,1,157.83,157.83" transform="translate(75.34 253.3)"/><path class="cls-10" d="M-50.11,497.93A176.59,176.59,0,1,1,126.48,674.52" transform="translate(75.34 253.3)"/><path class="cls-11" d="M831.61,369A114.88,114.88,0,1,1,716.74,483.86" transform="translate(75.34 253.3)"/><path class="cls-12" d="M751.79,120.89A127.46,127.46,0,1,1,718.93-56.35" transform="translate(75.34 253.3)"/><path class="cls-13" d="M1470.11,607.93a127.46,127.46,0,1,1-32.86-177.24" transform="translate(75.34 253.3)"/><path class="cls-14" d="M442.39,35.55A177.78,177.78,0,1,1,264.61-142.23" transform="translate(75.34 253.3)"/><line class="cls-15" x1="577.28" y1="825.2" x2="698.44" y2="825.2"/><line class="cls-16" x1="978.8" y1="543.41" x2="1099.96" y2="543.41"/><line class="cls-17" x1="743.17" y1="502.6" x2="743.17" y2="623.76"/><line class="cls-18" x1="1461.3" y1="289.28" x2="1340.14" y2="289.28"/><line class="cls-19" x1="583.36" y1="563.18" x2="462.2" y2="563.18"/><line class="cls-20" x1="238.04" y1="716.03" x2="238.04" y2="804.51"/></g></g></g></g></svg>