<svg xmlns="http://www.w3.org/2000/svg" viewBox="0 0 151.34 524.25"><defs><style>.cls-1{isolation:isolate;}.cls-2{fill:#373736;}.cls-3{fill:#ffbf9d;}.cls-4{fill:#ff9a6c;}.cls-5{fill:none;}.cls-6{fill:#db9500;}.cls-7,.cls-9{fill:#fff;}.cls-7,.cls-8{opacity:0.5;}.cls-10,.cls-11{fill:#ffefd7;}.cls-11{mix-blend-mode:multiply;}.cls-12{fill:#ff725e;}</style></defs><g class="cls-1"><g id="Layer_2" data-name="Layer 2"><g id="Info"><path class="cls-2" d="M92.64,56.13a109.69,109.69,0,0,0,5-18.42c1-6.3.87-12.88-1.28-18.88-.32-.91-3.12-7-4.08-6.94-.69.06,1,5.75.65,6.34-3.38,5.66-4.37,12.49-3.92,19.07a86.4,86.4,0,0,0,3.59,18.83"/><path class="cls-3" d="M92.41,88.8l1.16-57c.71-16-8-29.7-24-30l-1.48.06A28.57,28.57,0,0,0,40.74,29.34c-.54,13.85-1,29.15-.57,36.55C41,81.21,56.42,83,56.42,83s0,1.36,0,5.86l23.1,13,5.53-.51Z"/><path class="cls-4" d="M56.42,83a37,37,0,0,0,19.71-6.72S71.81,88,56.46,87.21Z"/><path class="cls-2" d="M45.39,42.56a2.19,2.19,0,0,0,2.2,2.12,2.09,2.09,0,0,0,2.18-2.06,2.2,2.2,0,0,0-2.2-2.13A2.11,2.11,0,0,0,45.39,42.56Z"/><path class="cls-5" d="M44.28,36c.28.28,1.89-1,4.24-1.11s4.13,1,4.38.72c.12-.14-.18-.64-1-1.16a6,6,0,0,0-3.51-.92,5.81,5.81,0,0,0-3.37,1.24C44.36,35.32,44.14,35.85,44.28,36Z"/><path class="cls-2" d="M65.25,42.56a2.18,2.18,0,0,0,2.2,2.12,2.1,2.1,0,0,0,2.18-2.06,2.21,2.21,0,0,0-2.2-2.13A2.1,2.1,0,0,0,65.25,42.56Z"/><path class="cls-5" d="M67.39,35.57c.28.27,1.89-1,4.25-1.12s4.13,1,4.37.72c.12-.13-.18-.64-1-1.15a6,6,0,0,0-3.52-.93,5.81,5.81,0,0,0-3.37,1.24C67.47,34.92,67.25,35.44,67.39,35.57Z"/><path class="cls-2" d="M59.69,54a16.34,16.34,0,0,0-3.86-.53c-.6,0-1.18-.13-1.29-.54a3.06,3.06,0,0,1,.32-1.8q.77-2.22,1.59-4.65c2.2-6.62,3.77-12.06,3.5-12.15s-2.27,5.22-4.47,11.84c-.52,1.63-1,3.19-1.51,4.68a3.44,3.44,0,0,0-.21,2.37,1.52,1.52,0,0,0,1,.84,4.41,4.41,0,0,0,1,.1C58.2,54.2,59.68,54.15,59.69,54Z"/><path class="cls-2" d="M66.32,28.23c.35.59,2.61-.14,5.39-.31s5.11.16,5.37-.48c.11-.3-.38-.82-1.38-1.26a8.92,8.92,0,0,0-4.17-.65,9,9,0,0,0-4,1.24C66.58,27.36,66.17,28,66.32,28.23Z"/><path class="cls-2" d="M43.88,29.05c.51.52,2.41-.08,4.72-.17s4.27.25,4.7-.32c.19-.28-.13-.81-1-1.29a7.45,7.45,0,0,0-3.85-.78,7.37,7.37,0,0,0-3.74,1.18C43.91,28.24,43.66,28.8,43.88,29.05Z"/><path class="cls-3" d="M92.79,43.22c.25-.12,10.4-3.55,10.5,6.94s-10.46,8.43-10.48,8.13S92.79,43.22,92.79,43.22Z"/><path class="cls-4" d="M96,54.28s.18.13.49.27a1.86,1.86,0,0,0,1.37,0c1.1-.41,2-2.18,2-4.07a6.1,6.1,0,0,0-.53-2.62A2.14,2.14,0,0,0,98,46.48.92.92,0,0,0,96.9,47c-.14.29-.07.5-.13.52s-.23-.18-.15-.61a1.23,1.23,0,0,1,.41-.66A1.36,1.36,0,0,1,98,46,2.57,2.57,0,0,1,100,47.58a6.16,6.16,0,0,1,.66,2.92c0,2.11-1.11,4.1-2.62,4.55a1.93,1.93,0,0,1-1.67-.26C96,54.54,95.94,54.3,96,54.28Z"/><path class="cls-2" d="M47.52,12c-1.7-.93,3.39-6.44,7.56-8.33C61.39.75,71-1,76.84.63c7,2,12.82,5.46,16.34,11.84a41.24,41.24,0,0,1,4.64,21.07A12.56,12.56,0,0,1,96.35,40c-1.47,2.32-4.28,3.78-4.15,7a4.41,4.41,0,0,1-1.09,3.2c-1.92,2-4.27.13-5.35-1.79-2.31-4.11-2.57-9-2.78-13.73-.14-3.34-.28-6.76.66-10,.51-1.75,1.34-3.4,1.75-5.17a6.31,6.31,0,0,0-.74-5.24,6.25,6.25,0,0,0-.86-.86A10.91,10.91,0,0,0,72.94,11.3c-5.91,2.09-16,5.22-18.64,3.21-3.79-2.88-4.7-4.76-4.7-4.76Z"/><path class="cls-2" d="M67.08,55.47c-.36,0-.37,2.39-2.44,4.09S60,61,60,61.32c0,.15.57.47,1.66.51a6,6,0,0,0,3.88-1.34,5.21,5.21,0,0,0,1.9-3.43C67.52,56.06,67.25,55.46,67.08,55.47Z"/><path class="cls-6" d="M59,480.5l.49,27.79s-28.09,9.83-28.5,15l53.92,1,1-43.33Z"/><path class="cls-7" d="M76.19,506.26a2.2,2.2,0,0,1,1.48,2.54,2.13,2.13,0,0,1-2.51,1.49,2.34,2.34,0,0,1-1.55-2.7,2.2,2.2,0,0,1,2.78-1.26"/><g class="cls-8"><path class="cls-9" d="M84.9,524.25l-.07-4.37-51.67.69s-2.42,1-2.18,2.7Z"/></g><path class="cls-9" d="M58.61,508c0,.27,1.32.41,2.6,1.28s1.95,2,2.19,1.89-.12-1.63-1.69-2.66S58.55,507.76,58.61,508Z"/><path class="cls-9" d="M52.91,510.24c-.07.25,1.07.72,1.94,1.85s1.11,2.31,1.37,2.31.46-1.5-.65-2.88S52.92,510,52.91,510.24Z"/><path class="cls-9" d="M49.57,517c.24.06.63-1.25,0-2.7s-1.87-2.06-2-1.84.63,1,1.14,2.21S49.31,516.92,49.57,517Z"/><path class="cls-9" d="M59.2,501.66c.1.24,1.32-.1,2.8,0s2.64.61,2.78.39-1-1.18-2.71-1.31S59.07,501.45,59.2,501.66Z"/><path class="cls-6" d="M119.92,480.5l3.48,27.79s-27,9.83-26.87,15l54,1-3.66-43.33Z"/><path class="cls-7" d="M139.9,506.26a2.49,2.49,0,0,1,1.75,2.54,1.9,1.9,0,0,1-2.35,1.49,2.65,2.65,0,0,1-1.84-2.7,2,2,0,0,1,2.65-1.26"/><path class="cls-7" d="M150.55,524.25l-.54-4.37-51.6.69s-2.31,1-1.88,2.7Z"/><path class="cls-9" d="M122.5,508c0,.27,1.36.41,2.74,1.28s2.16,2,2.4,1.89-.3-1.63-2-2.66S122.42,507.76,122.5,508Z"/><path class="cls-9" d="M117.05,510.24c0,.25,1.14.72,2.14,1.85s1.36,2.31,1.62,2.31.29-1.5-1-2.88S117,510,117.05,510.24Z"/><path class="cls-9" d="M114.43,517c.25.06.5-1.25-.31-2.7s-2.09-2.06-2.18-1.84.74,1,1.38,2.21S114.17,516.92,114.43,517Z"/><path class="cls-9" d="M122.41,501.66c.13.24,1.31-.1,2.81,0s2.7.61,2.82.39-1.08-1.18-2.85-1.31S122.26,501.45,122.41,501.66Z"/><path class="cls-2" d="M32.78,248.44a119.43,119.43,0,0,0-2.61,35.12c.58,7.46,25.76,213.92,25.76,213.92h34l-9.55-194,2.78.6s18.56,82.76,20.08,96.16c1.36,12,17,99.54,17,99.54l31.09.36-9.93-115.74-11.55-111L125.51,241Z"/><path d="M85.74,283.64a6,6,0,0,1-1.42.8,16.09,16.09,0,0,1-4.21,1.48,8.91,8.91,0,0,1-3.14,0,6.46,6.46,0,0,1-3.27-1.57,7.8,7.8,0,0,1-2-3.48c-.4-1.32-.63-2.69-.91-4.09-1.08-5.6-1.82-10.71-2.24-14.42-.22-1.86-.36-3.36-.44-4.4a6.54,6.54,0,0,1,0-1.63,7,7,0,0,1,.32,1.59l.66,4.37c.56,3.69,1.37,8.77,2.45,14.36.55,2.76.92,5.57,2.65,7.22A7.06,7.06,0,0,0,80,285.41a19.53,19.53,0,0,0,4.18-1.22A7.9,7.9,0,0,1,85.74,283.64Z"/><path d="M75.5,257.33s.22-.18.7-.21a3,3,0,0,1,1.9.61,3.41,3.41,0,0,1,1.44,2.63,3.37,3.37,0,0,1-5.74,2.15,3.39,3.39,0,0,1-.65-2.92,3,3,0,0,1,1-1.71c.38-.29.65-.34.66-.31a4,4,0,0,0-1.19,2.11,3,3,0,0,0,.64,2.39,2.58,2.58,0,0,0,2.82.53,2.53,2.53,0,0,0,1.76-2.25,2.94,2.94,0,0,0-1.08-2.22A3.84,3.84,0,0,0,75.5,257.33Z"/><path class="cls-10" d="M48.41,95.38c-6.5.4-18.24,4.3-23.22,13.59-4.15,7.76-5.29,40.94-5.51,41.74L32.19,154l16,23.62L113.57,163l4.1,10.31,2.51-73.85S54.9,95,48.41,95.38Z"/><path class="cls-10" d="M124.38,207l5-70.57L128.22,103,97.64,89.5l-3-11.7-31.67,15-6.64-7.33L53.52,93.7,46.58,96,30.41,123.58l.23,46.2s-1.7,56.42-.34,76.05a6.08,6.08,0,0,0,4.08,5.34c3.21,1.09,8.7,2.35,17.32,2.55,31.91.77,75.35-1.24,75.35-1.24l.45-1.4A27.83,27.83,0,0,0,128.58,239Z"/><path class="cls-6" d="M58.75,108.42c.44-1.77.79-3.18,1-4.21l.3-1.09c.07-.25.11-.37.13-.37a1.46,1.46,0,0,1,0,.39c-.06.3-.13.66-.21,1.11-.23,1-.53,2.46-.91,4.24-.79,3.69-2,9-3.3,15.63S53,138.64,52,147.49s-1.26,18.66-1.39,28.95c-.21,20.59.34,39.22.69,52.71.18,6.68.33,12.12.44,16,0,1.83.06,3.28.08,4.35,0,.45,0,.82,0,1.13a1.93,1.93,0,0,1,0,.39s0-.13-.06-.38,0-.68-.09-1.13c-.06-1.07-.14-2.52-.24-4.34-.17-3.85-.41-9.28-.71-16-.5-13.49-1.14-32.13-.93-52.74.13-10.31.48-20.14,1.46-29S53.8,130.6,55.18,124"/><path class="cls-10" d="M94.6,77.8s-3.54,1-12.64,5.88c-8.91,4.75-19,9.09-19,9.09l.77,14.3L97.4,90.15"/><polyline class="cls-10" points="56.3 85.44 62.93 92.77 59.38 108.1 53.48 94.25"/><path class="cls-11" d="M62.8,94.36c-.29.21-2.13,17.68-2.13,17.68L94.45,91.63,63.7,107.07Z"/><path class="cls-6" d="M63.25,92.65s-.65,1.12-1.72,2.91-2.49,4.31-3.84,7.19l-.32.69-.21.45-.21-.45a56.14,56.14,0,0,1-2.82-7.14c-.3-.93-.51-1.69-.63-2.21a3.14,3.14,0,0,1-.16-.83,28.63,28.63,0,0,1,1.09,2.94c.66,1.82,1.64,4.33,2.94,7h-.43l.33-.69a60.6,60.6,0,0,1,4-7.16c.58-.88,1.07-1.57,1.42-2S63.22,92.63,63.25,92.65Z"/><path class="cls-6" d="M97.64,89.5a2.62,2.62,0,0,1-.47.28l-1.36.71-5,2.61c-4.25,2.21-10.06,5.36-16.51,8.8-3.92,2.1-7.64,4-10.88,5.65l-.29.15v-.33c0-4.2-.07-7.73-.1-10.29,0-1.2,0-2.17,0-2.9a7.52,7.52,0,0,1,0-1,5.65,5.65,0,0,1,.09,1c0,.73.06,1.7.11,2.9.06,2.55.16,6.09.27,10.28l-.3-.18c3.21-1.65,6.92-3.6,10.84-5.69,6.44-3.44,12.29-6.55,16.58-8.68,2.14-1.07,3.89-1.91,5.11-2.48l1.4-.63A2.38,2.38,0,0,1,97.64,89.5Z"/><path class="cls-3" d="M58.72,95.26a40.94,40.94,0,0,1-.45-9.73s2.22-6.31,1.88-7.41-.88-2.33-3.09-1.22-5,3.1-5.31,6.75a18.94,18.94,0,0,1-.89,5l-2.1-3.2.44-3.32s3.13-.79,3.23-2.46a36.58,36.58,0,0,0-3.15-2.24s-5.6.27-6.16,2.38-2,6.63-2,6.63-4.64.78-5.2,4.54c0,0-2.65,3.53-2.54,5.75a10.42,10.42,0,0,0-1.33,4.64c.11,2.1,6.2,11,6.2,11l1.85,13.87,17.08-5.78-1.13-12.63S59.6,99.79,58.72,95.26Z"/><path class="cls-4" d="M58.72,95.18a6.47,6.47,0,0,1,.16.85,12.16,12.16,0,0,1,0,2.53,35,35,0,0,1-2.6,9.19l0-.1c.33,3.54.74,7.81,1.2,12.62l0,.23-.22.06L40,125.1l-.35.09-.05-.36c-.54-4-1.11-8.2-1.7-12.58l0,.15c-1.56-2.3-3.13-4.7-4.59-7.26-.36-.64-.71-1.29-1-2a5.34,5.34,0,0,1-.63-2.28,10.66,10.66,0,0,1,1.37-4.45l0,.19a6.26,6.26,0,0,1,.58-2.49,18.65,18.65,0,0,1,2-3.49l-.07.16a5.2,5.2,0,0,1,2-3.31A8.7,8.7,0,0,1,41.07,86l-.27.24,2-6.75a2.8,2.8,0,0,1,1.37-1.37,8.37,8.37,0,0,1,1.67-.6A18,18,0,0,1,49.26,77h.11l.09.07,1.74,1.17.85.6.43.32.11.11s0,0,.08.09a.46.46,0,0,1,.09.27l-.06.31a3,3,0,0,1-1.49,1.64,8.49,8.49,0,0,1-1.93.78l.24-.27c-.15,1.13-.3,2.23-.45,3.31l0-.21c.72,1.1,1.41,2.17,2.1,3.21l-.53,0a19.53,19.53,0,0,0,.76-3.8,9.67,9.67,0,0,1,.88-3.75,10.22,10.22,0,0,1,5.32-4.53,2.17,2.17,0,0,1,1.75,0,2.26,2.26,0,0,1,1,1.36,1.82,1.82,0,0,1,.12.81,6.06,6.06,0,0,1-.1.76c-.09.49-.2,1-.32,1.4-.49,1.81-1,3.41-1.54,4.85v0a46.88,46.88,0,0,0,0,7.22c.07.82.14,1.45.2,1.86a4.24,4.24,0,0,1,.07.64,3,3,0,0,1-.16-.62c-.09-.42-.19-1-.29-1.86a41.41,41.41,0,0,1-.17-7.27v0c.48-1.44,1-3,1.46-4.84.11-.45.22-.91.3-1.38a5.56,5.56,0,0,0,.08-.7,1.34,1.34,0,0,0-.1-.64,1.83,1.83,0,0,0-.77-1.09,1.71,1.71,0,0,0-1.36.06,9.82,9.82,0,0,0-5,4.32,9.07,9.07,0,0,0-.8,3.56,19.43,19.43,0,0,1-.78,4l-.19.56-.34-.52L48.5,85.5l-.06-.09v-.12c.15-1.08.29-2.19.44-3.32l0-.21.22-.06A7.56,7.56,0,0,0,50.88,81a2.4,2.4,0,0,0,1.19-1.25l0-.19h0l.31,0h0a.28.28,0,0,0-.13,0c-.06,0-.19.12-.13.14s0,0,0,0l-.08-.07-.39-.3-.84-.58L49.09,77.6l.21.05a17.07,17.07,0,0,0-3.24.51c-1,.27-2.22.7-2.56,1.54-.67,2.2-1.34,4.45-2,6.73l-.06.2-.22.05A7.92,7.92,0,0,0,38,88.06a4.44,4.44,0,0,0-1.74,2.85l0,.09-.05.08a17.68,17.68,0,0,0-1.95,3.34,5.49,5.49,0,0,0-.52,2.17v.11l0,.09a10.16,10.16,0,0,0-1.28,4.11,4.63,4.63,0,0,0,.56,2c.32.65.66,1.3,1,1.93,1.44,2.53,3,4.92,4.55,7.21l.05.07v.08c.58,4.38,1.13,8.6,1.66,12.59l-.4-.27L57.13,120l-.2.28c-.41-4.82-.77-9.09-1.07-12.63v0l0,0a36.43,36.43,0,0,0,2.75-9A14.28,14.28,0,0,0,58.72,95.18Z"/><path class="cls-4" d="M54.53,94.76c-.17.09-1.24-1.41-2.37-3.35s-1.92-3.59-1.75-3.69,1.23,1.4,2.37,3.35S54.7,94.67,54.53,94.76Z"/><path class="cls-11" d="M68.57,194.71a55.92,55.92,0,0,0,53.92-43.29Z"/><path class="cls-10" d="M57.7,119.72l15.74,42.75,33.34-49.88s16-17.92,23.48-7.35,3.68,30.57-1.07,40.05c-4.43,8.84-45.38,61.13-52.89,62s-18.82-2.05-23.83-11.5-22-67.09-22-67.09Z"/><path class="cls-6" d="M125.9,103.14c0,.23-3.63-.14-7.75,1.33s-6.75,4-6.89,3.8,2.34-3,6.66-4.47S126,103,125.9,103.14Z"/><path class="cls-10" d="M129.82,144.3c-4.28,8.83-43.87,61.12-51.13,61.95s-18.19-2.05-23-11.5S34.1,126.64,34.1,126.64l26.62-7.91,15.21,42.75,32.23-49.89"/><path class="cls-6" d="M108.16,111.59s-.17.32-.54.91L106,115.14l-6.4,10C94,133.89,86,146.38,76.17,161.63l-.31.48-.19-.54L60.4,118.84l.41.21L34.21,127l.23-.44L41,149.12c3.07,10.33,6.13,20.39,9.27,30,1.61,4.81,3.14,9.57,5,14a19.8,19.8,0,0,0,9.44,10.09,25.1,25.1,0,0,0,13,2.71l.82-.06.7-.21a9.8,9.8,0,0,0,1.36-.79A15.25,15.25,0,0,0,82,204c.42-.33.83-.68,1.22-1,1.6-1.41,3.08-2.91,4.52-4.4,5.7-6,10.62-12,15.08-17.46,8.86-11,15.69-20.15,20.27-26.58,2.28-3.21,4-5.75,5.12-7.5.56-.87,1-1.56,1.23-2s.41-.69.41-.69-.11.25-.35.73-.62,1.17-1.17,2.05c-1.08,1.78-2.76,4.35-5,7.59-4.51,6.49-11.27,15.71-20.1,26.74-4.43,5.5-9.34,11.49-15.05,17.55-1.43,1.5-2.91,3-4.53,4.45-.4.36-.81.72-1.24,1.06a14.65,14.65,0,0,1-1.32,1,10.56,10.56,0,0,1-1.46.86c-.29.09-.59.18-.88.25l-.84.07a25.71,25.71,0,0,1-13.37-2.76,20.48,20.48,0,0,1-9.77-10.39c-1.93-4.53-3.46-9.28-5.07-14.1-3.16-9.67-6.23-19.74-9.3-30.07-2.29-7.72-4.51-15.32-6.59-22.58l-.09-.34.33-.1,26.62-7.9.31-.09.1.3c5.57,15.7,10.7,30.17,15.16,42.77l-.5-.06c9.88-15.19,18-27.63,23.6-36.3l6.53-10,1.73-2.59C107.94,111.88,108.16,111.59,108.16,111.59Z"/><path class="cls-11" d="M102.79,198.74a4.06,4.06,0,0,0-2.79-1,355.45,355.45,0,0,0-52.31-.8L30,210.49a1.37,1.37,0,0,0,.62,1.59,4.05,4.05,0,0,0,1.79.45l13.8,1.2a107.17,107.17,0,0,0,12.79.6c2.66-.09,5.31-.38,8-.37,4.41,0,8.78.85,13.17,1.33a35.05,35.05,0,0,0,10.48-.17,16.59,16.59,0,0,0,9.15-4.81,14.81,14.81,0,0,0,3.66-8.77A3.68,3.68,0,0,0,102.79,198.74Z"/><path class="cls-3" d="M103.05,197c-.55-.28-7.83-3.24-7.83-3.24l-9.35-1.86,9-.36,7.85,2.19s3.13.35,2.43-2.28-10.26-5.55-10.26-5.55L82.66,185s9.43-1.38,10.41-4.29a4.5,4.5,0,0,0-.7-4.58s-6.66,2.64-9.85,3.19a62.49,62.49,0,0,0-12.2,3.88A84.79,84.79,0,0,0,62.18,187L57,205s8.59,5.41,18.3,5.13,18.31,2.86,19.56,2,1.38-2.4,0-3.09-7.27-1.52-7.27-1.52l-5.08-2.09s17.34,1.53,18.73.84,2.77-1.67,2.22-3.19a2.18,2.18,0,0,0-1.94-1.53s3.74.14,3.6-1.39A4.73,4.73,0,0,0,103.05,197Z"/><path class="cls-4" d="M83,198.81a21.36,21.36,0,0,0,2.91.22c1.8.11,4.27.32,7,.73s5.14.94,6.89,1.37a19.68,19.68,0,0,0,2.84.65,13.29,13.29,0,0,0-2.75-1,50.43,50.43,0,0,0-6.9-1.54,52.76,52.76,0,0,0-7-.58A13.15,13.15,0,0,0,83,198.81Z"/><path class="cls-10" d="M31.7,180.23l-2.24-47.7-5-21.75L6.7,159.63l-6,21.88c-4.41,20.71,12.67,28.58,19.93,28.31l38,1.38L62.18,187Z"/><path class="cls-12" d="M31.1,179.48Q30,155.34,29,131.2"/><path class="cls-6" d="M29,131.2c.2,0,.84,10.79,1.43,24.12s.92,24.15.72,24.16-.84-10.79-1.43-24.13S28.75,131.21,29,131.2Z"/><path class="cls-6" d="M18.71,209.69a3.69,3.69,0,0,1,.76,0l2.22,0,8.28.21,28.66,1-.35.29c.72-5.31,1.5-11.07,2.32-17.06.36-2.63.72-5.23,1-7.69l.28.39c-6.81-1.55-13.24-3-19-4.2-2.9-.6-5.65-1.16-8.23-1.64a34.78,34.78,0,0,0-7.16-.77,18.16,18.16,0,0,0-9.86,2.56,14.89,14.89,0,0,0-2.83,2.48,4.74,4.74,0,0,1,.58-.8,11,11,0,0,1,2.1-1.89,18.1,18.1,0,0,1,10-2.83,36,36,0,0,1,7.27.7c2.59.45,5.35,1,8.26,1.58,5.83,1.19,12.26,2.58,19.07,4.12l.32.07,0,.33c-.34,2.46-.69,5.05-1,7.69-.83,6-1.63,11.75-2.36,17.06l0,.3H58.6L30,210.33l-8.28-.41-2.21-.14A3.83,3.83,0,0,1,18.71,209.69Z"/><path class="cls-11" d="M76,161a41,41,0,0,1,4.51,16.36"/><path class="cls-6" d="M80.52,177.37c-.22,0-.49-3.81-1.75-8.32s-3-7.94-2.76-8,2.2,3.23,3.45,7.85S80.7,177.38,80.52,177.37Z"/><path class="cls-11" d="M30.71,179.5a41.84,41.84,0,0,0-8.94-2,14.88,14.88,0,0,0-8.84,1.81,5,5,0,0,0-2.07,2.09,2.42,2.42,0,0,0,.43,2.76,2.61,2.61,0,0,0,2.54.36,10.41,10.41,0,0,0,2.34-1.32,19.73,19.73,0,0,1,13.72-2.86"/></g></g></g></svg>