<svg xmlns="http://www.w3.org/2000/svg" viewBox="0 0 213.19 500.7"><defs><style>.cls-1{isolation:isolate;}.cls-2{fill:#373736;}.cls-3{fill:#ffbf9d;}.cls-4{fill:none;}.cls-5{fill:#ff9a6c;}.cls-6{fill:#fff;}.cls-7{fill:#455a64;}.cls-8{fill:#018cbe;}.cls-9{opacity:0.5;}.cls-10{opacity:0.3;mix-blend-mode:multiply;}</style></defs><g class="cls-1"><g id="Layer_2" data-name="Layer 2"><g id="Info"><path class="cls-2" d="M65.35,10.31C63.48,6.16,58,4.77,53.58,6a14.66,14.66,0,0,0-9,7.74c-1.86,4-1.84,8.49-1.94,12.85-.34,14.57-2.4,29.05-3.19,43.6s-.27,29.42,4.41,43.22l26.14-2,9.72-4.42Z"/><path class="cls-2" d="M118.21,16.41a18.12,18.12,0,0,0-6.34-6c-4.12-2.17-7.74-5.21-11.89-7.31C89.73-2,76.63-.64,67.39,6.17S53,24.75,53.64,36.22A39.49,39.49,0,0,0,69.93,65.29l45-11c2.81-7.62,4-14.93,4.93-24.16C120.14,26.93,119.65,18.5,118.21,16.41Z"/><path class="cls-3" d="M64.48,32.16A16.69,16.69,0,0,1,77,16.8l22.5-5.74C109.26,10,115.75,22,116.39,31.73c.71,10.84,1.14,22.28-.12,30.37-2.55,16.28-15,18.38-15,18.38s0,7.74,0,12.49l.24,20.69-32-23-5-58.26C64.42,32.08,64.46,32.53,64.48,32.16Z"/><path class="cls-2" d="M112.76,44.31a2.08,2.08,0,0,1-2,2.11,2,2,0,0,1-2.16-1.87,2.09,2.09,0,0,1,2-2.11A2,2,0,0,1,112.76,44.31Z"/><path class="cls-4" d="M113.61,38.42c-.26.28-1.84-.89-4.09-.88s-3.89,1.14-4.13.86c-.12-.12.14-.61.86-1.13a5.75,5.75,0,0,1,3.31-1,5.52,5.52,0,0,1,3.25,1C113.5,37.81,113.74,38.3,113.61,38.42Z"/><path class="cls-2" d="M92.83,44.81a2.09,2.09,0,0,1-2,2.11A2,2,0,0,1,88.67,45a2.09,2.09,0,0,1,2-2.11A2,2,0,0,1,92.83,44.81Z"/><path class="cls-4" d="M92.73,38.84c-.26.28-1.85-.89-4.09-.88s-3.89,1.14-4.13.86c-.12-.12.14-.61.86-1.13a5.72,5.72,0,0,1,3.3-1,5.53,5.53,0,0,1,3.26,1C92.62,38.23,92.85,38.72,92.73,38.84Z"/><path class="cls-2" d="M99.64,55.74a14.46,14.46,0,0,1,3.65-.67c.57-.06,1.12-.18,1.21-.57a2.89,2.89,0,0,0-.39-1.7c-.54-1.38-1.1-2.84-1.7-4.36C100,42.23,98.33,37.12,98.58,37s2.37,4.87,4.74,11.08L105,52.49a3.32,3.32,0,0,1,.31,2.25,1.46,1.46,0,0,1-1,.84,3.65,3.65,0,0,1-1,.14A15.23,15.23,0,0,1,99.64,55.74Z"/><path class="cls-5" d="M79.67,74.69s5.3,11.17,21.58,9.62V80.48A41,41,0,0,1,79.67,74.69Z"/><path class="cls-2" d="M94,33c-.22.61-2.46.32-5.1.65s-4.76,1-5.11.5c-.16-.27.21-.84,1.07-1.43a8.91,8.91,0,0,1,7.78-.88C93.59,32.21,94.07,32.69,94,33Z"/><path class="cls-2" d="M113.31,33.29c-.4.51-1.94,0-3.8,0s-3.44.35-3.8-.19c-.16-.25.09-.77.77-1.25a5.26,5.26,0,0,1,3.09-.84,5.16,5.16,0,0,1,3,1C113.27,32.52,113.48,33,113.31,33.29Z"/><path class="cls-3" d="M66.71,44c-.17-.47-8.65-3.53-8.77,5.49-.11,8.77,8.74,7,8.75,6.79S66.71,44,66.71,44Z"/><path class="cls-5" d="M64,52.88s-.15.11-.41.22a1.51,1.51,0,0,1-1.14,0c-.93-.35-1.69-1.83-1.72-3.41a5.09,5.09,0,0,1,.45-2.18,1.75,1.75,0,0,1,1.16-1.16.77.77,0,0,1,.89.43c.12.24.06.42.11.43s.19-.14.12-.51a.93.93,0,0,0-.34-.55,1.18,1.18,0,0,0-.84-.23,2.16,2.16,0,0,0-1.61,1.34,5.22,5.22,0,0,0-.55,2.44c0,1.77.93,3.43,2.19,3.81a1.67,1.67,0,0,0,1.4-.22C64,53.1,64.05,52.9,64,52.88Z"/><path class="cls-6" d="M63,54.43a1.73,1.73,0,1,0,1.29,2.33,1.81,1.81,0,0,0-.89-2.2"/><path class="cls-2" d="M63.43,54.56a2.33,2.33,0,0,1,.79,1.18,1.49,1.49,0,0,1-.34,1.38,1.63,1.63,0,0,1-1.63.46,1.61,1.61,0,0,1-1.06-1.32,1.47,1.47,0,0,1,.51-1.32A2.36,2.36,0,0,1,63,54.43s-.14-.09-.42-.09a1.82,1.82,0,0,0-1.79,2,1.88,1.88,0,0,0,3.34,1.06,1.76,1.76,0,0,0,.34-1.69,1.84,1.84,0,0,0-.67-1C63.6,54.57,63.44,54.54,63.43,54.56Z"/><path class="cls-2" d="M103.77,9.82c-.55-1-1.82-1.25-2.94-1.37A46.51,46.51,0,0,0,59.58,26.23l2.5,15.15C61,43.27,66,47.06,68.16,46.92s3.84-2,4.61-4.05c1.5-3.95.64-9,3.73-11.9,1.75-1.63,4.26-2,6.59-2.55a33.79,33.79,0,0,0,12.47-5.27,21.86,21.86,0,0,0,8.15-10.65A3.34,3.34,0,0,0,103.77,9.82Z"/><path class="cls-7" d="M57.34,48.73a6.9,6.9,0,0,1-.85-1.59,29.6,29.6,0,0,1-1.66-4.63,34,34,0,0,1,6.62-30.64,29.47,29.47,0,0,1,3.42-3.53,8.19,8.19,0,0,1,1.43-1.1c.1.1-1.92,1.71-4.45,4.94a35.27,35.27,0,0,0-6.53,30.21C56.29,46.38,57.47,48.68,57.34,48.73Z"/><path class="cls-7" d="M98.55,3.64c0-.08.63,0,1.47.52a7.57,7.57,0,0,1,3.61,6.3c0,1-.22,1.54-.3,1.52s.09-2.37-1.33-4.78S98.45,3.83,98.55,3.64Z"/><path class="cls-5" d="M97.86,59.92l-.13-.28-4.47-1.46A2.53,2.53,0,0,0,92,58a1.77,1.77,0,0,0-1,.83,3.44,3.44,0,0,0,.48,4.23,4,4,0,0,0,4.43.69A3.67,3.67,0,0,0,97.86,59.92Z"/><polygon class="cls-3" points="64.86 451.9 74.5 496.37 95.06 493.29 92.38 449.42 64.86 451.9"/><path class="cls-3" d="M145.14,487c-.45-.69-4.53-15.57-4.53-15.57l25.23-6.87L169.42,486Z"/><path class="cls-8" d="M169.2,481.76l0,1.72S197,494.79,197.36,500.3l-54.89.4.62-19.2C151.28,485.41,159.82,485.8,169.2,481.76Z"/><g class="cls-9"><path class="cls-6" d="M148.69,487.59a2.37,2.37,0,0,0-1.53,2.7,2.14,2.14,0,0,0,2.53,1.62,2.5,2.5,0,0,0,1.61-2.86c-.37-1.09-1.85-1.93-2.81-1.38"/></g><g class="cls-9"><path class="cls-6" d="M142.47,500.7l.15-4.62,52.55,1.31s2.45,1.1,2.19,2.91Z"/></g><path class="cls-6" d="M169.42,483.64c0,.28-1.35.41-2.66,1.33s-2,2.1-2.25,2,.14-1.74,1.74-2.81S169.48,483.38,169.42,483.64Z"/><path class="cls-6" d="M175.19,486.1c.06.27-1.09.76-2,1.95s-1.15,2.46-1.42,2.45-.45-1.6.7-3.07S175.18,485.83,175.19,486.1Z"/><path class="cls-6" d="M178.51,493.31c-.24.06-.63-1.34.05-2.89s1.93-2.17,2-1.93-.65,1.06-1.19,2.34S178.78,493.28,178.51,493.31Z"/><path class="cls-8" d="M70.15,481.76l0,1.72S42.35,494.79,42,500.3l54.89.4-.62-19.2C88.07,485.41,79.53,485.8,70.15,481.76Z"/><g class="cls-9"><path class="cls-6" d="M90.66,487.59a2.37,2.37,0,0,1,1.53,2.7,2.14,2.14,0,0,1-2.53,1.62,2.5,2.5,0,0,1-1.61-2.86c.37-1.09,1.85-1.93,2.81-1.38"/></g><g class="cls-9"><path class="cls-6" d="M96.88,500.7l-.15-4.62-52.55,1.31s-2.45,1.1-2.19,2.91Z"/></g><path class="cls-6" d="M69.93,483.64c0,.28,1.35.41,2.66,1.33s2,2.1,2.25,2-.14-1.74-1.74-2.81S69.87,483.38,69.93,483.64Z"/><path class="cls-6" d="M64.16,486.1c-.07.27,1.09.76,2,1.95s1.15,2.46,1.42,2.45.45-1.6-.7-3.07S64.17,485.83,64.16,486.1Z"/><path class="cls-6" d="M60.84,493.31c.24.06.63-1.34-.05-2.89s-1.93-2.17-2-1.93.65,1.06,1.19,2.34S60.57,493.28,60.84,493.31Z"/><path class="cls-2" d="M128,218S142,280.41,153.75,352.42c9.68,59.22,14,123.33,14,123.33l-28.51,1.67S121.82,404,108.29,351.18C95.82,302.49,85.67,277,85.67,277L80,212.69Z"/><path class="cls-2" d="M49.37,205.54s-25,33.82-22.91,69.11c1.26,21.11,41.45,201.1,41.45,201.1H97.46L87.7,283.22,96.28,218Z"/><path class="cls-2" d="M126.13,114.55a5.18,5.18,0,0,1,.13,1c.06.77.14,1.78.23,3,.2,2.61.34,6.41.43,11.11.17,9.39-.27,22.36-1.21,36.65S124,193.59,123.79,203c-.11,4.68-.14,8.47-.11,11.1v3a4.74,4.74,0,0,1-.06,1,6.21,6.21,0,0,1-.1-1c0-.77-.09-1.77-.15-3-.14-2.62-.19-6.42-.16-11.11,0-9.4.75-22.35,1.69-36.64s1.46-27.22,1.44-36.59c0-4.69-.07-8.48-.17-11.1,0-1.24,0-2.24-.07-3A4.89,4.89,0,0,1,126.13,114.55Z"/><path class="cls-3" d="M209.93,116.39,194.68,122,178,144.55l4.55,7.88,4.5-4.22s17.15-3.2,18.38-5.64a4.75,4.75,0,0,0-.17-4.54,10.55,10.55,0,0,0,.13-4.75,3.07,3.07,0,0,0-2.15-2.37s1.88-.78,1.08-3.18a4.12,4.12,0,0,0-2.48-2.85S212.09,120,213,118.63a1.14,1.14,0,0,0-.1-1.37A2.55,2.55,0,0,0,209.93,116.39Z"/><path class="cls-3" d="M175.4,139.84l3.08-4.32,6.65-12.06,14.83-4s2.49,1.17-1,5.59a8.94,8.94,0,0,1-8.27,3.53s1.05,9.62-1.57,13.91-9.68,4.67-9.68,4.67Z"/><path class="cls-5" d="M189.33,143.17a3.48,3.48,0,0,0,.65-.95,14.39,14.39,0,0,0,1.22-2.94,16.54,16.54,0,0,0-.41-10.51l-.23.44.53-.09a18.26,18.26,0,0,0,5.6-1.63,7.42,7.42,0,0,0,3.37-3.51,5.47,5.47,0,0,0,.47-3.32,2.38,2.38,0,0,0-.44-1.14c-.06,0,.13.42.21,1.17a5.64,5.64,0,0,1-.62,3.09,7.05,7.05,0,0,1-3.25,3.18,18.23,18.23,0,0,1-5.44,1.53l-.53.09-.38.06.15.37a17,17,0,0,1,.57,10.15A31.94,31.94,0,0,1,189.33,143.17Z"/><path class="cls-5" d="M202.85,131.39a14.46,14.46,0,0,0-1.52.54c-1,.37-2.39.83-4.13,1.5a15.17,15.17,0,0,0-2.77,1.38,3,3,0,0,0-1.23,1.39,2.32,2.32,0,0,0,.29,2,3.49,3.49,0,0,0,1.56,1.33,3.31,3.31,0,0,0,2.08.12l1-.17a7.15,7.15,0,0,0,1-.24c.67-.2,1.34-.44,2-.7l1.77-.69-.2-.6a15.57,15.57,0,0,0-3.38,1.92l-1.49,1c-.47.33-1,.58-1.47,1a2.19,2.19,0,0,0-.83,1.66,1.4,1.4,0,0,0,.31.92,1.85,1.85,0,0,0,.7.51,6.55,6.55,0,0,0,2.79.38,13.16,13.16,0,0,0,3.84-1,5.89,5.89,0,0,0,1.3-.63,7.74,7.74,0,0,0-1.38.41,14.59,14.59,0,0,1-3.78.82,6.06,6.06,0,0,1-2.57-.42,1,1,0,0,1-.7-1,1.65,1.65,0,0,1,.67-1.22,16,16,0,0,1,1.42-.91l1.51-1a16,16,0,0,1,3.25-1.83l-.2-.6-1.77.7c-.66.25-1.31.49-1.95.69a7.31,7.31,0,0,1-1,.22c-.34.05-.68.12-1,.18a2.83,2.83,0,0,1-1.76-.07,3,3,0,0,1-1.31-1.1,1.69,1.69,0,0,1-.26-1.5,2.54,2.54,0,0,1,1-1.15,15.13,15.13,0,0,1,2.65-1.4c1.7-.72,3.11-1.25,4.06-1.69A5.85,5.85,0,0,0,202.85,131.39Z"/><path class="cls-5" d="M201.7,125a10.69,10.69,0,0,0-3.15,1.1,24.43,24.43,0,0,0-3.17,1.82c-.57.38-1.16.82-1.74,1.29a3.27,3.27,0,0,0-1.43,2.09,1.7,1.7,0,0,0,.54,1.32,2.22,2.22,0,0,0,1.15.56,7.32,7.32,0,0,0,2.2,0,25.34,25.34,0,0,0,3.54-.77,9.29,9.29,0,0,0,3.09-1.24c0-.07-1.21.37-3.2.81a33.17,33.17,0,0,1-3.5.62,6.84,6.84,0,0,1-2,0,1.31,1.31,0,0,1-1.19-1.23A2.77,2.77,0,0,1,194,129.7c.56-.47,1.13-.9,1.68-1.3a28.57,28.57,0,0,1,3.05-1.89C200.54,125.54,201.73,125.1,201.7,125Z"/><path class="cls-8" d="M147.19,152.36l-15.3-49.05A14.07,14.07,0,0,0,122.74,94l-9.35-2.12,10.34,79.62,2.31,6c5.47,12.18,17.43,10.12,28,4.74.38-.2.75-.4,1.11-.61L186,156.73l-10.21-18.39Z"/><path class="cls-2" d="M143.78,166.36c.19,0,.25-3.26,1.29-7.1s2.59-6.67,2.42-6.77a17.6,17.6,0,0,0-3,6.6C143.42,163,143.63,166.38,143.78,166.36Z"/><path class="cls-6" d="M51.21,117.3l10.34,96.47L118.8,218l4.57-3.9-1.59-72.84L101.21,89.35h0c-2.44,4.64-7.13,6.21-12.78,5.78a21.15,21.15,0,0,1-10.65-4l-9.46-6.81Z"/><path class="cls-8" d="M68.45,79.31l-9.17,10L28.57,99.7l19.18,92.73-14.6,35.88a89.62,89.62,0,0,0-3.83,11.61l-9,35.2s31,8.43,39,3.83S77,229.58,79.94,219s7.38-42.22,5.32-59-5.61-41.63-7.38-50.19S68.45,79.31,68.45,79.31Z"/><path class="cls-8" d="M28.57,99.7s-8,10.53-10.33,20.65C14.38,137.44-.51,184.07.37,195S59,225.74,59,225.74l2.36-30.41L34.49,181.18l7.37-28.65"/><path class="cls-2" d="M41.86,152.53a2.76,2.76,0,0,1-.1.5c-.08.36-.19.84-.34,1.46-.32,1.32-.79,3.21-1.38,5.64-1.25,5-3,12.12-5.32,21.11L34.6,181l26.89,14.08.19.1,0,.21c-.7,9.23-1.49,19.51-2.32,30.41l0,.47-.44-.16c-11.31-4-23.49-8.62-35.76-14.32-4-1.9-8-3.85-11.75-6s-7.48-4.48-10.16-7.92a7.18,7.18,0,0,1-.82-1.43,3.06,3.06,0,0,1-.25-.81,2.65,2.65,0,0,1-.11-.82,23.46,23.46,0,0,1,.11-3.15c.18-2.08.55-4.09.88-6.09q1.17-6,2.57-11.59c3.72-15,7.67-28.31,10.77-39.56,1.57-5.62,2.89-10.71,4-15.22a50,50,0,0,1,4.66-11,70.88,70.88,0,0,1,4-6.38c.5-.7.89-1.23,1.16-1.58s.42-.51.42-.51-.11.2-.36.56-.63.93-1.09,1.62c-.94,1.43-2.32,3.56-3.86,6.43a50.11,50.11,0,0,0-4.51,10.92c-1.07,4.5-2.35,9.63-3.9,15.26-3,11.26-6.93,24.61-10.6,39.58-.93,3.74-1.77,7.6-2.54,11.55-.32,2-.69,4-.86,6a23.83,23.83,0,0,0-.11,3,4.78,4.78,0,0,0,1.06,2.68c2.5,3.23,6.26,5.49,9.93,7.7s7.67,4.13,11.69,6c12.23,5.68,24.4,10.33,35.68,14.32l-.48.31c.86-10.9,1.68-21.17,2.41-30.4l.16.31L34.38,181.39l-.17-.09,0-.18c2.35-9,4.23-16.11,5.53-21.05.65-2.42,1.15-4.3,1.5-5.62.18-.61.31-1.08.41-1.44A2.25,2.25,0,0,1,41.86,152.53Z"/><path class="cls-8" d="M101.25,82.67l4.52,7,18.81,4.75s5,24.78,5,31.57-2.8,82.06-2.8,85.61,13.58,51.66,12.4,54.61-15.36,5-15.36,5-5.31-41.63-5.31-55.8-.59-49-3.54-66.13-13.58-59.63-13.58-59.63Z"/><path class="cls-2" d="M118.78,223.34s0-.12,0-.36v-1c0-1,0-2.3,0-4,.08-3.52.2-8.49.34-14.62.28-12.34.78-29.39,1.09-48.22,0-2.35,0-4.68,0-7s-.24-4.52-.41-6.74c-.35-4.42-.7-8.69-1.12-12.75s-.87-7.9-1.48-11.46a49.13,49.13,0,0,0-2.75-9.64,126.93,126.93,0,0,0-6.19-13.21l-1.9-3.48c-.2-.37-.36-.67-.5-.91s-.16-.32-.14-.32.08.09.21.28l.56.87c.48.77,1.18,1.92,2,3.42A112,112,0,0,1,115,107.39a48.39,48.39,0,0,1,2.87,9.72c.64,3.58,1.13,7.44,1.56,11.5s.81,8.34,1.17,12.76c.18,2.21.43,4.46.43,6.79s0,4.63,0,7c-.3,18.84-.89,35.88-1.31,48.22-.24,6.12-.44,11.1-.57,14.61-.09,1.68-.15,3-.2,4,0,.42-.05.76-.07,1A1.41,1.41,0,0,1,118.78,223.34Z"/><path class="cls-2" d="M83.78,195a7.14,7.14,0,0,1-.16-1.11c-.08-.73-.17-1.8-.26-3.19-.17-2.78-.34-6.81-.26-11.78,0-2.49.14-5.22.33-8.14a36.54,36.54,0,0,0-1.11-9.14,154.2,154.2,0,0,0-6.79-20.19c-2.84-7-5.78-13.62-8.51-19.6a80.87,80.87,0,0,1-3.64-8.63,75.78,75.78,0,0,1-1.92-7.92c-1-4.89-1.46-8.89-1.8-11.65-.16-1.38-.27-2.45-.33-3.18a5.56,5.56,0,0,1,0-1.12,7.52,7.52,0,0,1,.2,1.1c.12.79.28,1.84.47,3.16.43,2.75,1,6.72,2,11.58A78.73,78.73,0,0,0,64,113a85.29,85.29,0,0,0,3.67,8.53c2.76,6,5.73,12.57,8.58,19.61A148.66,148.66,0,0,1,83,161.48a37.07,37.07,0,0,1,1,9.34c-.21,2.91-.35,5.63-.42,8.11-.15,5-.06,9,0,11.75l.12,3.2A6,6,0,0,1,83.78,195Z"/><path class="cls-2" d="M168.46,192.67l-16.11,21.79a2.93,2.93,0,0,1-2.91,1.14L79.72,202.42a2.93,2.93,0,0,1-2.25-3.79L85,175.47a2.94,2.94,0,0,1,3.33-2L166.64,188A2.93,2.93,0,0,1,168.46,192.67Z"/><path class="cls-2" d="M18.24,183.09a6.69,6.69,0,0,1,2.34-1.9A14.36,14.36,0,0,1,34.66,181a6.58,6.58,0,0,1,2.39,1.83c-.07.1-1-.59-2.63-1.35a15.56,15.56,0,0,0-13.58.18C19.21,182.46,18.32,183.18,18.24,183.09Z"/><polygon class="cls-10" points="34.73 224.41 62.28 234.54 65.15 223.11 78.2 225.74 79.95 219.14 59.48 216.27 59.28 225.74 37.88 217.67 34.73 224.41"/><path class="cls-3" d="M61.15,197.77s5.51-4.66,7.22-5.71,7.48-4.85,10.1-4.46l2.63.39-2.36,7s21.12-3.15,24,.26-3.15,4.07-6.3,4.46-13.27,2.1-13.27,2.1,26.39-2.89,28.23,0-2.57,3.54-2.57,3.54l-17.47,7-2,.78-2,2.63s-7.18,5-9.41,4.33-18.47-3.74-18.47-3.74Z"/><path class="cls-5" d="M79.5,209.69a21.61,21.61,0,0,1,4.1-1.24A101.28,101.28,0,0,1,104,205.59a20.54,20.54,0,0,1,4.27.07,27.41,27.41,0,0,1-4.24.46c-2.62.22-6.24.58-10.21,1.13s-7.55,1.21-10.13,1.72A28,28,0,0,1,79.5,209.69Z"/><path class="cls-5" d="M81.9,214.77c-.05-.2,1.64-.81,3.78-1.37s3.92-.84,4-.64-1.64.82-3.78,1.37S82,215,81.9,214.77Z"/><path class="cls-2" d="M129.05,115.65a5,5,0,0,1,.12,1c.05.71.12,1.63.21,2.78.18,2.42.31,5.93.39,10.27.16,8.67-.24,20.66-1.11,33.86s-1.61,25.15-1.78,33.81c-.09,4.33-.12,7.83-.09,10.25,0,1.15,0,2.08,0,2.79a3.93,3.93,0,0,1,0,1,5.27,5.27,0,0,1-.1-1c0-.72-.08-1.64-.14-2.79-.12-2.42-.17-5.93-.14-10.27,0-8.68.69-20.65,1.56-33.85s1.35-25.15,1.33-33.81c0-4.33-.06-7.83-.16-10.25q0-1.73-.06-2.79A4.11,4.11,0,0,1,129.05,115.65Z"/><path class="cls-2" d="M44,149.51a10,10,0,0,1-.12-1.94c0-1.25-.09-3.06-.25-5.28a92.13,92.13,0,0,0-2.85-17.13,91.92,91.92,0,0,0-6.08-16.28c-1-2-1.81-3.6-2.42-4.69a10.51,10.51,0,0,1-.86-1.75A9,9,0,0,1,32.5,104c.68,1,1.59,2.62,2.64,4.6A81.29,81.29,0,0,1,41.47,125a80.07,80.07,0,0,1,2.65,17.3c.09,2.24.09,4.06,0,5.31A9,9,0,0,1,44,149.51Z"/><path class="cls-2" d="M96.79,63.48c.08.05-.78.83-2.47.77a4.3,4.3,0,0,1-2.73-1,4.24,4.24,0,0,1-1.26-3.33,5.71,5.71,0,0,1,.1-1,3.35,3.35,0,0,1,.4-.88,1,1,0,0,1,.19-.23.87.87,0,0,1,.32-.18,1.08,1.08,0,0,1,.57,0c.33.08.54.17.8.25l2.6.93a9,9,0,0,1,2.34,1,8.94,8.94,0,0,1-2.5-.54l-2.65-.78c-.24-.07-.52-.17-.73-.22a.48.48,0,0,0-.24,0h0s-.11-.2-.06-.1l0,.07s0,0,0,0l-.08.1a2.73,2.73,0,0,0-.29.68,4.83,4.83,0,0,0-.08.81,3.74,3.74,0,0,0,1,2.82,4,4,0,0,0,2.32,1A6.67,6.67,0,0,0,96.79,63.48Z"/></g></g></g></svg>