<svg xmlns="http://www.w3.org/2000/svg" viewBox="0 0 67.01 67.01"><defs><style>.cls-1{fill:#00c868;}.cls-2{fill:#fff;}</style></defs><g id="Layer_2" data-name="Layer 2"><g id="Info"><circle class="cls-1" cx="33.51" cy="33.51" r="33.51"/><path id="green" class="cls-2" d="M12.61,33.29a20.85,20.85,0,0,0,2.81,10.49l-3,10.86,11.11-2.9a20.89,20.89,0,0,0,10,2.52h0a20.95,20.95,0,1,0-21-21m6.62,9.91-.43-.66a17.18,17.18,0,0,1-2.67-9.25A17.44,17.44,0,0,1,33.58,15.9,17.4,17.4,0,0,1,51,33.29a17.43,17.43,0,0,1-17.39,17.4h0a17.49,17.49,0,0,1-8.87-2.43l-.62-.39-6.57,1.72Zm9.1-18.68c-.38-.86-.81-.9-1.19-.9h-1a2,2,0,0,0-1.38.66A6,6,0,0,0,23,28.67a10.24,10.24,0,0,0,2.14,5.43c.24.33,3.63,5.82,9,7.91,4.44,1.77,5.34,1.38,6.29,1.29s3.1-1.29,3.53-2.48a4.26,4.26,0,0,0,.29-2.48c-.15-.24-.48-.33-1-.62S40.06,36.2,39.58,36s-.81-.24-1.19.28a17.38,17.38,0,0,1-1.67,2.05c-.28.34-.62.38-1.14.15a14.56,14.56,0,0,1-4.2-2.63,14.33,14.33,0,0,1-2.9-3.62.73.73,0,0,1,.24-1.05c.23-.23.52-.62.76-.9a5.31,5.31,0,0,0,.52-.86.85.85,0,0,0-.05-.9c-.14-.39-1.14-3-1.62-4"/></g></g></svg>