<svg xmlns="http://www.w3.org/2000/svg" viewBox="0 0 403.47 278.59"><defs><style>.cls-1,.cls-6{opacity:0.3;}.cls-2{fill:none;}.cls-3{fill:#0060ac;}.cls-4{fill:#373736;}.cls-5{opacity:0.4;}.cls-6,.cls-7{fill:#fff;}.cls-8{fill:#ffbe9d;}.cls-9{fill:#ff9a6c;}.cls-10{fill:#e2528c;}.cls-11{opacity:0.2;}</style></defs><g id="Layer_2" data-name="Layer 2"><g id="Info"><g class="cls-1"><path class="cls-2" d="M94.89,135.13c.09,0,1.71-11.35,3.64-25.37s3.42-25.4,3.33-25.41-1.71,11.35-3.63,25.37S94.81,135.12,94.89,135.13Z"/><path class="cls-2" d="M47,73s0,.06.05.18l.19.5L48,75.62l2.76,7.09c2.33,6,5.5,14.29,8.88,23.49s6.31,17.59,8.4,23.67c1,3,1.88,5.48,2.47,7.2.29.83.51,1.49.68,2q.11.31.18.51a1.78,1.78,0,0,0,.07.17s0-.06,0-.18l-.16-.52c-.14-.47-.35-1.13-.62-2-.55-1.71-1.36-4.18-2.38-7.23-2-6.1-4.94-14.49-8.32-23.7s-6.58-17.49-9-23.47c-1.19-3-2.17-5.39-2.85-7-.35-.82-.61-1.46-.8-1.91l-.22-.5A1.78,1.78,0,0,0,47,73Z"/><path class="cls-2" d="M12.75,117.68c-.05.06,8.26,6.57,18.55,14.53S50,146.57,50.05,146.5,41.79,139.93,31.49,132,12.8,117.61,12.75,117.68Z"/><path class="cls-2" d="M115,137.25c.07.05,3.28-4,7.18-9.14s7-9.28,6.93-9.33-3.28,4-7.17,9.14S115,137.2,115,137.25Z"/><path class="cls-2" d="M16.67,169.24c0,.08,5.11-1.33,11.37-3.15s11.31-3.37,11.28-3.45S34.21,164,28,165.8,16.65,169.16,16.67,169.24Z"/></g><path class="cls-3" d="M324.25,153.14a62,62,0,0,1,59.13-16.23,107.67,107.67,0,0,1-59.83,18.7"/><path class="cls-3" d="M344.31,82.12c-2.47-17.42,4.3-37,17.35-49.69.43,17.27-6.86,36.7-17.35,49.69"/><path class="cls-3" d="M333.87,115A93.08,93.08,0,0,1,376.6,74.2a58.7,58.7,0,0,1-42.89,41"/><path class="cls-3" d="M331.71,121.39c10.53.29,21.18-.08,31.36-2.77s19.92-7.87,26.69-15.93a104.79,104.79,0,0,0-57.89,17.67"/><path class="cls-3" d="M337.05,100.47c-5.34-20-14.15-33.87-29.89-45.09a41.65,41.65,0,0,0,29.89,45.09"/><path class="cls-3" d="M297.33,135a29.63,29.63,0,0,1,18-27.45c-.87,10.34-9,22.3-18,27.45"/><path class="cls-3" d="M292.3,118.12a44.16,44.16,0,0,0-28.93-37.67c3.64,16.73,13.31,30.66,28.93,37.67"/><path class="cls-3" d="M299.88,148.07c-3.71-5.31-9.77-8.61-16-10.25S271,136,264.55,135.9a45.12,45.12,0,0,0,34.84,14.51"/><path class="cls-3" d="M307.4,190.75a49.42,49.42,0,0,0-60.34,28.58c21.92-4.16,43.55-13.89,60.34-28.58"/><path class="cls-3" d="M331.46,175.92c-3.64,10.76-2.94,23.77,5.15,33.05a39.5,39.5,0,0,0-5.15-33.05"/><path class="cls-3" d="M345.68,169.94A40.49,40.49,0,0,0,368,202.8a2.56,2.56,0,0,0,2,.32c1-.4,1.07-1.75,1-2.81-1.58-13.79-11.8-27.12-25.29-30.37"/><path class="cls-3" d="M355,168.54a33.21,33.21,0,0,0,48.51.25c-15.42-1.69-33.21-2.82-48.51-.25"/><path d="M357.27,45.27a2.62,2.62,0,0,1-.14.45c-.11.32-.27.76-.47,1.31-.44,1.17-1.06,2.84-1.86,5s-1.79,4.82-2.9,7.92c-.55,1.54-1.15,3.2-1.78,5s-1.25,3.62-1.93,5.57c-2.73,7.81-5.76,17.18-9,27.62s-6.59,22-9.91,34.17-6.19,23.86-8.66,34.52-4.47,20.3-6,28.43c-.38,2-.75,4-1.1,5.8s-.6,3.57-.88,5.19c-.56,3.24-1,6-1.35,8.32s-.62,4-.81,5.26c-.1.58-.17,1-.23,1.37a1.54,1.54,0,0,1-.1.46,4.12,4.12,0,0,1,0-.47c0-.34.1-.79.17-1.37.16-1.24.4-3,.7-5.29s.73-5.09,1.26-8.34q.39-2.43.84-5.19t1-5.81c1.44-8.15,3.47-17.8,5.84-28.49s5.34-22.35,8.62-34.55,6.72-23.72,10-34.17,6.39-19.8,9.17-27.59c.69-2,1.34-3.81,2-5.57s1.25-3.39,1.82-4.94c1.14-3.08,2.13-5.73,3-7.88l2-5c.22-.54.4-1,.52-1.28A4.19,4.19,0,0,1,357.27,45.27Z"/><path d="M272.58,89.38l.26.25.74.77c.64.69,1.58,1.72,2.74,3.07a107.76,107.76,0,0,1,9.08,12.11,81.28,81.28,0,0,1,9.49,20.31c2.54,8.08,4.12,17.27,5.7,26.87,3.13,19.23,7,36.45,9.76,48.91,1.41,6.19,2.54,11.22,3.34,14.74.38,1.72.68,3.06.89,4,.09.43.16.78.22,1a2,2,0,0,1,.05.36,1.2,1.2,0,0,1-.11-.34l-.27-1c-.24-.95-.58-2.28-1-4L310,201.76c-2.89-12.43-6.81-29.65-9.95-48.9-1.57-9.61-3.13-18.77-5.63-26.81a82.4,82.4,0,0,0-9.32-20.25,116.69,116.69,0,0,0-8.91-12.18c-1.13-1.38-2-2.43-2.65-3.14q-.44-.49-.69-.81A1.56,1.56,0,0,1,272.58,89.38Z"/><path d="M359.57,167.88s-.19.06-.56.11l-1.59.17-1.16.12-1.36.2c-1,.15-2.09.29-3.31.56l-1.91.38-2.05.52c-1.43.32-2.91.84-4.48,1.32a65.93,65.93,0,0,0-9.76,4.3,54.93,54.93,0,0,0-8.75,6.08,41.79,41.79,0,0,0-3.36,3.23,34.91,34.91,0,0,0-2.66,3.06,33.38,33.38,0,0,0-2,2.71,20.88,20.88,0,0,0-1.35,2.15l-.81,1.38a2,2,0,0,1-.33.46,2.68,2.68,0,0,1,.22-.51c.2-.39.43-.87.72-1.44a19,19,0,0,1,1.27-2.21,28.85,28.85,0,0,1,1.92-2.79,33.23,33.23,0,0,1,2.63-3.15,44,44,0,0,1,3.36-3.3,53.2,53.2,0,0,1,8.82-6.18,62.73,62.73,0,0,1,9.88-4.31c1.59-.46,3.08-1,4.53-1.27l2.07-.49,1.94-.35c1.22-.25,2.35-.36,3.34-.48l1.38-.15,1.16-.07,1.61-.06A2.17,2.17,0,0,1,359.57,167.88Z"/><path d="M364,89.75a7.55,7.55,0,0,1-1.11,1.07l-3.17,2.75c-2.7,2.31-6.45,5.46-10.62,8.91s-8,6.56-10.72,8.79l-3.3,2.6a8.08,8.08,0,0,1-1.25.9,6.7,6.7,0,0,1,1.11-1.08l3.17-2.75c2.7-2.3,6.45-5.46,10.62-8.91s7.95-6.55,10.72-8.78l3.29-2.61A8.06,8.06,0,0,1,364,89.75Z"/><path d="M367.75,110.14c.05.16-8.05,2.69-18.08,5.65s-18.2,5.25-18.25,5.09,8.05-2.69,18.08-5.65S367.71,110,367.75,110.14Z"/><path d="M337.86,102a5.94,5.94,0,0,1-.84-1.16l-2.13-3.25c-1.81-2.74-4.38-6.47-7.42-10.45s-6-7.44-8.13-9.92l-2.56-2.92a6.69,6.69,0,0,1-.9-1.12,6,6,0,0,1,1.06,1c.66.64,1.59,1.6,2.71,2.8,2.24,2.41,5.23,5.85,8.29,9.84s5.57,7.78,7.3,10.59c.86,1.4,1.54,2.54,2,3.35A7.85,7.85,0,0,1,337.86,102Z"/><path d="M309.74,113.35a26.77,26.77,0,0,1-1.9,3.12c-1.21,1.9-2.85,4.54-4.55,7.53s-3.13,5.75-4.15,7.76a28.4,28.4,0,0,1-1.71,3.23,19.43,19.43,0,0,1,1.33-3.41c.93-2.06,2.31-4.87,4-7.87s3.41-5.62,4.71-7.47A19.45,19.45,0,0,1,309.74,113.35Z"/><path d="M300.12,148.63c0,.08-1.59-.68-4.11-1.81s-6.06-2.63-10.05-4-7.68-2.43-10.36-3.12a43.47,43.47,0,0,1-4.35-1.15,4.86,4.86,0,0,1,1.2.13c.77.12,1.88.32,3.24.62a90.74,90.74,0,0,1,20.49,7.17c1.25.62,2.25,1.15,2.92,1.54A4.52,4.52,0,0,1,300.12,148.63Z"/><path d="M307.69,190.81a1.51,1.51,0,0,1-.5.17l-1.45.37-5.39,1.25a176,176,0,0,0-17.59,4.64,78,78,0,0,0-16.4,7.71c-2,1.25-3.49,2.35-4.53,3.14a13.93,13.93,0,0,1-1.63,1.21s.12-.15.37-.38.61-.59,1.12-1a45.19,45.19,0,0,1,4.44-3.32,71.51,71.51,0,0,1,16.44-7.92,146.13,146.13,0,0,1,17.69-4.49l5.43-1.06A13.89,13.89,0,0,1,307.69,190.81Z"/><path d="M335.08,201.21c-.16,0-1.13-5.65-2.15-12.68s-1.73-12.75-1.57-12.77,1.12,5.65,2.15,12.68S335.24,201.19,335.08,201.21Z"/><path d="M363.59,190.86a30.15,30.15,0,0,1-2.57-3.05c-1.54-1.92-3.67-4.57-6.09-7.44s-4.65-5.43-6.27-7.28a31.45,31.45,0,0,1-2.57-3.05s.32.22.82.7,1.2,1.18,2.06,2.07c1.7,1.78,4,4.3,6.41,7.18s4.51,5.57,6,7.56c.73,1,1.31,1.81,1.69,2.38A3.71,3.71,0,0,1,363.59,190.86Z"/><polygon class="cls-3" points="288.14 217.3 288.14 231.39 291.66 231.39 304.18 270.92 331.95 270.92 344.08 231.78 348.78 231.39 348.78 217.3 288.14 217.3"/><path d="M346.43,231.78c0,.16-12.26.3-27.38.3s-27.39-.14-27.39-.3,12.26-.29,27.39-.29S346.43,231.62,346.43,231.78Z"/><path d="M366.41,141.16a10.93,10.93,0,0,1-1.78.48l-4.88,1.17c-4.11,1-9.75,2.57-15.87,4.62s-11.55,4.24-15.43,5.91l-4.6,2a12.51,12.51,0,0,1-1.71.7,10.89,10.89,0,0,1,1.61-.9c1.06-.55,2.6-1.3,4.53-2.19a161.41,161.41,0,0,1,15.42-6.09,158.52,158.52,0,0,1,16-4.46c2.07-.46,3.75-.8,4.92-1A10.86,10.86,0,0,1,366.41,141.16Z"/><path d="M337.21,253.73c0,.16-8.6.3-19.21.3s-19.22-.14-19.22-.3,8.61-.29,19.22-.29S337.21,253.57,337.21,253.73Z"/><path d="M338.29,250.46c0,.17-9.11.3-20.36.3s-20.36-.13-20.36-.3,9.11-.29,20.36-.29S338.29,250.3,338.29,250.46Z"/><path class="cls-4" d="M28,270.92c0,.14,72.7.26,162.36.26s162.38-.12,162.38-.26-72.69-.26-162.38-.26S28,270.77,28,270.92Z"/><path class="cls-3" d="M36.9,198.38l38.7-43.47a16.4,16.4,0,0,1,12.12-5.49l127.39-.92a16.38,16.38,0,0,1,16.5,16.42l-.21,90.21A16.38,16.38,0,0,1,215,271.47L88,270.94a16.4,16.4,0,0,1-12.36-5.7L36.72,220A16.4,16.4,0,0,1,36.9,198.38ZM58.43,214a13.51,13.51,0,1,0,7.43-17.6A13.51,13.51,0,0,0,58.43,214Z"/><g class="cls-5"><path d="M36.9,198.38l38.7-43.47a16.4,16.4,0,0,1,12.12-5.49l127.39-.92a16.38,16.38,0,0,1,16.5,16.42l-.21,90.21A16.38,16.38,0,0,1,215,271.47L88,270.94a16.4,16.4,0,0,1-12.36-5.7L36.72,220A16.4,16.4,0,0,1,36.9,198.38ZM58.43,214a13.51,13.51,0,1,0,7.43-17.6A13.51,13.51,0,0,0,58.43,214Z"/></g><path class="cls-3" d="M30.2,198.38l38.69-43.47A16.4,16.4,0,0,1,81,149.42l127.39-.92a16.37,16.37,0,0,1,16.5,16.42l-.21,90.21a16.38,16.38,0,0,1-16.45,16.34l-126.95-.53a16.37,16.37,0,0,1-12.35-5.7L30,220A16.39,16.39,0,0,1,30.2,198.38ZM51.73,214a13.51,13.51,0,1,0,7.43-17.6A13.5,13.5,0,0,0,51.73,214Z"/><path d="M34.43,225.22a6.29,6.29,0,0,0-1.26.91c-.8.64-2,1.59-3.43,2.85s-3.25,2.81-5.27,4.69-4.26,4.07-6.58,6.66a67,67,0,0,0-6.93,9c-.27.44-.54.88-.82,1.32l-.78,1.37A31.66,31.66,0,0,0,7.89,255a17.88,17.88,0,0,0-1.68,6.69,10.44,10.44,0,0,0,.54,3.65,9.32,9.32,0,0,0,1.91,3.29,12.37,12.37,0,0,0,6.64,3.8,18,18,0,0,0,7.84-.19,34.13,34.13,0,0,0,7.48-2.74,46.25,46.25,0,0,0,12.48-9.31,59.82,59.82,0,0,0,4.83-5.61q2.19-2.85,4.16-5.69a107.46,107.46,0,0,0,11.83-21.29q1-2.42,1.67-4.67c.24-.75.46-1.48.64-2.2a14.58,14.58,0,0,0,.42-2.15,5.35,5.35,0,0,0-1-3.89,5.65,5.65,0,0,0-2.75-1.92,8.62,8.62,0,0,0-1.39-.32,8.73,8.73,0,0,0-1.24,0,5.63,5.63,0,0,0-1.88.42,3.28,3.28,0,0,0-1,.62c-.2.18-.29.28-.28.3s.15,0,.37-.18a4.67,4.67,0,0,1,1-.45,5.92,5.92,0,0,1,1.8-.26,6.79,6.79,0,0,1,1.15.1,7.25,7.25,0,0,1,1.26.35,5.19,5.19,0,0,1,2.37,1.79,4.58,4.58,0,0,1,.7,3.37,12.51,12.51,0,0,1-.46,2c-.19.7-.42,1.41-.67,2.14-.5,1.46-1.08,3-1.75,4.57a111.48,111.48,0,0,1-12,20.89q-2,2.79-4.16,5.61A58.92,58.92,0,0,1,42,259.12a45.55,45.55,0,0,1-12.09,9,33.48,33.48,0,0,1-7.14,2.64,16.72,16.72,0,0,1-7.2.2,11,11,0,0,1-5.87-3.3,8.53,8.53,0,0,1-2.14-6,16.81,16.81,0,0,1,1.51-6.19,27.17,27.17,0,0,1,1.39-2.81l.74-1.36L12,250a68.93,68.93,0,0,1,6.66-9c2.25-2.59,4.42-4.83,6.37-6.75s3.66-3.54,5.07-4.86l3.24-3.06C34.1,225.65,34.47,225.26,34.43,225.22Z"/><polygon class="cls-6" points="89.81 169.06 86.04 166.89 84.03 163.02 81.86 166.79 78 168.8 81.77 170.97 83.78 174.84 85.95 171.06 89.81 169.06"/><g class="cls-1"><polygon class="cls-7" points="110.21 163.07 108.89 162.31 108.18 160.95 107.42 162.27 106.07 162.98 107.39 163.74 108.09 165.09 108.85 163.77 110.21 163.07"/></g><g class="cls-1"><polygon class="cls-7" points="97.18 189.73 94.63 188.25 93.27 185.64 91.8 188.19 89.19 189.55 91.74 191.02 93.1 193.64 94.57 191.08 97.18 189.73"/></g><polygon class="cls-3" points="195.84 128.98 194.73 130.99 192.72 132.09 194.73 133.19 195.84 135.21 196.94 133.19 198.95 132.09 196.94 130.99 195.84 128.98"/><polygon class="cls-3" points="188.47 101.39 187.33 101.32 186.41 100.64 186.33 101.78 185.65 102.7 186.79 102.78 187.72 103.46 187.79 102.32 188.47 101.39"/><polygon class="cls-3" points="2.83 192.98 1.68 192.9 0.76 192.22 0.68 193.37 0 194.29 1.15 194.37 2.07 195.05 2.14 193.9 2.83 192.98"/><polygon class="cls-3" points="133.6 135.68 132.45 135.6 131.53 134.92 131.45 136.07 130.77 136.99 131.92 137.06 132.84 137.75 132.92 136.6 133.6 135.68"/><polygon class="cls-3" points="126.62 86.64 125.48 86.56 124.56 85.88 124.48 87.02 123.8 87.95 124.94 88.02 125.87 88.7 125.94 87.56 126.62 86.64"/><polygon class="cls-3" points="161.77 117.07 160.02 116.07 159.1 114.28 158.09 116.03 156.31 116.95 158.05 117.95 158.98 119.74 159.98 118 161.77 117.07"/><polygon class="cls-3" points="15.47 216.03 13.73 215.03 12.81 213.25 11.8 214.99 10.02 215.92 11.76 216.92 12.69 218.7 13.69 216.96 15.47 216.03"/><polygon class="cls-3" points="24.22 184.2 22.48 183.2 21.55 181.41 20.55 183.16 18.76 184.08 20.51 185.08 21.43 186.87 22.43 185.13 24.22 184.2"/><path class="cls-7" d="M262.1,253.19s41.76,11.56,43.43,12.15c2.52.88,2.09,10.1-1.82,10-1.85-.07-32.08,1.12-35.9.88s-14.09-4.3-14.09-4.3Z"/><path class="cls-4" d="M279.49,269.12c.21,0,.49-2.18,1.84-4.48s3.08-3.68,2.95-3.84-2.14,1-3.55,3.49S279.32,269.14,279.49,269.12Z"/><path class="cls-4" d="M275.14,267.15c.2,0,.63-1.94,1.74-4.12s2.42-3.71,2.27-3.85-1.75,1.23-2.9,3.54S275,267.14,275.14,267.15Z"/><path class="cls-4" d="M271.05,266.06c.21,0,.05-2.1,1-4.42s2.42-3.75,2.27-3.9-1.95,1.13-2.92,3.65S270.88,266.12,271.05,266.06Z"/><path class="cls-4" d="M271.79,260.66a7.22,7.22,0,0,0,.45-3.11,14.68,14.68,0,0,0-1-5.34,2.37,2.37,0,0,0-.67-1,1.1,1.1,0,0,0-1.43.07,1.79,1.79,0,0,0-.56,1.18,10.42,10.42,0,0,0-.06,1.1,9.58,9.58,0,0,0,.26,2.05,12.52,12.52,0,0,0,1.29,3.19,8.36,8.36,0,0,0,1.87,2.51c.1-.06-.6-1-1.43-2.74a14,14,0,0,1-1.1-3.1,9.16,9.16,0,0,1-.2-1.91c0-.64,0-1.45.38-1.75a.41.41,0,0,1,.56,0,1.72,1.72,0,0,1,.45.73,16.14,16.14,0,0,1,.64,1.84,17.06,17.06,0,0,1,.55,3.26C271.87,259.46,271.68,260.64,271.79,260.66Z"/><path class="cls-4" d="M271.74,260.24a5.71,5.71,0,0,0-2.69-.44,12,12,0,0,0-3,.37,6.34,6.34,0,0,0-1.71.62,1.76,1.76,0,0,0-.94,1.91,2.08,2.08,0,0,0,1.5,1.49,3.81,3.81,0,0,0,1.87,0,9,9,0,0,0,4.66-3.25,18.36,18.36,0,0,0-2.23,1.51,7.34,7.34,0,0,1-2.56,1.11,3.52,3.52,0,0,1-1.55,0,1.4,1.4,0,0,1-1-1,1.07,1.07,0,0,1,.62-1.16,6,6,0,0,1,1.51-.59,13.71,13.71,0,0,1,2.82-.49C270.7,260.18,271.73,260.35,271.74,260.24Z"/><path class="cls-4" d="M285.91,269.57c.2,0,0-1.81.82-3.77s2.18-3.1,2-3.26-1.82.81-2.7,3S285.74,269.64,285.91,269.57Z"/><path class="cls-4" d="M256.77,271.5a9.47,9.47,0,0,0,1.61.76A37.78,37.78,0,0,0,263,273.7a66,66,0,0,0,16,1.51c6.25-.07,11.89-.35,16-.52l4.84-.25a10,10,0,0,0,1.77-.19,8.32,8.32,0,0,0-1.78-.09l-4.84,0-16,.31a74.53,74.53,0,0,1-15.83-1.29C259.15,272.4,256.82,271.37,256.77,271.5Z"/><path class="cls-4" d="M255.53,272.45a33.68,33.68,0,0,0,3.13-1.42,14.51,14.51,0,0,1,7.91-1.31c3.14.48,5.37,2.59,6.83,4.06a25.4,25.4,0,0,0,2.4,2.46,12.78,12.78,0,0,0-2-2.79,16.79,16.79,0,0,0-2.77-2.59,9.9,9.9,0,0,0-4.31-1.83,13.8,13.8,0,0,0-8.22,1.55A11.42,11.42,0,0,0,255.53,272.45Z"/><path class="cls-4" d="M297.43,274.26c.07-.05-.28-.61-.61-1.58a8,8,0,0,1-.31-3.93,7.85,7.85,0,0,1,1.69-3.55c.65-.8,1.18-1.19,1.13-1.26s-.66.22-1.43,1a7.11,7.11,0,0,0-1.46,7.89C296.89,273.82,297.38,274.3,297.43,274.26Z"/><path class="cls-7" d="M218.52,254.43s-42.83,6.51-44.57,6.89c-2.6.58-3.28,9.79.63,10.11,1.84.15,31.71,4.93,35.53,5.15s15.8-2.92,15.8-2.92Z"/><path class="cls-4" d="M199.36,268.18c-.22,0-.23-2.22-1.3-4.67s-2.62-4-2.47-4.17,2,1.27,3.11,3.9S199.53,268.22,199.36,268.18Z"/><path class="cls-4" d="M203.91,266.74c-.2,0-.39-2-1.23-4.3s-2-4-1.8-4.09,1.58,1.42,2.45,3.85S204.09,266.75,203.91,266.74Z"/><path class="cls-4" d="M208.1,266.14c-.21,0,.2-2.09-.45-4.5s-2-4-1.79-4.15,1.81,1.36,2.47,4S208.26,266.22,208.1,266.14Z"/><path class="cls-4" d="M208,260.69a7.59,7.59,0,0,1-.07-3.14,14.47,14.47,0,0,1,1.67-5.18,2.26,2.26,0,0,1,.79-.93,1.1,1.1,0,0,1,1.41.24,1.8,1.8,0,0,1,.41,1.24,7.92,7.92,0,0,1-.07,1.1,9.6,9.6,0,0,1-.5,2,12.21,12.21,0,0,1-1.66,3,8.65,8.65,0,0,1-2.16,2.28c-.09-.08.72-1,1.75-2.56A13.51,13.51,0,0,0,211,255.8a9.12,9.12,0,0,0,.43-1.87c.06-.64.16-1.43-.18-1.78a.41.41,0,0,0-.54-.12,1.79,1.79,0,0,0-.54.67,16.61,16.61,0,0,0-.85,1.76,16.07,16.07,0,0,0-.93,3.17C208.07,259.49,208.12,260.69,208,260.69Z"/><path class="cls-4" d="M208.11,260.28a5.66,5.66,0,0,1,2.72-.11,12.29,12.29,0,0,1,2.9.71,6.56,6.56,0,0,1,1.62.83,1.76,1.76,0,0,1,.71,2,2.08,2.08,0,0,1-1.67,1.3,3.79,3.79,0,0,1-1.86-.22,7.21,7.21,0,0,1-2.53-1.65,7.52,7.52,0,0,1-1.71-2.13,17.78,17.78,0,0,1,2,1.76,7.43,7.43,0,0,0,2.42,1.41,3.36,3.36,0,0,0,1.54.16,1.41,1.41,0,0,0,1.12-.87,1.07,1.07,0,0,0-.47-1.23,6.19,6.19,0,0,0-1.44-.76,14,14,0,0,0-2.73-.83C209.15,260.35,208.11,260.39,208.11,260.28Z"/><path class="cls-4" d="M192.93,267.86c-.2-.05.21-1.79-.37-3.84s-1.79-3.34-1.64-3.49,1.7,1,2.32,3.31S193.09,268,192.93,267.86Z"/><path class="cls-4" d="M221.63,273.24a8.46,8.46,0,0,1-1.69.56,35.42,35.42,0,0,1-4.79.88,66.54,66.54,0,0,1-16-.4c-6.2-.81-11.77-1.76-15.81-2.41l-4.77-.83a8.23,8.23,0,0,1-1.74-.4,8.44,8.44,0,0,1,1.78.13l4.81.61,15.82,2.21a74.58,74.58,0,0,0,15.87.6C219.16,273.85,221.6,273.1,221.63,273.24Z"/><path class="cls-4" d="M222.75,274.33a34.25,34.25,0,0,1-2.94-1.78,14.54,14.54,0,0,0-7.69-2.24c-3.18.1-5.65,1.94-7.27,3.22a23.54,23.54,0,0,1-2.68,2.16,13.57,13.57,0,0,1,2.36-2.54,17.1,17.1,0,0,1,3.06-2.24,10,10,0,0,1,4.5-1.3,13.84,13.84,0,0,1,8,2.52A11.06,11.06,0,0,1,222.75,274.33Z"/><path class="cls-8" d="M85.29,78.42a2.67,2.67,0,0,1,1.26-1.23l-1-2a5.82,5.82,0,0,1,.59-2c.49-.86,2.24-.79,2.24-.79l-.26-.58a2.51,2.51,0,0,1,.22-2.51,3.69,3.69,0,0,1,.25-.34,4.21,4.21,0,0,1,2.22-1.12s-1-1.92-.55-2.73a4.15,4.15,0,0,1,4.25-1.68,60.47,60.47,0,0,1,7.76,3.7,1.83,1.83,0,0,0,2.6-1A26.25,26.25,0,0,1,108.63,59c1.88-2.26,3.65-2.08,4.67-1.68a.84.84,0,0,1,.42,1.23,45.63,45.63,0,0,0-2.72,5c-.48,1.31-1,11.17-1,11.17l2.7,5.14L140,122.83s41.15-27.73,41-28.42l1.94,31.8-31,20.59a21.82,21.82,0,0,1-32.08-9.43L98.91,92.07l-2.53-3.7-9.83-6.3S84.94,79.25,85.29,78.42Z"/><path class="cls-9" d="M89.81,67.8A1.52,1.52,0,0,0,90,68l.59.48,2.2,1.7,3.28,2.51c.63.46,1.25,1,2,1.44a2.85,2.85,0,0,0,2.61.34,1.89,1.89,0,0,0,1-1,2.76,2.76,0,0,0,.23-1.32,3.72,3.72,0,0,0-1-2.24,15.94,15.94,0,0,0-1.64-1.5l-1.48-1.22-2.15-1.77c-.24-.19-.44-.34-.59-.47a1.48,1.48,0,0,0-.22-.15s.06.07.18.19l.57.51,2.1,1.82,1.46,1.25a15.78,15.78,0,0,1,1.6,1.5,3.57,3.57,0,0,1,1,2.1,2.06,2.06,0,0,1-1.06,2.07,2.15,2.15,0,0,1-1.23.12,3.45,3.45,0,0,1-1.15-.45c-.71-.43-1.34-1-2-1.41L92.91,70l-2.25-1.64L90,67.94A1.08,1.08,0,0,0,89.81,67.8Z"/><path class="cls-9" d="M87.63,72.43a2.79,2.79,0,0,0,.45.38c.31.23.75.55,1.31.94,1.12.78,2.69,1.82,4.48,2.87a12.48,12.48,0,0,0,1.34.73,2.88,2.88,0,0,0,1.43.27,2.23,2.23,0,0,0,1.85-1.48,2.2,2.2,0,0,0-.13-1.62,1.44,1.44,0,0,0-.25-.37A.84.84,0,0,0,98,74s.13.17.27.52a2.12,2.12,0,0,1,0,1.52,2,2,0,0,1-1.71,1.31,2.66,2.66,0,0,1-1.3-.26A13.3,13.3,0,0,1,94,76.41c-1.78-1.06-3.36-2.06-4.5-2.8l-1.35-.88A2.78,2.78,0,0,0,87.63,72.43Z"/><path class="cls-9" d="M86.36,77a2.55,2.55,0,0,0,.47.27l1.33.67c1.13.56,2.69,1.31,4.43,2.13a10.61,10.61,0,0,0,1.3.56,2.47,2.47,0,0,0,1.34.11,1.47,1.47,0,0,0,1-.72,1.61,1.61,0,0,0,.15-1.06,2.23,2.23,0,0,0-.78-1.29,1.65,1.65,0,0,0-.46-.31,4.63,4.63,0,0,0,.39.38,2.34,2.34,0,0,1,.68,1.25,1.55,1.55,0,0,1-.16.93,1.29,1.29,0,0,1-.88.6A2.37,2.37,0,0,1,94,80.35a13.57,13.57,0,0,1-1.26-.56l-4.47-2.06-1.36-.6A2.14,2.14,0,0,0,86.36,77Z"/><path class="cls-9" d="M85.65,81.14a10.44,10.44,0,0,0,1.56.41c1,.22,2.32.5,3.81.81l1.09.22a4.7,4.7,0,0,0,1,.12,1.5,1.5,0,0,0,.93-.33,1,1,0,0,0,.36-.8,1.44,1.44,0,0,0-.6-1,.74.74,0,0,0-.41-.18s.14.08.35.26a1.36,1.36,0,0,1,.48,1,.8.8,0,0,1-.31.63,1.29,1.29,0,0,1-.81.26,4.49,4.49,0,0,1-1-.13l-1.09-.23c-1.49-.3-2.84-.56-3.83-.74A10,10,0,0,0,85.65,81.14Z"/><path class="cls-9" d="M96.31,79.14a14.39,14.39,0,0,1,2.8-.28,13.66,13.66,0,0,1,2.76.55,5.19,5.19,0,0,0-2.75-.8A5.3,5.3,0,0,0,96.31,79.14Z"/><path class="cls-4" d="M243.25,69.71S257.09,58,253.88,50,241.8,38,237.43,23.35c-3.49-11.68-24.28-34.18-48.92-17.27,0,0-8.34-1.31-13.09,2.49S169.54,20,167.53,28.7c-3.11,13.49-4.81,23.86,1.2,30.45s8.2,8.38,7.88,15.88c-.42,9.79-4.74,8.48-1,15.62l20.67-6.74.21-5.69,2.1,5.35,12-4.32Z"/><path class="cls-4" d="M174.44,20.49c1.34,3.08.24,6.64-1,9.75s-2.75,6.41-2.1,9.72c1.14,5.85,8.4,9.11,9.21,15,.43,3.16-1.16,6.38-.55,9.52s3.14,5.32,5.82,6.84,5.67,2.54,8.2,4.32c0,0,5.56,4.56,15.13-3"/><path class="cls-8" d="M213.68,12.84a5.09,5.09,0,0,1,6,3.38h0l19.86,65.91c2.56,7.71-7.13,15.94-15.41,18.62h0c-8.35,2.71-10-1.26-12.7-8.52-4.44-12.12-6-16.7-6-16.63s-11.09,1.9-18-11c-3.45-6.42-7-17.69-9.58-27-2.33-8.38-.39-20.34,8.08-22.32Z"/><path class="cls-4" d="M184.87,44.48a1.85,1.85,0,0,0,2.3,1.18,1.77,1.77,0,0,0,1.26-2.21,1.84,1.84,0,0,0-2.3-1.18A1.77,1.77,0,0,0,184.87,44.48Z"/><path class="cls-2" d="M182.12,42.09c.3.15,1.29-1.29,3.17-1.94s3.6-.19,3.73-.49c.06-.14-.3-.48-1.06-.71a5.13,5.13,0,0,0-3.08.11,4.9,4.9,0,0,0-2.42,1.83C182,41.54,182,42,182.12,42.09Z"/><path class="cls-4" d="M203.58,38.5a1.85,1.85,0,0,0,2.31,1.18,1.77,1.77,0,0,0,1.26-2.2,1.87,1.87,0,0,0-2.31-1.19A1.78,1.78,0,0,0,203.58,38.5Z"/><path class="cls-2" d="M201,36.44c.3.15,1.29-1.29,3.17-1.94s3.6-.19,3.73-.49c.06-.14-.3-.48-1.06-.7a5,5,0,0,0-3.08.1,4.91,4.91,0,0,0-2.42,1.84C200.86,35.89,200.81,36.38,201,36.44Z"/><path class="cls-4" d="M199,52.82a13,13,0,0,0-3.26.51c-.5.12-1,.18-1.18-.12a2.54,2.54,0,0,1-.18-1.54c.05-1.33.1-2.71.15-4.17.16-5.91.1-10.7-.14-10.71s-.56,4.79-.72,10.7c0,1.45-.06,2.84-.08,4.17a2.91,2.91,0,0,0,.4,2,1.26,1.26,0,0,0,1,.43,3.27,3.27,0,0,0,.86-.17A13.06,13.06,0,0,0,199,52.82Z"/><path class="cls-9" d="M205.43,75.6A36.89,36.89,0,0,0,222,64.35s-1.35,11-15.48,14.48Z"/><path class="cls-9" d="M201.35,57.09a3.59,3.59,0,0,1,2.6-2.33,3.31,3.31,0,0,1,2.55.41,2.08,2.08,0,0,1,.93,2.2,2.42,2.42,0,0,1-2.26,1.48,7.58,7.58,0,0,1-2.91-.6,2.1,2.1,0,0,1-.73-.37.64.64,0,0,1-.24-.7"/><path class="cls-4" d="M199.54,31c.3.5,2.21-.13,4.56-.29s4.34.11,4.55-.43c.1-.25-.32-.69-1.17-1.07a7.65,7.65,0,0,0-3.54-.52,7.53,7.53,0,0,0-3.4,1.07C199.76,30.3,199.41,30.8,199.54,31Z"/><path class="cls-4" d="M179.4,35.83c.53.32,2-.58,3.9-1.14s3.61-.7,3.85-1.27c.1-.26-.28-.63-1.1-.84a6.37,6.37,0,0,0-3.38.18,6.29,6.29,0,0,0-2.86,1.75C179.26,35.15,179.16,35.66,179.4,35.83Z"/><path class="cls-4" d="M236.8,56.08q-5.6-18.7-11.17-37.4c-.77-2.56-1.65-5.29-3.78-6.9s-4.7-1.7-7.22-1.75a137.26,137.26,0,0,0-32.4,3.19c-.51,2.54,1.69,5,4.14,5.78s5.12.53,7.71.56,5.4.49,7.16,2.4,2,5.16,3.8,7.27c3,3.65,9.37,2.88,12.38,6.54,2.28,2.77,1.66,6.82,2.41,10.32.85,4,.85,4,4,9.81,1.91,3.59-2.89,10.43,1.89,19.3L235,72.56l-4.07-13.7,5.52,12.85Z"/><path class="cls-4" d="M204.57,52.59c-.2.11-.1.61-.08,1.33a4.88,4.88,0,0,1-2.35,4.48c-.6.4-1.06.6-1,.82s.57.41,1.47.2a4.39,4.39,0,0,0,3-5.74C205.23,52.82,204.74,52.48,204.57,52.59Z"/><path class="cls-4" d="M207.33,22.53a3.44,3.44,0,0,0,.51.29c.35.16.85.44,1.48.81A17.87,17.87,0,0,1,217.5,36a20.16,20.16,0,0,1,0,5.37,33.15,33.15,0,0,0-.35,5.88,10.64,10.64,0,0,0,.64,3,17.15,17.15,0,0,0,1.33,2.6,13.07,13.07,0,0,1,2.09,4.9,16.57,16.57,0,0,1-.12,4.84c-.21,1.53-.48,3-.59,4.27a11.39,11.39,0,0,0,.92,6.16,6.37,6.37,0,0,0,1,1.39,2.61,2.61,0,0,0,.45.38,9.22,9.22,0,0,1-1.26-1.86,11.52,11.52,0,0,1-.73-6c.12-1.29.41-2.7.65-4.24a17.39,17.39,0,0,0,.17-5c-.39-3.68-4-6.38-4-10.43a33.5,33.5,0,0,1,.34-5.78,20.67,20.67,0,0,0,0-5.5,17.62,17.62,0,0,0-3.8-8.42,16.68,16.68,0,0,0-4.76-4,13.09,13.09,0,0,0-1.53-.74A2.65,2.65,0,0,0,207.33,22.53Z"/><path class="cls-4" d="M162.51,78.76s.05,0,.17.14a3.69,3.69,0,0,0,.53.35,8.2,8.2,0,0,0,2.27.93,9.39,9.39,0,0,0,3.88.14A8.61,8.61,0,0,0,174,78a9.35,9.35,0,0,0,2.76-5.57,8.76,8.76,0,0,0-.23-3.51,10.63,10.63,0,0,0-1.65-3.34A42.56,42.56,0,0,0,169.31,60a21.56,21.56,0,0,1-2.72-3.07,14.82,14.82,0,0,1-1.86-3.76,24.17,24.17,0,0,1-1-8.25,58,58,0,0,1,.81-7.79,74.12,74.12,0,0,1,3.33-12.84A77.7,77.7,0,0,1,171.33,16c.47-.95.85-1.68,1.11-2.17a4.93,4.93,0,0,0,.36-.77,5,5,0,0,0-.45.72c-.3.47-.7,1.19-1.2,2.13a67.4,67.4,0,0,0-3.67,8.21A70.7,70.7,0,0,0,164,37a56.82,56.82,0,0,0-.85,7.85,24.36,24.36,0,0,0,1.07,8.43,15.19,15.19,0,0,0,1.93,3.89A21.15,21.15,0,0,0,169,60.34a44.1,44.1,0,0,1,5.49,5.55,10.13,10.13,0,0,1,1.6,3.18,8.45,8.45,0,0,1,.24,3.34,9.09,9.09,0,0,1-2.58,5.36,8.5,8.5,0,0,1-4.4,2.27,9.25,9.25,0,0,1-3.78-.06A10.93,10.93,0,0,1,162.51,78.76Z"/><path d="M247.58,65.2a8.71,8.71,0,0,1-3.22-1.6A12.84,12.84,0,0,1,240.1,55a48.66,48.66,0,0,1-.17-6.83,29.76,29.76,0,0,0-.62-7.9,14.41,14.41,0,0,0-1.61-4A9.56,9.56,0,0,0,234.55,33c-2.72-1.66-6-1.58-9-2.62a9.49,9.49,0,0,1-3.83-2.5A23.4,23.4,0,0,1,219,24.26c-1.6-2.52-3.13-5.17-5.57-6.73a9.61,9.61,0,0,0-3.87-1.41,21.11,21.11,0,0,0-3.86-.16,39.39,39.39,0,0,1-6.82-.06,20.37,20.37,0,0,1-9.08-3.62,25.69,25.69,0,0,1-2.09-1.7l-.51-.49L187,9.94a14.35,14.35,0,0,0,2.66,2.5,20.19,20.19,0,0,0,9.14,3.83,40,40,0,0,0,6.89.12c2.42-.05,5.17,0,7.46,1.55s3.8,4.06,5.4,6.6a24.17,24.17,0,0,0,2.76,3.74,10.11,10.11,0,0,0,4,2.64c3.08,1.06,6.35,1,8.89,2.55a11,11,0,0,1,4.57,6.93,29.87,29.87,0,0,1,.65,7.77,47.53,47.53,0,0,0,.24,6.88,12.85,12.85,0,0,0,4.5,8.71A7.39,7.39,0,0,0,246.65,65a5.63,5.63,0,0,0,.69.16A.71.71,0,0,0,247.58,65.2Z"/><path d="M237.56,23.77a11,11,0,0,1-2,.54,9.8,9.8,0,0,1-5.39-.89,22.76,22.76,0,0,1-6.47-5.09c-1.1-1.12-2.24-2.32-3.55-3.45a16.53,16.53,0,0,0-4.5-2.89,14.67,14.67,0,0,0-5.27-1,43.35,43.35,0,0,0-5,.27c-1.56.15-3,.3-4.43.32a19.14,19.14,0,0,1-3.83-.32,10.46,10.46,0,0,1-5-2.21,15.68,15.68,0,0,1-1.42-1.48,2.59,2.59,0,0,0,.27.47,4.32,4.32,0,0,0,.4.52,5.06,5.06,0,0,0,.61.64,10.4,10.4,0,0,0,5.09,2.43,19.62,19.62,0,0,0,3.9.38c1.42,0,2.91-.14,4.47-.27a43.23,43.23,0,0,1,4.9-.24,14.09,14.09,0,0,1,5.08.94c3.32,1.37,5.7,4,7.91,6.19A22.21,22.21,0,0,0,230,23.75a9.66,9.66,0,0,0,5.58.76,6.35,6.35,0,0,0,1.47-.47C237.41,23.88,237.57,23.79,237.56,23.77Z"/><path d="M165.2,51.82a8.8,8.8,0,0,1-.49-1.91,8.29,8.29,0,0,1,1.43-5c1.15-2,3.3-3.68,5.48-5.81a14.51,14.51,0,0,0,2.91-3.84,13.54,13.54,0,0,0,1.24-5c.23-3.55-.37-6.87-.29-9.88a11.82,11.82,0,0,1,2.2-7.46A7.4,7.4,0,0,1,182.07,10a8.66,8.66,0,0,1,2,0,1.58,1.58,0,0,0-.5-.14,5.42,5.42,0,0,0-1.49,0,7.48,7.48,0,0,0-4.65,2.79c-1.56,1.79-2.35,4.63-2.39,7.68s.48,6.39.25,9.85A12.91,12.91,0,0,1,174.07,35a14.11,14.11,0,0,1-2.79,3.73c-2.12,2.12-4.3,3.9-5.46,6a8.28,8.28,0,0,0-1.31,5.27,5.16,5.16,0,0,0,.42,1.43A4.1,4.1,0,0,0,165.2,51.82Z"/><path class="cls-4" d="M253.7,57.81a5,5,0,0,0,.64-.35,7.74,7.74,0,0,0,1.56-1.4,9.09,9.09,0,0,0,1.92-7.3,8.75,8.75,0,0,0-.86-2.45,9.47,9.47,0,0,0-1.76-2.18,22.22,22.22,0,0,0-5.2-3.2,20.61,20.61,0,0,1-5.56-3.54,13.09,13.09,0,0,1-3.14-6.23c-.61-2.37-1-4.76-1.8-7a30.05,30.05,0,0,0-2.9-6.09A31.3,31.3,0,0,0,229,9.64a29,29,0,0,0-6.61-3.88A19.38,19.38,0,0,0,220.43,5a3.57,3.57,0,0,0-.7-.2c0,.06.93.36,2.57,1.11a31.31,31.31,0,0,1,6.47,4,31.92,31.92,0,0,1,7.42,8.41,30.42,30.42,0,0,1,2.83,6c.75,2.18,1.16,4.55,1.77,7a13.66,13.66,0,0,0,3.29,6.45,20.66,20.66,0,0,0,5.71,3.61,22.39,22.39,0,0,1,5.12,3.09,8.84,8.84,0,0,1,1.7,2.06,8.4,8.4,0,0,1,.85,2.31,9.36,9.36,0,0,1-.24,4.24,8.47,8.47,0,0,1-1.48,2.87A10.34,10.34,0,0,1,253.7,57.81Z"/><path class="cls-4" d="M162.39,52.75s-.43-.48-1.07-1.43a12,12,0,0,1-1.77-4.43,16.63,16.63,0,0,1,.25-7.06,28.14,28.14,0,0,1,3.58-7.95c1.65-2.65,3.42-5.05,4.92-7.32a41.41,41.41,0,0,0,3.54-6.32,20.72,20.72,0,0,0,1.44-4.67,12.52,12.52,0,0,0,.17-1.32,1.35,1.35,0,0,0,0-.46s-.11.63-.37,1.74a23.51,23.51,0,0,1-1.58,4.56,44.52,44.52,0,0,1-3.6,6.2c-1.51,2.25-3.3,4.64-5,7.32a27.82,27.82,0,0,0-3.61,8.11,16.55,16.55,0,0,0-.14,7.25,11.66,11.66,0,0,0,2,4.47,7.79,7.79,0,0,0,.88,1A2.19,2.19,0,0,0,162.39,52.75Z"/><path class="cls-4" d="M266.25,192.15l8.22,14.29s40.81-14.93,64.7-10.58c9.08,1.65,18.8,22.26,5.57,35.5-12.91,12.91-36,31.16-79.33,37.07-1.09.15-18.83,4-17.74,3.83s-24.88,4-24.88,4l-6.1-23.05-48.39,7.59c-28.51-1.95-42.47-32.44-25.3-42.26,16-9.16,46.15-9.89,46.15-9.89l10.92-17.12Z"/><path d="M221.83,277.08c-.13-.78-.47-2.88-1.18-7.19-.38-2.3-.86-5.1-1.47-8.33q-.45-2.42-1.06-5.13c-.2-.91-.43-1.83-.69-2.78-.14-.47-.28-.94-.45-1.42a4.18,4.18,0,0,0-.73-1.42l-.08.35c10.31-3.66,23.18-8.49,36.91-14.28,8.43-3.59,16.4-7.21,23.4-11a76.38,76.38,0,0,0,9.6-5.95c2.85-2.1,5.38-4.2,7.76-6,4.71-3.72,9-6.12,12.17-7.14a20.79,20.79,0,0,1,2.14-.63,12.51,12.51,0,0,1,1.59-.34l1-.18a2.25,2.25,0,0,0,.33-.08l-.34,0-1,.13a12.1,12.1,0,0,0-1.61.3,17.93,17.93,0,0,0-2.16.59,29,29,0,0,0-5.6,2.49,59.08,59.08,0,0,0-6.73,4.54c-2.4,1.82-4.95,3.9-7.79,6a75.92,75.92,0,0,1-9.58,5.88c-7,3.74-14.95,7.35-23.38,10.93-13.71,5.78-26.56,10.65-36.83,14.36l-.29.11.21.24a4.15,4.15,0,0,1,.64,1.26c.17.46.31.93.45,1.39.26.93.49,1.85.7,2.75.42,1.8.78,3.51,1.1,5.12.64,3.21,1.15,6,1.57,8.3l1,5.3c.12.61.22,1.07.3,1.39A3.39,3.39,0,0,0,221.83,277.08Z"/><path d="M152.39,221.3l.26,0,.75-.12c.67-.09,1.63-.34,2.9-.46a56.23,56.23,0,0,1,10.73-.38,79.82,79.82,0,0,1,15.71,2.59c2.9.78,5.92,1.7,9,2.77s6.24,2.3,9.47,3.59a89.24,89.24,0,0,0,9.66,3.18c3.16.88,6.26,1.56,9.22,2.13,5.92,1.16,11.3,1.87,15.83,2.42s8.18.92,10.72,1.18l2.92.29.76.06h.26l-.26-.05-.75-.12-2.91-.38L236,236.63c-4.51-.59-9.88-1.34-15.78-2.52-2.95-.58-6-1.27-9.18-2.15a87.47,87.47,0,0,1-9.59-3.18c-3.23-1.28-6.4-2.52-9.5-3.59s-6.14-2-9.06-2.74A77.93,77.93,0,0,0,167.05,220a52.84,52.84,0,0,0-10.78.54c-1.27.16-2.23.44-2.89.56l-.74.17Z"/><path class="cls-4" d="M226.94,213c0,.34,2.17.89,5.79,1.23a74.45,74.45,0,0,0,14.2-.18,73.06,73.06,0,0,0,13.92-2.84c3.47-1.1,5.5-2.1,5.4-2.43-.23-.73-8.8,1.55-19.59,2.68S227,212.24,226.94,213Z"/><path d="M188.69,209a11,11,0,0,0,1.6.42c.52.11,1.14.27,1.86.49s1.56.43,2.45.75a60.77,60.77,0,0,1,6.18,2.45c2.26,1.07,4.7,2.36,7.18,3.84a113.78,113.78,0,0,1,12.12,8.52c1.48,1.18,2.66,2.16,3.48,2.84a10.77,10.77,0,0,0,1.3,1,9,9,0,0,0-1.17-1.17c-.77-.73-1.92-1.75-3.38-3a98.12,98.12,0,0,0-12.08-8.68,76.78,76.78,0,0,0-7.25-3.82,53.42,53.42,0,0,0-6.27-2.37c-.91-.3-1.75-.5-2.48-.68a16.82,16.82,0,0,0-1.9-.4A9.73,9.73,0,0,0,188.69,209Z"/><path d="M234.06,229.29a11.68,11.68,0,0,0,2.86-.82,59.88,59.88,0,0,0,6.55-2.95l6.35-3.33a22.47,22.47,0,0,0,2.61-1.42,13.84,13.84,0,0,0-2.77,1.09c-1.68.76-3.94,1.92-6.42,3.19s-4.77,2.37-6.45,3.08A29,29,0,0,0,234.06,229.29Z"/><path d="M229.64,193.85c-.08,0,.06,1.5.21,3.91s.29,5.74.22,9.42-.33,7-.58,9.42-.44,3.88-.36,3.9a5.08,5.08,0,0,0,.26-1c.13-.66.3-1.63.47-2.83a81.58,81.58,0,0,0,.36-18.91c-.12-1.21-.25-2.18-.36-2.85A3.87,3.87,0,0,0,229.64,193.85Z"/><path d="M225.1,195.33s.17.16.42.46a2.76,2.76,0,0,1,.64,1.47,2.72,2.72,0,0,1-.62,2.19,2.58,2.58,0,0,1-4.27-1.58,2.73,2.73,0,0,1,.95-2.07,2.85,2.85,0,0,1,1.45-.7c.38-.06.61,0,.61-.07s-.2-.13-.63-.14a2.82,2.82,0,0,0-1.67.63,3.05,3.05,0,0,0-1.19,2.36,3,3,0,0,0,5.1,1.89,3.07,3.07,0,0,0,.64-2.57,2.82,2.82,0,0,0-.86-1.56C225.34,195.37,225.11,195.31,225.1,195.33Z"/><path class="cls-4" d="M212.68,178.86a6.39,6.39,0,0,0,.77,1,29.18,29.18,0,0,0,2.41,2.54,37.45,37.45,0,0,0,4,3.31A42.55,42.55,0,0,0,225.3,189a43.36,43.36,0,0,0,5.91,2.37,37.92,37.92,0,0,0,5,1.2,31.2,31.2,0,0,0,3.48.39,6.62,6.62,0,0,0,1.28,0c0-.1-1.82-.2-4.69-.76a44.78,44.78,0,0,1-5-1.3,42.87,42.87,0,0,1-11.22-5.59,44.86,44.86,0,0,1-4-3.19C213.93,180.19,212.75,178.79,212.68,178.86Z"/><path class="cls-4" d="M194.42,190c0,.15,1.8.15,3.93.69s3.72,1.34,3.79,1.21a7.92,7.92,0,0,0-3.67-1.72A7.82,7.82,0,0,0,194.42,190Z"/><g class="cls-1"><path d="M236.39,192.46a38.33,38.33,0,0,1-22.29-12.88,9.06,9.06,0,0,0,2.19,9.18c-2.54,1.2-5.51.4-8.3,0s-6.18,0-7.51,2.47a294.16,294.16,0,0,0,37.43,1.07"/></g><path class="cls-4" d="M261.22,172.86a14,14,0,0,1,4.32-2.79,13.77,13.77,0,0,1,5.46-.93,15.1,15.1,0,0,1,6.54,1.75c4.36,2.27,6.94,6.13,8.92,8.6a28.62,28.62,0,0,1,2,3.25,9.13,9.13,0,0,0,.69,1.23,6.21,6.21,0,0,0-.51-1.31,21.5,21.5,0,0,0-1.84-3.38,56.27,56.27,0,0,0-3.51-4.48,19.34,19.34,0,0,0-5.47-4.37,15.12,15.12,0,0,0-6.77-1.77,13.62,13.62,0,0,0-5.61,1.07,10.91,10.91,0,0,0-3.25,2.07,7.42,7.42,0,0,0-.72.76A1.23,1.23,0,0,0,261.22,172.86Z"/><polygon class="cls-8" points="235.04 76.94 249.01 79.91 242.02 106.04 217.31 111.35 200.35 99.31 198.02 84.91 212.56 79.41 235.04 76.94"/><path class="cls-10" d="M244.87,78.84s-9.44,27.44-26.91,24.9-16-20.32-16-20.32S183.74,89,178.1,94.89s-2.33,18.76-2.33,18.76l4.73,23.22,10.28,44.48s-3.93,12.13,6.11,15.13l3.18-5,60.26,1.7s12.89,14.86,16.91,9.74,7.89-15.12,7.89-15.12L257.46,82.11Z"/><path class="cls-10" d="M182.88,91.38c-.49.28-42.8,31-42.8,31s3.32,25.28-17,21.25c0,0,8.2,21.15,19.3,16.71,3.16-1.26,42.15-25.93,42.15-25.93l8.28-17.65Z"/><path class="cls-10" d="M244.87,80.19s1,0,2.57.18c8.28.8,38.85,7.13,41.67,28.69,1.48,11.29,1.91,44.28,3.51,58.1,0,0-2.56,19.23-3.51,22.79-1.69,6.34-32.34-3.81-32.34-3.81l-.07-61L245.83,80.22"/><path class="cls-4" d="M264.21,135.61a1.91,1.91,0,0,0,0,.49,12.66,12.66,0,0,1-.09,1.42,21,21,0,0,1-1.29,5c-.79,2.06-2,4.4-3.17,7.08A33.29,33.29,0,0,0,258,154a26,26,0,0,0-.82,4.9,59.28,59.28,0,0,0,.24,9.54c.25,2.92.5,5.55.86,7.74a32.09,32.09,0,0,0,1.21,5.11c.19.59.36,1,.49,1.34a2.69,2.69,0,0,0,.22.45s-.19-.66-.52-1.85a40.61,40.61,0,0,1-1-5.11c-.31-2.18-.52-4.8-.74-7.72a61.06,61.06,0,0,1-.2-9.46,25.46,25.46,0,0,1,.8-4.8,32.64,32.64,0,0,1,1.54-4.28c1.16-2.67,2.32-5.05,3.07-7.14a19.06,19.06,0,0,0,1.15-5.14,9.53,9.53,0,0,0,0-1.43A1.61,1.61,0,0,0,264.21,135.61Z"/><path class="cls-4" d="M262.83,127.91c-.08,0-.16,1.55-.51,4a52.62,52.62,0,0,1-2.23,9.5c-.31.9-.62,1.78-1,2.62a3.11,3.11,0,0,1-.25.57l-.36.55c-.23.37-.45.75-.64,1.13a9.47,9.47,0,0,0-1.13,4.32,7.68,7.68,0,0,0,.6,3,4.14,4.14,0,0,0,.55.95,10.5,10.5,0,0,1-.78-3.9,9.43,9.43,0,0,1,1.19-4.11,12.07,12.07,0,0,1,.63-1.08l.37-.55a6,6,0,0,0,.3-.65c.34-.84.66-1.73,1-2.64a45,45,0,0,0,2.1-9.62c.13-1.26.17-2.28.19-3A4.32,4.32,0,0,0,262.83,127.91Z"/><path class="cls-4" d="M261.59,118.75c.08,0,.53-1.25,1.44-3.22a45.27,45.27,0,0,1,4.23-7.34,44.69,44.69,0,0,1,5.55-6.39c1.57-1.51,2.62-2.35,2.57-2.42a3.45,3.45,0,0,0-.8.51,25.81,25.81,0,0,0-2,1.63,38.39,38.39,0,0,0-5.73,6.37,37.78,37.78,0,0,0-4.14,7.49,23.75,23.75,0,0,0-.88,2.44A2.92,2.92,0,0,0,261.59,118.75Z"/><path class="cls-4" d="M174.91,100.83a12.81,12.81,0,0,0,.21,2.42c.18,1.49.43,3.54.67,5.81s.41,4.33.54,5.83a12.5,12.5,0,0,0,.3,2.41,10.17,10.17,0,0,0,.07-2.43c0-1.51-.15-3.58-.39-5.86s-.55-4.34-.83-5.81A10.18,10.18,0,0,0,174.91,100.83Z"/><path class="cls-4" d="M166.22,126.5c0,.1,1.32.23,3.37.81a16,16,0,0,1,7,4.13,19.47,19.47,0,0,1,2.69,3.66,28.22,28.22,0,0,1,1.55,3.4l.49,1.36c.11.37.22.72.31,1a3,3,0,0,0,.34.88,3.7,3.7,0,0,0-.14-.93c-.07-.33-.15-.69-.23-1.08l-.42-1.39a23.3,23.3,0,0,0-1.48-3.51,18.77,18.77,0,0,0-2.73-3.79,15.12,15.12,0,0,0-7.33-4.12,11.87,11.87,0,0,0-1.43-.3,8.8,8.8,0,0,0-1.09-.13A3.73,3.73,0,0,0,166.22,126.5Z"/><path class="cls-4" d="M138.2,154.34a6.31,6.31,0,0,0,.68-1.12,14.38,14.38,0,0,0,.69-1.37c.25-.54.56-1.16.82-1.87a38.35,38.35,0,0,0,1.61-5,42.27,42.27,0,0,0,1-6.42,43.19,43.19,0,0,0-.11-6.49,35.87,35.87,0,0,0-.93-5.22c-.16-.74-.38-1.39-.55-2s-.35-1.06-.5-1.45a5.48,5.48,0,0,0-.53-1.2c-.09,0,.58,1.77,1.23,4.69a42.5,42.5,0,0,1,.8,5.18,45.29,45.29,0,0,1,.07,6.42,44.43,44.43,0,0,1-.93,6.34,40.22,40.22,0,0,1-1.49,5C139,152.66,138.11,154.3,138.2,154.34Z"/><path class="cls-4" d="M149.2,146.82a4.6,4.6,0,0,0,.39-1.06,19.78,19.78,0,0,0,.63-3,24,24,0,0,0-.94-10.16,23,23,0,0,0-5.12-8.83,4.36,4.36,0,0,0-2.74-1.48,2.14,2.14,0,0,0-.86.16q-.26.15-.24.18a2.93,2.93,0,0,1,1.08-.14,4.43,4.43,0,0,1,2.5,1.53,24.33,24.33,0,0,1,4.88,8.74,25.27,25.27,0,0,1,1.07,10C149.6,145.25,149.1,146.8,149.2,146.82Z"/><path class="cls-4" d="M218,141.85a6.06,6.06,0,0,0,.25,1.18,12.17,12.17,0,0,0,.41,1.37c.19.52.37,1.13.66,1.76a28,28,0,0,0,2.29,4.34,29.73,29.73,0,0,0,8.36,8.56,28.27,28.27,0,0,0,4.3,2.39c.62.31,1.23.5,1.74.7a11.48,11.48,0,0,0,1.35.44,6.42,6.42,0,0,0,1.18.28c0-.1-1.63-.56-4.12-1.76a30.6,30.6,0,0,1-4.17-2.44,31.57,31.57,0,0,1-8.24-8.43,31.78,31.78,0,0,1-2.35-4.23C218.48,143.5,218.06,141.82,218,141.85Z"/><g class="cls-11"><path d="M252.6,151.75l5.76-21c.28-1,.75-2.23,1.79-2.42A2,2,0,0,1,262.2,130a11.35,11.35,0,0,1,.05,3.08c-.45,4.57-.81,7.67-2.94,11.21-4.14,6.9-1.41,10.25-1.41,10.25-.33,8.4.38,19.86,3,28.49l-2.46,10.41c-2.35-7.74-7.7-14.19-8.6-22.23C249.1,164.66,250.85,158.11,252.6,151.75Z"/></g><g class="cls-11"><path d="M180.51,137c-6.85,3.56-12.94,8.48-19.62,12.29,2.62-5.45,7-10.84,12.29-13.73a7.77,7.77,0,0,1,4.64-1.23c1.61.23,2.77,1.14,2.53,2.75"/></g><g class="cls-11"><path d="M141.25,121.94c2.34-.06,4.11,2.07,5.25,4.11a31.54,31.54,0,0,1,3.78,19.08c-.14,1.18-.58,2.6-1.74,2.83a2,2,0,0,1-2.07-1.23,5.59,5.59,0,0,1-.39-2.54c0-4,.27-8-.3-12s-2.07-8-5-10.66"/></g><g class="cls-11"><path d="M237.71,162.94a8.38,8.38,0,0,1-5.27,1.28,17,17,0,0,1-5.31-1.39,16,16,0,0,1-6-4,14,14,0,0,1-3.06-7.09,41.44,41.44,0,0,1-.25-7.8.64.64,0,0,1,.07-.33.41.41,0,0,1,.57,0,1.23,1.23,0,0,1,.3.55A29,29,0,0,0,238,162.4"/></g><path class="cls-8" d="M243.91,246.7,250,235.24l13.74-64.31s12.64-7.26,23,8.65c.42.64-14.23,46.7-18.32,59.51l-.58,12.26s.73,14.5,0,15.77a5.81,5.81,0,0,1-2.54,2s.55,3.63-3.62,4c0,0-.37,4-3.45,3.44a5.9,5.9,0,0,1-4.17-2.53s0,5.07-2.72,4.53-3.16-2.72-3.67-3.45-1.07-8.16-1.07-8.16l0-12.28-7.08,5.73c-2,1-5,2.29-6.74.76Z"/><path class="cls-9" d="M246.64,254.05a22.92,22.92,0,0,0-.4,6.62c.08,1.7.16,3.25.23,4.67a8.67,8.67,0,0,0,.17,1.93c.17,0,.3-3,.12-6.62S246.78,254.07,246.64,254.05Z"/><path class="cls-9" d="M254.44,262.6a37,37,0,0,0-.34,6.08,36.68,36.68,0,0,0,.18,6.08,35.69,35.69,0,0,0,.34-6.07A34.47,34.47,0,0,0,254.44,262.6Z"/><path class="cls-9" d="M261,264.83a11.22,11.22,0,0,0-.15,4.26,11.52,11.52,0,0,0,1,4.15,36.43,36.43,0,0,0-.43-4.2A37.75,37.75,0,0,0,261,264.83Z"/><path class="cls-9" d="M265.2,263.42a7.26,7.26,0,0,0,0,2.76,7.61,7.61,0,0,0,.53,2.71,14.59,14.59,0,0,0-.54-5.47Z"/></g></g></svg>