<svg xmlns="http://www.w3.org/2000/svg" viewBox="0 0 170 170"><defs><style>.cls-1{fill:#fff;}.cls-2{fill:#4d148c;}.cls-3{fill:#ff6200;}</style></defs><g id="Layer_2" data-name="Layer 2"><g id="Info"><circle class="cls-1" cx="85" cy="85" r="85"/><path class="cls-2" d="M87.42,52.18V75.74h-.15c-3-3.43-6.71-4.63-11-4.63-8.86,0-15.53,6-17.88,14a29.39,29.39,0,0,0-.75,9c1.16,9.53,8.59,17.75,18.78,17.75A13.07,13.07,0,0,0,87.27,106h.14v3.73h13.48V52.18ZM79.24,101c-5,0-8.06-4.63-8.06-9.46,0-5.17,2.69-10.13,8.06-10.13,5.57,0,7.79,5,7.79,10.13C87,96.41,84.68,101,79.24,101Z"/><polygon class="cls-2" points="58.39 85.55 60.3 85.55 60.3 80.74 60.3 73.2 43.15 73.2 43.15 65.01 61.87 65.01 61.87 52.18 27.86 52.18 27.86 109.74 43.15 109.74 43.15 85.55 51.81 85.55 58.39 85.55"/><polygon class="cls-3" points="125.44 100.79 133.41 109.74 150.64 109.74 134.24 91.4 150.41 73.2 133.86 73.2 126.11 82.08 118.05 73.2 100.89 73.2 117.15 91.47 100.89 109.74 117.53 109.74 125.44 100.79"/></g></g></svg>