<svg xmlns="http://www.w3.org/2000/svg" viewBox="0 0 866.99 282.22"><defs><style>.cls-1{font-size:88px;font-family:Poppins;}.cls-1,.cls-22{fill:#cce6f2;}.cls-2{letter-spacing:-0.07em;}.cls-3{letter-spacing:-0.02em;}.cls-4{letter-spacing:-0.02em;}.cls-5{letter-spacing:-0.01em;}.cls-6{letter-spacing:-0.02em;}.cls-7{letter-spacing:-0.02em;}.cls-8{letter-spacing:-0.03em;}.cls-9{letter-spacing:-0.02em;}.cls-10{letter-spacing:0em;}.cls-11{letter-spacing:-0.02em;}.cls-12{letter-spacing:-0.02em;}.cls-13{letter-spacing:-0.02em;}.cls-14{letter-spacing:-0.07em;}.cls-15{fill:#0060ac;}.cls-16,.cls-19{fill:#db9500;}.cls-17{fill:#071d31;}.cls-18{fill:#fff;}.cls-19{stroke:#fff;stroke-miterlimit:10;}.cls-20{fill:#018cbe;}.cls-21{opacity:0.3;}</style></defs><g id="Layer_2" data-name="Layer 2"><g id="Info"><text class="cls-1" transform="translate(0 155.91)"><tspan class="cls-2">¿</tspan><tspan class="cls-3" x="51.16" y="0">N</tspan><tspan class="cls-4" x="118.23" y="0">e</tspan><tspan class="cls-5" x="172.39" y="0">c</tspan><tspan class="cls-6" x="224.17" y="0">e</tspan><tspan class="cls-7" x="278.24" y="0">s</tspan><tspan class="cls-8" x="325.1" y="0">i</tspan><tspan class="cls-9" x="351.01" y="0">t</tspan><tspan class="cls-6" x="385.53" y="0">a</tspan><tspan class="cls-10" x="445.41" y="0">s </tspan><tspan class="cls-11" x="520.65" y="0">a</tspan><tspan class="cls-12" x="580.13" y="0">y</tspan><tspan class="cls-13" x="634.84" y="0">ud</tspan><tspan class="cls-14" x="754.35" y="0">a</tspan><tspan x="809.71" y="0">?</tspan></text><path class="cls-15" d="M381.34,151.83l-34.14-3.57-14.4-32.78-11.22,2.93s8.29,34.64,17.56,40,41,6.34,41,6.34Z"/><circle class="cls-16" cx="388.17" cy="158.42" r="15.12" transform="translate(11.89 343.32) rotate(-48.37)"/><path class="cls-16" d="M388.17,173.56a15.14,15.14,0,1,1,10.71-4.44A15,15,0,0,1,388.17,173.56Zm0-30.25a15.11,15.11,0,1,0,10.68,4.43A15,15,0,0,0,388.17,143.31Z"/><circle class="cls-16" cx="341.53" cy="149.99" r="11.34" transform="translate(-25.58 83.86) rotate(-13.5)"/><circle class="cls-16" cx="326.37" cy="111.59" r="9.27" transform="translate(16.68 263.46) rotate(-45)"/><path class="cls-16" d="M332.4,105.39h10a0,0,0,0,1,0,0v4.26a0,0,0,0,1,0,0h-10a2,2,0,0,1-2-2v-.29a2,2,0,0,1,2-2Z" transform="matrix(-0.76, 0.65, -0.65, -0.76, 662.77, -27.37)"/><path class="cls-16" d="M325,96.63h9.69a.29.29,0,0,1,.29.29v3.69a.29.29,0,0,1-.29.29H325a2,2,0,0,1-2-2v-.29A2,2,0,0,1,325,96.63Z" transform="translate(427.75 -230.23) rotate(90)"/><path class="cls-16" d="M319,97h9.69a.29.29,0,0,1,.29.29V101a.29.29,0,0,1-.29.29H319a2,2,0,0,1-2-2V99a2,2,0,0,1,2-2Z" transform="translate(349.29 -237.73) rotate(77.39)"/><path class="cls-16" d="M313,99.56h9.69a.29.29,0,0,1,.29.29v3.69a.29.29,0,0,1-.29.29H313a2,2,0,0,1-2-2v-.29a2,2,0,0,1,2-2Z" transform="matrix(0.5, 0.87, -0.87, 0.5, 246.57, -223.69)"/><rect class="cls-15" x="514.38" y="162.3" width="11.09" height="75.25" transform="translate(1076.61 180.41) rotate(156.96)"/><circle class="cls-16" cx="500.22" cy="159.99" r="15.12" transform="translate(54.79 438.22) rotate(-49.73)"/><path class="cls-16" d="M500.24,175.15a15.31,15.31,0,0,1-4.48-.68,15,15,0,1,1,4.48.68Zm0-30.27a15.13,15.13,0,0,0-14.41,10.66,15.1,15.1,0,1,0,28.86,8.91h0a15.11,15.11,0,0,0-10-18.89A15.25,15.25,0,0,0,500.2,144.88Z"/><circle class="cls-16" cx="519.92" cy="202.16" r="11.34" transform="translate(185.93 648.96) rotate(-74.47)"/><circle class="cls-16" cx="537.01" cy="237.45" r="9.27"/><path class="cls-16" d="M524.8,242.35h10a0,0,0,0,1,0,0v4.26a0,0,0,0,1,0,0h-10a2,2,0,0,1-2-2v-.29A2,2,0,0,1,524.8,242.35Z" transform="translate(44.84 568.8) rotate(-58.64)"/><path class="cls-16" d="M534.6,248.32h9.69a.29.29,0,0,1,.29.29v3.69a.29.29,0,0,1-.29.29H534.6a2,2,0,0,1-2-2v-.29A2,2,0,0,1,534.6,248.32Z" transform="translate(471.55 840.63) rotate(-108.46)"/><path class="cls-16" d="M540.11,246.05h9.69a.29.29,0,0,1,.29.29V250a.29.29,0,0,1-.29.29h-9.69a2,2,0,0,1-2-2V248a2,2,0,0,1,2-2Z" transform="translate(612.32 842.31) rotate(-121.07)"/><path class="cls-16" d="M545,241.74h9.69a.29.29,0,0,1,.29.29v3.69a.29.29,0,0,1-.29.29H545a2,2,0,0,1-2-2v-.29A2,2,0,0,1,545,241.74Z" transform="translate(798.24 790.5) rotate(-138.46)"/><path class="cls-15" d="M383.64,142.69s1.09,106.16,60.67,108.24,62.08-107.48,62.08-108.24c0,0-7-15.84-61.37-15.22S383.64,142.69,383.64,142.69Z"/><rect class="cls-16" x="411.17" y="111.22" width="62.26" height="12.77" rx="5.95" transform="translate(884.6 235.21) rotate(180)"/><rect class="cls-15" x="440.14" y="7.6" width="4.35" height="21.98" transform="translate(884.62 37.19) rotate(180)"/><circle class="cls-16" cx="505.84" cy="82.57" r="12.77" transform="translate(-5.38 119.25) rotate(-13.37)"/><circle class="cls-16" cx="376.87" cy="81.73" r="12.77" transform="translate(-8.74 85.39) rotate(-12.78)"/><path class="cls-15" d="M439.77,24.82s-51.94-.62-60.16,44.37S415.31,115,428,115.87c5.73.38,18,.42,28.8.24,23.94-.42,40.86-5,46.62-27.27a42.4,42.4,0,0,0,1.29-8C506.18,56.54,489.7,23.62,439.77,24.82Z"/><path class="cls-17" d="M477.46,93.34,402,94.52a14.31,14.31,0,0,1-14.54-14.1h0a14.31,14.31,0,0,1,14.1-14.54L477,64.7a14.32,14.32,0,0,1,14.54,14.1h0A14.31,14.31,0,0,1,477.46,93.34Z"/><path class="cls-18" d="M417.65,78.86A4.6,4.6,0,1,1,414,73.47,4.6,4.6,0,0,1,417.65,78.86Z"/><path class="cls-18" d="M470.37,78a4.6,4.6,0,1,1-3.63-5.39A4.6,4.6,0,0,1,470.37,78Z"/><path class="cls-19" d="M462.79,184.85a20.54,20.54,0,1,1-19-22A20.55,20.55,0,0,1,462.79,184.85Z"/><path class="cls-18" d="M457.23,184.44a15,15,0,1,1-13.84-16A15,15,0,0,1,457.23,184.44Z"/><path class="cls-15" d="M445.82,186.34l4.44.79a8.7,8.7,0,0,1-8.34,5.91c-3.3,0-5.56-1.19-7-3.3a9.51,9.51,0,0,1-1.36-6.29,10.54,10.54,0,0,1,3.13-7.06,8.68,8.68,0,0,1,6.29-2.73,7.7,7.7,0,0,1,6.38,2.79c1.48,1.82,1.9,4.56,1.56,7.9H439c-.26,1.46-.2,3,.52,3.81a3.12,3.12,0,0,0,2.63,1.11,3.64,3.64,0,0,0,2.12-.71A5.28,5.28,0,0,0,445.82,186.34Zm.31-5a4.79,4.79,0,0,0-.79-3,2.72,2.72,0,0,0-2.28-1.2,3.18,3.18,0,0,0-2.53,1.26,5.4,5.4,0,0,0-1.17,2.95Z"/><circle class="cls-16" cx="442.31" cy="7.17" r="7.17" transform="translate(124.48 314.86) rotate(-45)"/><path class="cls-18" d="M430.87,76.74c.34,0,.17,1.65,1.17,3.78a9.61,9.61,0,0,0,2.44,3.21,8,8,0,0,0,4.32,1.92,7.91,7.91,0,0,0,4.59-1.11,9.31,9.31,0,0,0,3-2.71c1.38-1.92,1.5-3.53,1.85-3.5.13,0,.27.4.27,1.16a7.25,7.25,0,0,1-.84,3.11,9.57,9.57,0,0,1-3.22,3.59,8.74,8.74,0,0,1-11.26-1,9.55,9.55,0,0,1-2.52-4.11,7,7,0,0,1-.26-3.21C430.52,77.09,430.73,76.72,430.87,76.74Z"/><path class="cls-16" d="M500,97.72c-.08,0,.85-1.46,1.75-4a43.6,43.6,0,0,0,2.1-10.32,77.35,77.35,0,0,0,.25-10.56c-.07-1.35-.13-2.45-.19-3.21a5.59,5.59,0,0,1,0-1.18,6.13,6.13,0,0,1,.2,1.17c.11.75.22,1.85.32,3.2a62.78,62.78,0,0,1-.12,10.62,39.52,39.52,0,0,1-2.24,10.38,19.77,19.77,0,0,1-1.38,2.93A6.54,6.54,0,0,1,500,97.72Z"/><path class="cls-16" d="M379.73,67.72a7.79,7.79,0,0,1-.26,1.15c-.1.37-.22.82-.32,1.35s-.27,1.12-.37,1.79a40.82,40.82,0,0,0-.57,4.71,42.49,42.49,0,0,0,.09,5.82,42,42,0,0,0,.94,5.73,40.6,40.6,0,0,0,1.39,4.55c.22.64.47,1.2.67,1.7s.39.92.56,1.26a5.56,5.56,0,0,1,.45,1.09,7.38,7.38,0,0,1-.6-1,12.93,12.93,0,0,1-.62-1.24c-.23-.49-.5-1-.74-1.68a37.08,37.08,0,0,1-1.49-4.56,39.78,39.78,0,0,1-1-5.8,38.6,38.6,0,0,1-.05-5.87,35.81,35.81,0,0,1,.66-4.75c.12-.67.29-1.27.43-1.79s.27-1,.39-1.33A5.51,5.51,0,0,1,379.73,67.72Z"/><path class="cls-20" d="M383.4,142.59l.31.09.9.31,3.45,1.22,2.49.89c.92.3,1.93.59,3,.93,2.16.64,4.6,1.47,7.36,2.12l4.32,1.11c1.51.38,3.1.66,4.73,1,3.25.75,6.79,1.26,10.49,1.86a188.22,188.22,0,0,0,24.35,1.74,188.22,188.22,0,0,0,24.35-1.74c3.71-.6,7.24-1.1,10.5-1.85,1.63-.36,3.22-.64,4.73-1l4.32-1.11c2.76-.65,5.2-1.48,7.36-2.13,1.08-.33,2.09-.62,3-.93l2.49-.88L505,143l.9-.31.31-.09s-.09.05-.29.13l-.89.35-3.43,1.29-2.48.92c-.91.32-1.92.62-3,1-2.16.66-4.59,1.52-7.36,2.19l-4.32,1.13c-1.5.39-3.09.68-4.73,1-3.26.76-6.8,1.29-10.51,1.9a183.77,183.77,0,0,1-24.41,1.77,183.42,183.42,0,0,1-24.4-1.78c-3.71-.61-7.25-1.13-10.51-1.89-1.64-.37-3.23-.66-4.73-1l-4.32-1.14c-2.77-.67-5.2-1.52-7.36-2.19-1.08-.35-2.09-.65-3-1l-2.48-.93-3.43-1.29-.89-.35C383.49,142.64,383.39,142.6,383.4,142.59Z"/><g class="cls-21"><path d="M383.64,142.69s7-14.6,61.38-15.22,61.37,15.22,61.37,15.22S451.58,169.72,383.64,142.69Z"/></g><path class="cls-18" d="M433.2,28.19l-.19,0-.55.05c-.48.05-1.19.06-2.11.17a58.06,58.06,0,0,0-7.66,1.27,56.11,56.11,0,0,0-40.84,38.76c-.28.88-.43,1.58-.57,2-.07.21-.12.39-.16.53a1,1,0,0,1-.06.18s0-.07,0-.19l.11-.54c.12-.47.24-1.18.5-2.06a51.49,51.49,0,0,1,2.59-7.36A54.55,54.55,0,0,1,390,51a54.9,54.9,0,0,1,32.63-21.58,52.17,52.17,0,0,1,7.72-1.14c.92-.09,1.64-.07,2.12-.1H433C433.14,28.18,433.2,28.18,433.2,28.19Z"/><path class="cls-18" d="M382.37,90.51a6.39,6.39,0,0,1-.73-1.62,22.5,22.5,0,0,1-1.06-4.15,23.12,23.12,0,0,1-.27-4.29,6.45,6.45,0,0,1,.21-1.76c.14,0,0,2.71.48,6S382.5,90.46,382.37,90.51Z"/><path class="cls-18" d="M368.75,86.33a2,2,0,0,1-.44-.44,8.41,8.41,0,0,1-.91-1.42A9.2,9.2,0,0,1,368.78,74,8.05,8.05,0,0,1,370,72.9a1.65,1.65,0,0,1,.53-.31c.05.06-.68.56-1.56,1.63a9.54,9.54,0,0,0-1.34,10.13C368.24,85.61,368.81,86.28,368.75,86.33Z"/><path class="cls-18" d="M442.78,2.17a11.31,11.31,0,0,0-1.9,0,5.21,5.21,0,0,0-3.74,2.26,5.23,5.23,0,0,0-.5,4.34,12.47,12.47,0,0,0,.83,1.72,1.31,1.31,0,0,1-.39-.36,4.36,4.36,0,0,1-.72-1.26,5.29,5.29,0,0,1,.42-4.67,5.31,5.31,0,0,1,4.07-2.33A4.44,4.44,0,0,1,442.3,2C442.62,2.06,442.79,2.15,442.78,2.17Z"/><path class="cls-18" d="M513.34,76.51c-.09.09-1.35-1.11-3.25-2s-3.62-1.18-3.6-1.31a9.29,9.29,0,0,1,6.85,3.33Z"/><path class="cls-18" d="M402.33,218.24s0-.05-.1-.16-.16-.28-.27-.47l-1-1.86-.7-1.35-.76-1.64c-.55-1.17-1.17-2.51-1.77-4l-1-2.37-1-2.6c-.7-1.79-1.29-3.76-2-5.8-1.27-4.12-2.51-8.7-3.61-13.56s-1.89-9.54-2.53-13.81-1.07-8.13-1.33-11.38c-.15-1.62-.25-3.1-.33-4.39s-.15-2.41-.18-3.32-.05-1.58-.07-2.1v-.54c0-.13,0-.19,0-.19l0,.19.05.54c0,.51.08,1.21.15,2.09s.13,2,.24,3.31.22,2.76.4,4.38c.3,3.25.8,7.09,1.41,11.35s1.5,8.92,2.57,13.78,2.32,9.41,3.56,13.53c.68,2,1.26,4,1.94,5.8.32.9.64,1.77.94,2.61s.64,1.61.94,2.37c.58,1.52,1.18,2.87,1.71,4l.73,1.64.66,1.37c.39.79.69,1.42.92,1.89l.22.49C402.31,218.18,402.34,218.24,402.33,218.24Z"/><path class="cls-18" d="M370.62,152.24a41.43,41.43,0,0,1-5.92-.21,42.51,42.51,0,0,1-5.89-.63,41.43,41.43,0,0,1,5.92.21A41,41,0,0,1,370.62,152.24Z"/><path class="cls-18" d="M340.16,135a44,44,0,0,1-3.08-5.24,42,42,0,0,1-2.71-5.45,45.76,45.76,0,0,1,3.08,5.25A44.71,44.71,0,0,1,340.16,135Z"/><path class="cls-18" d="M431,243.77a4.34,4.34,0,0,1-1-.12,20.51,20.51,0,0,1-2.54-.61,27.7,27.7,0,0,1-3.61-1.39,29.86,29.86,0,0,1-4.09-2.38,29.17,29.17,0,0,1-3.63-3.05,26.26,26.26,0,0,1-2.53-2.93,19.47,19.47,0,0,1-1.43-2.17,3.82,3.82,0,0,1-.43-.86c.07,0,.74,1.14,2.1,2.85a30.43,30.43,0,0,0,2.56,2.83,29.17,29.17,0,0,0,7.62,5.36,30.49,30.49,0,0,0,3.54,1.46C429.71,243.45,431.05,243.69,431,243.77Z"/><path class="cls-18" d="M443.46,206.31a2.18,2.18,0,0,1-.57.06,14.53,14.53,0,0,1-1.64,0,21.34,21.34,0,0,1-5.93-1,23.83,23.83,0,0,1-3.87-1.55,24.86,24.86,0,0,1-4-2.6A21.77,21.77,0,0,1,419,182a24.17,24.17,0,0,1,.85-4.71,23.26,23.26,0,0,1,1.5-3.88,21.14,21.14,0,0,1,3.35-5,14,14,0,0,1,1.15-1.16,2.78,2.78,0,0,1,.43-.38s-.54.58-1.46,1.65a22.46,22.46,0,0,0-3.2,5,23.72,23.72,0,0,0-2.24,8.5,21.67,21.67,0,0,0,8.26,19,26.11,26.11,0,0,0,3.94,2.59,25,25,0,0,0,3.8,1.58,22.41,22.41,0,0,0,5.85,1.08C442.67,206.31,443.45,206.27,443.46,206.31Z"/><path class="cls-18" d="M345.44,142.56c0,.07-.63-.24-1.65-.47a9.33,9.33,0,0,0-4,0,9.2,9.2,0,0,0-3.62,1.8c-.8.67-1.19,1.21-1.25,1.16a3.76,3.76,0,0,1,1.06-1.38,8.27,8.27,0,0,1,3.71-2,8.35,8.35,0,0,1,4.21.08A4,4,0,0,1,345.44,142.56Z"/><path class="cls-18" d="M524.18,194.1c0,.07-.63-.23-1.65-.46a9.06,9.06,0,0,0-7.65,1.83c-.81.67-1.2,1.21-1.26,1.17a4,4,0,0,1,1.06-1.39,8.38,8.38,0,0,1,7.93-1.9A4.1,4.1,0,0,1,524.18,194.1Z"/><path class="cls-18" d="M541.63,231.36c0,.06-.63-.24-1.65-.47a9,9,0,0,0-7.66,1.84c-.8.67-1.19,1.2-1.25,1.16a3.83,3.83,0,0,1,1.06-1.39,8.35,8.35,0,0,1,7.92-1.9A3.86,3.86,0,0,1,541.63,231.36Z"/><path class="cls-18" d="M465,62.06c0,.12-9.95.21-22.2.21s-22.21-.09-22.21-.21,9.94-.21,22.21-.21S465,62,465,62.06Z"/><path class="cls-18" d="M427.1,112.68s-.13,0-.37.06l-1.09.1c-.47,0-1,.08-1.71.09s-1.44,0-2.28,0a58.87,58.87,0,0,1-5.92-.35,66.76,66.76,0,0,1-7.17-1.24,64.89,64.89,0,0,1-7-2.09c-2.09-.78-3.94-1.57-5.46-2.32-.77-.36-1.43-.73-2-1s-1.09-.6-1.49-.85l-.93-.57a1.25,1.25,0,0,1-.31-.22,1.37,1.37,0,0,1,.35.15l1,.5c.41.22.92.49,1.52.78s1.28.64,2,1c1.52.71,3.37,1.47,5.46,2.23a71.13,71.13,0,0,0,6.93,2,71.46,71.46,0,0,0,7.11,1.26c2.21.26,4.2.4,5.88.44.84,0,1.6,0,2.27,0s1.25,0,1.72,0h1.08A1.59,1.59,0,0,1,427.1,112.68Z"/><path class="cls-18" d="M491.73,149.17a.75.75,0,0,1-.2.09l-.58.22-2.25.8c-1,.35-2.18.76-3.6,1.18s-3,.95-4.81,1.4l-2.82.74c-1,.26-2,.47-3.07.71-2.13.52-4.43.92-6.84,1.38a156.83,156.83,0,0,1-15.86,1.87,155.75,155.75,0,0,1-16,.08c-2.45-.15-4.78-.27-7-.52-1.09-.12-2.14-.2-3.15-.33l-2.89-.4c-1.84-.22-3.49-.55-4.94-.8s-2.7-.5-3.71-.73l-2.34-.52-.6-.14c-.14,0-.21-.06-.2-.07l.21,0,.61.11,2.35.44c1,.21,2.26.44,3.72.66s3.1.53,4.94.74l2.89.36c1,.13,2,.2,3.14.31,2.17.23,4.49.34,6.94.49,4.89.19,10.28.2,15.93-.12s11-1,15.82-1.83c2.41-.45,4.71-.84,6.83-1.34,1.06-.24,2.1-.44,3.08-.68l2.82-.72c1.8-.43,3.4-.94,4.82-1.34s2.62-.78,3.61-1.11l2.27-.72.6-.18C491.65,149.18,491.72,149.16,491.73,149.17Z"/><ellipse class="cls-22" cx="448.04" cy="272.88" rx="96.07" ry="9.34"/></g></g></svg>