<svg xmlns="http://www.w3.org/2000/svg" viewBox="0 0 100 100"><defs><style>.cls-1{fill:#ff8b00;}.cls-2,.cls-3{fill:none;stroke-linecap:round;stroke-linejoin:round;}.cls-2{stroke:#fff;stroke-width:1.67px;}.cls-3{stroke:#ff8b00;stroke-width:6px;}</style></defs><g id="Layer_2" data-name="Layer 2"><g id="Info"><circle class="cls-1" cx="50" cy="50" r="50"/><g id="Layer_2-2" data-name="Layer 2"><path class="cls-2" d="M86.12,54H80.2a1.33,1.33,0,0,0-.91.6l-1.71,2.62a3.77,3.77,0,0,0-.4,1.11c-.28,1.51-1.76,5.35-9.39,5.35-9.48,0-8.66-14.09-8.34-17.17a1.8,1.8,0,0,0-.29-1.05l-6.38-8.74c-.19-.25-.62-.68-.93-.68H48.29a1.37,1.37,0,0,1-1-.23l-4-4.95a1.31,1.31,0,0,0-1-.43H37.61c-.34,0-.91.4-.91.74v1.2c0,.34.06.31-.26.31H32.86a1.88,1.88,0,0,1-1.06-.23l-5-4a2,2,0,0,0-1.05-.31H19.85a.43.43,0,0,0-.43.57l3.22,12.1c.08.31-.12.8-.43.8H19.85c-.34,0-.4,0-.17.2l3.9,3.78a4,4,0,0,1,.71.83l6.49,10.81a.61.61,0,0,0,.83.23l1.3-.65a.66.66,0,0,0,.32-.8L25.4,36.83c-.11-.32,0-.77.37-.77H27c.35,0,.75.45.92.71L39,53.65a6,6,0,0,1,.48,1.11l2,7.18a1.75,1.75,0,0,0,.65.91l10.88,7.6a1.49,1.49,0,0,0,1,.22l10.53-2.19a1.68,1.68,0,0,1,1.09.2l5,3a.84.84,0,0,0,.94-.11l1.54-1.46a1.61,1.61,0,0,1,1-.34h3.56a.39.39,0,0,0,.34-.6l-.66-1.33a.93.93,0,0,1,.15-1l7.45-7.46a2.56,2.56,0,0,0,.57-1l.91-3.7C86.63,54.39,86.43,54,86.12,54Z"/></g><path class="cls-3" d="M25.22,59.79s-2.8,3.83-.93,5.95,7.81,1.76,11.79.88A81.83,81.83,0,0,0,64.66,53c7.27-5.57,7.84-9,7.31-10.77a2.85,2.85,0,0,0-1.6-1.78,20,20,0,0,0-5.29-1.2"/><path class="cls-2" d="M25.22,59.79s-2.8,3.83-.93,5.95,7.81,1.76,11.79.88A81.83,81.83,0,0,0,64.66,53c7.27-5.57,7.84-9,7.31-10.77a2.85,2.85,0,0,0-1.6-1.78,20,20,0,0,0-5.29-1.2"/><polyline class="cls-2" points="68.19 42.2 65.08 39.26 69.09 37.73"/></g></g></svg>