<svg xmlns="http://www.w3.org/2000/svg" viewBox="0 0 100 100"><defs><style>.cls-1{fill:#ff8b00;}.cls-2{fill:#fff;stroke:#fff;stroke-miterlimit:10;stroke-width:0.5px;}</style></defs><g id="Layer_2" data-name="Layer 2"><g id="Info"><circle class="cls-1" cx="50" cy="50" r="50"/><path class="cls-2" d="M31.14,30.39,35.5,26l1.91,1.3L39.79,29a.27.27,0,0,0,.35,0,17.91,17.91,0,0,1,5.57-2.31.29.29,0,0,0,.25-.27c.3-1.63.61-3.25.91-4.87,0-.08,0-.16.06-.26H52.8c.24,0,.31.08.35.3.28,1.58.59,3.16.88,4.75a.41.41,0,0,0,.36.38,18,18,0,0,1,5.44,2.26.32.32,0,0,0,.41,0c1.35-.94,2.71-1.86,4.07-2.79L64.5,26l4.37,4.36-1.28,1.88-1.65,2.41a.27.27,0,0,0,0,.35,17.89,17.89,0,0,1,2.28,5.49.39.39,0,0,0,.37.34l4.8.89c.21,0,.26.12.26.32,0,1.88,0,3.76,0,5.65,0,.19,0,.27-.25.3L68,49c-.42.08-.71-.09-.77-.45s.14-.61.57-.69l4.31-.81c.42-.08.36,0,.36-.43V43c0-.18,0-.25-.23-.28l-4.72-.88a.28.28,0,0,1-.27-.26A17.1,17.1,0,0,0,64.53,35a.25.25,0,0,1,0-.34l2.62-3.83.21-.31-3-3L62.16,29l-1.93,1.33a.26.26,0,0,1-.35,0,17.12,17.12,0,0,0-6.58-2.73.3.3,0,0,1-.26-.29c-.29-1.56-.59-3.11-.87-4.67,0-.21-.12-.27-.32-.26H48.14c-.19,0-.26,0-.3.25-.29,1.55-.59,3.11-.87,4.66a.34.34,0,0,1-.29.31,17.21,17.21,0,0,0-6.55,2.73c-.17.11-.26.05-.39,0l-3.81-2.61-.28-.19-3,3,1.22,1.79c.53.78,1.06,1.56,1.6,2.33a.29.29,0,0,1,0,.38,17.06,17.06,0,0,0-2.71,6.56c0,.18-.13.23-.3.26l-4.69.88c-.19,0-.24.1-.24.28,0,1.25,0,2.49,0,3.74,0,.2.06.28.26.31l4.39.81.11,0a.56.56,0,0,1,.48.7.58.58,0,0,1-.71.44l-3.65-.69L26.59,48c-.15,0-.21-.09-.21-.25,0-1.91,0-3.81,0-5.72,0-.19.06-.25.24-.28l4.8-.89a.4.4,0,0,0,.38-.36A18.13,18.13,0,0,1,34.07,35a.27.27,0,0,0,0-.36c-.91-1.31-1.8-2.63-2.7-3.94C31.29,30.62,31.21,30.51,31.14,30.39Z"/><path class="cls-2" d="M49.43,71.71V52.42c0-.52.2-.79.58-.79s.57.28.57.8V71.71a4.44,4.44,0,0,1,3.22,2.15,4.16,4.16,0,0,1,.56,3,4.4,4.4,0,0,1-4.43,3.7,4.42,4.42,0,0,1-.5-8.81ZM50,72.86a3.25,3.25,0,1,0,3.26,3.27A3.24,3.24,0,0,0,50,72.86Z"/><path class="cls-2" d="M62.38,66.59a4.33,4.33,0,0,1,2.91,1.69,4.23,4.23,0,0,1,.45,4.65,4.17,4.17,0,0,1-3.87,2.45A4.41,4.41,0,0,1,61,66.65c.21,0,.28-.12.28-.34,0-1.12,0-2.24,0-3.36a.79.79,0,0,0-.1-.37q-2.37-5-4.76-10a2,2,0,0,1-.1-.21.59.59,0,0,1,.29-.71.55.55,0,0,1,.75.22c.2.37.38.76.56,1.14q2.24,4.65,4.45,9.3a1,1,0,0,1,.08.37v3.86ZM58.54,71a3.26,3.26,0,1,0,3.18-3.26A3.27,3.27,0,0,0,58.54,71Z"/><path class="cls-2" d="M37.63,66.59V66.3c0-1.18,0-2.35,0-3.53a1.12,1.12,0,0,1,.11-.47q2.43-5.1,4.87-10.19c.17-.35.37-.5.64-.47a.59.59,0,0,1,.45.9c-.36.77-.74,1.53-1.11,2.3l-3.7,7.74a1.4,1.4,0,0,0-.1.45c0,1.07,0,2.14,0,3.21,0,.28.08.37.34.42a4.39,4.39,0,1,1-1.67,0ZM41.46,71a3.25,3.25,0,1,0-3.21,3.28A3.27,3.27,0,0,0,41.46,71Z"/><path class="cls-2" d="M74.17,59.32c0,.64,0,1.27,0,1.91,0,.18,0,.24.24.28a4.43,4.43,0,1,1-1.67,0c.23-.05.27-.14.27-.34,0-1,0-2.06,0-3.08a.36.36,0,0,0-.21-.37l-8.6-4.94a.67.67,0,0,1-.4-.51.55.55,0,0,1,.25-.54.56.56,0,0,1,.62,0l1.54.88L74,57.05a.37.37,0,0,1,.21.37C74.17,58.05,74.17,58.69,74.17,59.32Zm-.6,9.77a3.25,3.25,0,1,0-3.24-3.24A3.25,3.25,0,0,0,73.57,69.09Z"/><path class="cls-2" d="M26.41,70.26a4.41,4.41,0,0,1-.93-8.72c.28,0,.37-.15.36-.45,0-1.24,0-2.49,0-3.73a.29.29,0,0,1,.19-.29l9.26-5.32a.6.6,0,0,1,.86.19.59.59,0,0,1-.28.82l-4,2.28-4.7,2.71a.3.3,0,0,0-.18.3c0,1.06,0,2.11,0,3.16,0,.2.06.26.25.3a4.41,4.41,0,0,1-.84,8.75Zm0-1.17a3.25,3.25,0,1,0-3.28-3.21A3.26,3.26,0,0,0,26.44,69.09Z"/><path class="cls-2" d="M47.71,48c-.44,0-.86,0-1.27,0-.06,0-.14-.13-.18-.21-.33-.89-.66-1.78-1-2.67a.31.31,0,0,0-.34-.24H41.29c-.16,0-.23,0-.28.19-.33.91-.66,1.82-1,2.73-.06.15-.12.22-.29.22-.34,0-.68,0-1.06,0,.07-.2.12-.37.19-.55q1.66-4.69,3.34-9.38c.08-.23.19-.32.43-.3a8.17,8.17,0,0,0,1,0,.33.33,0,0,1,.38.25c.8,2.2,1.62,4.39,2.44,6.58l1.21,3.25A.86.86,0,0,0,47.71,48Zm-2.87-4.24-1.76-4.88-1.66,4.88Z"/><path class="cls-2" d="M50.65,43.8V48H49.38V37.83l.19,0c1.26,0,2.52,0,3.78,0a3.54,3.54,0,0,1,2,.6,2.82,2.82,0,0,1,1.11,2.91,2.61,2.61,0,0,1-2,2.26,5.67,5.67,0,0,1-1.36.21C52.36,43.82,51.53,43.8,50.65,43.8Zm0-1.06c1,0,2,0,3.06-.1a1.5,1.5,0,0,0,1.32-1,1.9,1.9,0,0,0-1.71-2.77c-.86,0-1.71,0-2.56,0l-.11,0Z"/><path class="cls-2" d="M59.75,48H58.51V37.83h1.24Z"/></g></g></svg>