<svg xmlns="http://www.w3.org/2000/svg" viewBox="0 0 100 100"><defs><style>.cls-1{fill:#ff8b00;}.cls-2,.cls-4,.cls-5{fill:none;}.cls-2,.cls-3,.cls-5{stroke:#fff;}.cls-2,.cls-3,.cls-4,.cls-5{stroke-linecap:round;stroke-linejoin:round;}.cls-2{stroke-width:1.54px;}.cls-3{fill:#fff;stroke-width:0.45px;}.cls-4{stroke:#ff8b00;stroke-width:6.58px;}.cls-5{stroke-width:1.67px;}</style></defs><g id="Layer_2" data-name="Layer 2"><g id="Info"><circle class="cls-1" cx="50" cy="50" r="50"/><polyline class="cls-2" points="29.58 56.52 29.58 70.95 68.92 70.95 68.92 55.59"/><line class="cls-2" x1="35.94" y1="57.8" x2="42.85" y2="66.33"/><polyline class="cls-2" points="42.85 70.21 42.85 66.33 59.86 66.33 62.08 70.95"/><line class="cls-2" x1="63.97" y1="57.57" x2="59.86" y2="66.33"/><path class="cls-3" d="M49.33,58.15H68.67c.72,0,.84-.12.84-.83V32.41c0-.68-.15-.82-.85-.82H45.22a.76.76,0,0,1-.69-.33,6.38,6.38,0,0,0-10.25,0,.69.69,0,0,1-.65.32c-1.26,0-2.52,0-3.78,0-.58,0-.75.17-.76.76V57.21c0,.86.09.94.93.94H49.33Zm10-10.37-.18-.13Q55.06,44,51,40.37a1,1,0,0,0-.59-.26c-1.86,0-3.73,0-5.6,0h-.53a11.86,11.86,0,0,0,1.44-3.6,7,7,0,0,0-.29-3.8H59.33Zm1.17.71V32.72h7.87V48.49ZM51.05,57V42l.56.48q3.72,3.32,7.45,6.62a.76.76,0,0,1,.3.64q0,3.47,0,7c0,.12,0,.25,0,.39ZM30.22,41.27l.15,0c1.58,0,3.15,0,4.73,0a.65.65,0,0,1,.4.24c1,1.13,2.08,2.26,3.11,3.4a.91.91,0,0,1,.23.54c0,1.86,0,3.73,0,5.6,0,.11,0,.23,0,.34h-8.6Zm9.19,2.84a18,18,0,0,1-4.55-5.92,9.9,9.9,0,0,1-.68-2.39,5.3,5.3,0,1,1,10.3.87C43.68,39.73,41.66,42,39.41,44.11Zm.55,7c0-2,0-3.94,0-5.87,0-.14.15-.3.25-.42,1-1.11,2.05-2.21,3.05-3.33a.7.7,0,0,1,.59-.3H49.5l.38,0c0,.1,0,.15,0,.2,0,1.88,0,3.76,0,5.64,0,.26-.15.32-.35.4l-6.07,2.3ZM40,57c0-1.44,0-2.83,0-4.21a.58.58,0,0,1,.44-.66c3.06-1.15,6.1-2.32,9.15-3.48l.34-.1V57Zm20.52-7.39h7.89V57H60.48ZM30.24,57V52.54h8.59V57Zm4.32-16.94H30.23V32.72h3.21C32.48,35.37,33.26,37.75,34.56,40.09Z"/><path class="cls-3" d="M39.39,31.88a3.23,3.23,0,1,0,3.24,3.21A3.2,3.2,0,0,0,39.39,31.88Zm0,1.11a2.12,2.12,0,1,1-2.12,2.11A2.1,2.1,0,0,1,39.41,33Z"/><path class="cls-4" d="M22,57.55s-3.58,4.9-1.19,7.62,10,2.24,15.08,1.12A104.56,104.56,0,0,0,72.41,48.87c9.3-7.12,10-11.52,9.35-13.78a3.65,3.65,0,0,0-2.05-2.27A25,25,0,0,0,73,31.29"/><path class="cls-5" d="M22,57.55s-3.58,4.9-1.19,7.62,10,2.24,15.08,1.12A104.56,104.56,0,0,0,72.41,48.87c9.3-7.12,10-11.52,9.35-13.78a3.65,3.65,0,0,0-2.05-2.27A25,25,0,0,0,73,31.29"/><polyline class="cls-5" points="76.93 35.05 72.95 31.29 78.07 29.32"/></g></g></svg>