<svg xmlns="http://www.w3.org/2000/svg" viewBox="0 0 100 100"><defs><style>.cls-1{fill:#ff8b00;}.cls-2,.cls-4{fill:none;stroke-linecap:round;stroke-linejoin:round;}.cls-2{stroke:#fff;stroke-width:1.67px;}.cls-3{fill:#fff;}.cls-4{stroke:#ff8b00;stroke-width:2.14px;}</style></defs><g id="Layer_2" data-name="Layer 2"><g id="Info"><circle class="cls-1" cx="50" cy="50" r="50"/><polygon class="cls-2" points="27.45 35.87 27.45 64.13 51.4 75.57 75.35 64.13 75.35 35.87 51.4 24.43 27.45 35.87"/><polyline class="cls-2" points="27.45 35.87 51.4 46.98 51.4 75.57"/><line class="cls-2" x1="75.35" y1="35.87" x2="51.4" y2="46.98"/><polyline class="cls-2" points="36.93 31.34 60.51 42.75 60.51 55.49 67.06 52.31 67.06 39.71 42.2 28.82"/><path class="cls-3" d="M17,57.11l11.29-6,11.17,6s-1.05,13.25-11.23,17C18.81,70.3,17.08,60.09,17,57.11Z"/><polyline class="cls-4" points="23.87 62.89 26.65 65.28 32.38 60.09"/></g></g></svg>