<svg xmlns="http://www.w3.org/2000/svg" viewBox="0 0 100 100"><defs><style>.cls-1{fill:#ff8b00;}.cls-2,.cls-3{fill:none;stroke-linecap:round;stroke-linejoin:round;}.cls-2{stroke:#fff;stroke-width:1.67px;}.cls-3{stroke:#ff8b00;stroke-width:6.58px;}</style></defs><g id="Layer_2" data-name="Layer 2"><g id="Info"><circle class="cls-1" cx="50" cy="50" r="50"/><circle class="cls-2" cx="49.91" cy="50" r="25.02"/><ellipse class="cls-2" cx="49.91" cy="50" rx="9.09" ry="25.02"/><line class="cls-2" x1="24.89" y1="50" x2="74.94" y2="50"/><path class="cls-2" d="M29.56,35.43a70.07,70.07,0,0,0,20,2.66A75,75,0,0,0,70,35.43"/><path class="cls-2" d="M29.56,64.57a70.31,70.31,0,0,1,20-2.65A75.25,75.25,0,0,1,70,64.57"/><path class="cls-3" d="M21,56.12s-3.58,4.9-1.19,7.62,10,2.24,15.08,1.12A104.56,104.56,0,0,0,71.47,47.44c9.3-7.12,10-11.52,9.34-13.78a3.64,3.64,0,0,0-2-2.27A25.4,25.4,0,0,0,72,29.86"/><path class="cls-2" d="M21,56.12s-3.58,4.9-1.19,7.62,10,2.24,15.08,1.12A104.56,104.56,0,0,0,71.47,47.44c9.3-7.12,10-11.52,9.34-13.78a3.64,3.64,0,0,0-2-2.27A25.4,25.4,0,0,0,72,29.86"/><polyline class="cls-2" points="75.98 33.62 72 29.86 77.13 27.9"/></g></g></svg>