<svg xmlns="http://www.w3.org/2000/svg" viewBox="0 0 100 100"><defs><style>.cls-1,.cls-3{fill:#ff8b00;}.cls-2{fill:none;}.cls-2,.cls-3,.cls-4{stroke:#fff;stroke-linecap:round;stroke-linejoin:round;stroke-width:1.67px;}.cls-4{fill:#fff;}</style></defs><g id="Layer_2" data-name="Layer 2"><g id="Info"><circle class="cls-1" cx="50" cy="50" r="50"/><rect class="cls-2" x="21.88" y="32.78" width="38.88" height="30.86"/><polygon class="cls-2" points="60.76 63.64 79.71 63.64 79.71 55.99 73.66 40.69 60.76 40.69 60.76 63.64"/><polyline class="cls-2" points="75.19 44.57 66.81 44.57 66.81 52.59 78.37 52.59"/><line class="cls-2" x1="21.88" y1="59.65" x2="60.76" y2="59.65"/><ellipse class="cls-3" cx="35.67" cy="63.59" rx="4.97" ry="4.99"/><ellipse class="cls-3" cx="69.59" cy="63.59" rx="4.97" ry="4.99"/><rect class="cls-2" x="26.08" y="51.36" width="7.46" height="3.91"/><rect class="cls-2" x="37.38" y="51.36" width="7.46" height="3.91"/><rect class="cls-2" x="48.67" y="51.36" width="7.46" height="3.91"/><rect class="cls-2" x="26.08" y="44.14" width="7.46" height="3.91"/><rect class="cls-2" x="37.38" y="44.14" width="7.46" height="3.91"/><rect class="cls-2" x="48.67" y="44.14" width="7.46" height="3.91"/><rect class="cls-4" x="26.08" y="36.93" width="7.46" height="3.91"/><rect class="cls-4" x="37.38" y="36.93" width="7.46" height="3.91"/><rect class="cls-2" x="48.67" y="36.93" width="7.46" height="3.91"/></g></g></svg>